<?xml version="1.0" encoding="utf-8"?>
<!-- Generator: Adobe Illustrator 26.3.1, SVG Export Plug-In . SVG Version: 6.00 Build 0)  -->
<svg version="1.1" id="Capa_1" xmlns="http://www.w3.org/2000/svg" xmlns:xlink="http://www.w3.org/1999/xlink" x="0px" y="0px"
	 viewBox="0 0 829.4 1137.6" style="enable-background:new 0 0 829.4 1137.6;" xml:space="preserve">
<style type="text/css">
	.dep{fill:#7C7C7C;stroke:#FFFFFF;stroke-width:2;stroke-linecap:round;stroke-linejoin:round;}
</style>
	<path id="COL99" class="dep" d="M-83.9,623.7l0.2,0.9l-0.6,0.5h-0.4l-0.8,0.7l-0.4,0.1l-0.3-0.3l0.5-0.8l0.5-0.3v-0.6l0.4-0.2
		L-83.9,623.7L-83.9,623.7z"/>
	<path id="COL1283" class="dep" d="M652.5,935.8l0.2,3l-1.1,6.2v3.1l-1.2,4.6v1.3l-1,3.4l-6.6,36.7l-4,21.7l-3.9,21.7l-4,21.7
		l-2,10.8l-7.8,43.5l-4,21.7l-1.2,2.4l-1.8-3.8l-1.2-1.7l-1.4-1.6l-2-1.6l-6.8-3.5l-1.8-1.8l-0.7-2.2l-0.4-2.4l-0.8-2.4l-1.6-2.3
		l-2.2-2.3l-2.5-1.9l-2.6-0.9l-1.9,0.2l-1.5,0.9l-2.6,2.4l-1.7,0.8h-1.8l-3.6-0.9l-0.7-0.5l-9.2-4.8l-2.9-0.3l18.1-28.3l10.5-16.5
		l5.3-8.2l10.6-16.5l1.5-2.4l-1.2-0.8l-0.5-0.8l-0.5-1l-0.8-3l-0.7-0.5l-1.4,0.9l-0.4,0.7l-0.3,0.7l-0.4,0.5l-0.5,0.2l-0.7-0.4
		l-0.1-0.6v-0.6l-0.2-0.7l-1.3-1.1l-1.1,0.4l-1.2,0.5l-1.2-0.5l-0.8-1.2l-0.9-2.8l-0.8-1.3l-1.5-0.7l-1.3,0.4l-1.4,0.8l-1.6,0.5
		l-0.8-0.7l-0.3-0.6v-0.6l0.3-0.3l1.1-0.5l0.4-0.2l0.3-1.4l-0.9-0.7l-1.4-0.1h-1.4l-0.8,0.2l-1.6,0.6l-0.7,0.1l-0.7-0.4l-0.4-0.6
		l-0.3-0.7l-0.4-0.7l-0.8-0.7l-1.2-0.6l-1.2-0.4l-1.2-0.1l-1-0.5l-0.8-1l-0.9-0.6l-1.2,0.8l-0.2,0.6v1.4l-0.5,0.3H570l-0.4-0.4
		l-0.1-0.8v-0.9l-0.1-0.7l-0.4-0.8l-2.2-1.7l-0.2-0.1v-2l-0.2-0.5l-0.3-0.4l-1.8-0.2l-1.2-0.3l-2.5-0.9l-2.3-1.5l-3.5-3.7l-2-1.3
		l-1.4,0.7l-1.7-0.4l-2.9-1.2h-1.9l-0.7,0.9l0.2,1.6l0.6,1.7l-0.6,0.3l-0.8,0.1l-0.9-0.2l-1.7-1h-0.8l-1.9,0.3l-1.5,0.7l-1.3,3.2
		l-1.9,1l-1.3,1l-0.7,0.1l-0.7-0.2l-0.8-0.6l-0.8-0.2l-1,0.4l-1.4,0.8l-1.2,0.3l-0.5-1l-4.9,2.4l-2.2,0.5l-0.8-1.5l0.3-0.5l0.9-0.8
		l0.2-0.6l-0.3-0.7l-1.5-2l-1.2-2.1l-0.7-0.2l-0.9,0.9l-0.7,2.6l-0.5,0.7l-1.1-0.5l-0.5-1v-2.8l-0.4-1.3l-0.7-0.6l-3.9-0.8l-1.4-0.7
		l-1.2-1l-1.4-0.8l-1.5-0.2l-2.3,1.1l-1.3,0.2l-0.6-1.1l0.1-2.4l-0.5-0.4l-1.5,0.7l-3.9,2.5h-0.6l-0.4,0.7l-2.4,3.8l-3.2,2.4
		l-0.5,0.5l-0.3,1.5l-0.8,0.9l-1.2,0.3l-4.2-0.6H475l-1.9,0.7l-1.8,1.6l-3,3.5l-1,0.3l-4.3-1h-0.7l-1.8,0.4l-0.3,0.3l0.1,1.3
		l-0.2,0.5l-0.6,0.2l-1.6,0.1l-2.7,0.8l-1.5,0.1l-1.2-0.3l-1.2-0.6l-0.9-0.8l-0.3-0.9l-0.6-0.5l-6.9-1.1l-1.3-0.4l-3-2.4l-1.2-0.7
		l-1.3-0.2l-0.8,1.1l-1.8,3.7l-0.8,0.8l-1.1,0.4l-0.4-0.2l-0.3-1.8l-0.2-0.6l-0.6-1.1l-0.8,0.4l-0.5,0.5l-0.4,0.6l-0.1,0.8l-1.8-1.2
		l-1.1-0.4l-1.7,0.8l-1.9,0.7l-0.8,0.8l-1,0.3l-2.8,0.6h-0.6l-0.6-0.5l-0.6-1.1l-1.1-3.1l-1-0.8l-0.2-0.4l-4.7-2.6l-0.1,0.7l-0.8,1.6
		l-0.9,0.8l-0.4-1.5l-0.6-0.6l-2.9-0.7l-1.1-0.7l-0.2-0.5l-0.3-2.1l-0.3-0.3l-0.9-0.7l-0.3-0.8l-0.7-1l-0.1-0.6l0.1-0.7l0.2-0.5
		l0.6-0.7l2.5-2.2l0.6-1.5l2-3.2l-0.9-0.9l-0.6-1.4l-0.3-1.5l-0.5-1.3l-1.2-1.7l-0.4-0.9l-0.3-1.1l0.1-0.9l0.7-1.7l0.2-0.6l-0.4-1.1
		l-1.6-1.9l-0.4-0.9l0.5-2.5l-0.4-0.8l-1.2-0.6l-0.7-0.5l-1.8-2h-0.7l-0.2,1.8l-0.5,0.2l-2.2-0.6l-1,0.2l-1.1,1l-0.5,0.8l-0.7-0.1
		l-1.6-1.5l-0.9-0.5l-0.8-0.2l-0.7,0.1l-1-0.1h-1l-0.5-1.4l-4.3-2.6l-1.4-1.7l0.2-2.6l0.8-2.2l0.5-1.1l1.7-0.9v-1.3l-0.7-2.8
		l-0.1-1.6l-0.1-0.7l-0.5-0.7l-1.4-1l-0.8-1.2l-2.5-1.2l-0.6-1l1.1-1.3l0.3-0.7l-1.1-0.5l-0.7-1l-0.1-0.4l-0.1-1.5l-0.3-1l-0.3-0.1
		l-0.8,0.1h-0.3l-0.2-1.1l-0.5-1l-0.2-0.8l-0.4-0.6l-1.5-0.4l-1.3-1l-0.8-0.2l-1.5-0.3l-1.3-0.7l-0.9-1l-0.6-1.2l-1,0.4l-1.1,1.7
		l-1.1,0.6h-0.8l-1.1-0.2l-1.8-0.7l-0.9-0.6l-0.7-0.7l-1.2-1.9l-1-2.7l-0.4-0.6l-1.1-0.4l-2.1,0.5l-0.9-0.5l-0.1-0.6l0.6-1.1
		l-0.1-0.6l-0.5-0.5l-0.4,0.2l-0.4,0.7l-0.8,0.4l-0.3,0.3l-0.4,0.1l-0.8-0.3l-0.6-0.5l-0.3-0.6l-1.6-4.6l-0.7-0.8l-1.1,2l-1.8,0.1
		l-4.1-1.6l-4-0.7l-1.8-1l-1.5-2l-1-3l-0.6-0.9l-1.7-1.1l-0.4-0.7l0.4-0.7l0.9-0.2l1.1,0.2h0.9l0.4-0.8l-0.4-0.8l-0.7-0.7l-0.4-0.8
		l0.6-1.1l-0.6-0.2h-1.1l-0.7-0.2l-0.4-0.3l-2.3-2.6l-0.5-0.9l0.1-1.3l0.3-0.6l0.8-0.7l0.2-0.5l-3.2-7l-0.2-0.6l37.1-11.5l5.1,1h1.2
		l0.9-0.4l1.9-1h1l1.2,0.5l1.9,1.2l0.4,0.2l0.8,0.1l0.4,0.4l0.1,0.4l-0.3,1.3l0.1,0.5l0.5,0.4l0.5,0.1l1.6-0.1l0.7,0.1l0.6,0.5l0.8,2
		l0.5,0.9l0.9,0.5l5,0.8l3-0.2l3.1,0.1l1.5-0.2l1.1-0.7l0.6-0.5l0.6-0.2l1.2,0.4l2.2,1.7l2.5,2.5l2.6,2l2.7,0.2l2.3-0.5h1.8l1.6-0.5
		l1.5-1.6l4.1-2.9l7.6,5.1l4.6-0.9l2.5-1.6l1.9-0.4l2,0.8l7.1,5.8l1.7,1.1l1.7,0.8l1-0.1l0.7-0.9l0.9-1.5l3.2-3.6l2.1-1.9l1.7-0.7
		l2.1,1.3l2.1,2.1l2.3,1.5l3-0.5l1.8-1.5l0.8-0.8l0.3-1.7l-0.1-1.9v-2.4l0.4-2.1l1.2-1.8l1.5-1.5l1.2-1.6l2.1-3.5l1-1.1l3.6-1.9
		l2.6-2.5l1.6-0.8l2.1-0.3l9.2,0.1l2.6-0.5l2.1-0.9l1.4-1.4l1-2.1l0.8-2.9l2.5-2.9l4.3-2.9l12.4-5.5l3.5-1.9l4.5-4.5l1.5,1.5l1,0.5
		l1.1,0.4l1.1,0.1h1.1l2.8-1.3h1.4l1,1.4l0.6,2.8l0.6,1.1l1.5,0.6l1.3,0.4l2.6,1.3l1.2,0.4l0.8-0.1l1.4-0.7h0.9l0.8,0.5l0.9,1l2,2.9
		l0.5,1l0.3,1v1.2l-0.3,1.2l-0.4,0.8l0.1,0.8l2.5,3.2l1.6,4.5l1.6,3.5l0.4,0.6l0.6,0.2l2.4,0.1l1.1-0.2l0.8-0.6l0.3-1.1l0.7-1.1
		l1.3-0.1l1.5,0.5l1.2,0.6l1.9,1.6l0.7,0.3l0.8,0.1l1.5-0.3h0.8l0.9,0.5l1.4,1.7l0.9,0.4l3.4-0.3l1.1,0.3l1.1,0.7l1,1.2l0.8,1.3
		l0.5,1.2v1.1l-0.2,1l0.3,0.6l2.9-0.1l3.5,0.7l1.3-0.2l0.5-0.7l-0.2-1.8l0.7-0.9l1.4-0.7l1.2-0.4h1.3l1.5,0.4l1.5,0.9l0.3,0.8
		l-0.6,0.8l-4.2,3.9l-1.4,1.9l0.1,1.5l0.7,0.1l1-0.4l1.2-0.1l1,0.9l0.3,1.2v1.3l-0.4,2.6v1.2l0.2,1.1l0.7,2.1l-0.1,1l-0.9,0.7l-1,0.6
		l-0.7,0.9l0.6,2.4l2.1,2.2l1.4,2.1l-1.5,2.3l-2,1.3l-0.8,0.8l-0.2,1.1l0.4,1.3l0.9,1.4l1.2,1l1.2-0.3l1.7-1.5l0.9-0.4l0.4,0.9
		l-0.2,0.9l-0.8,1.8l-0.1,0.9l0.6,0.7l3.3,2.6l1.3,0.3l1.3-0.2l1.2-0.7l0.6-1.3l-0.8-1.8l-1.7-1.3l-1-1.6l1.7-2.1l1.1-0.6h0.8
		l1.3,0.7l0.6,0.2h0.6l0.9-0.5l0.6-0.8l0.7-0.5l2,1l1-0.2l1-0.6l1.1-0.4l1.5-0.1l0.4,0.6l-0.3,0.8l-0.5,0.9l-1.2,1l-0.4,0.5l-0.1,0.3
		v1.4l-0.9,2.1v0.9l1.1,0.9l1.3,0.1l1.1-0.6l1-0.9l1.1-0.6h1.6l3,1.2h1.4l0.8-0.6l0.5-1.8l0.6-0.7l1-0.4l1,0.2l1,0.6l2.7,2.4l0.9,1.1
		l0.3,1.1l-0.3,1.2l-0.5,1.1l-0.3,1.1l0.2,1.3l0.5,1.3l0.5,0.4l0.8-0.1l3.4-2l1,0.1l4.8,2.4l0.9,0.1l1,0.4l0.4,0.4l0.3,0.9
		L652.5,935.8L652.5,935.8z"/>
	<path id="COL1314" class="dep" d="M288.6,299.8l15.8,12.9l1.2,2.1l1.3,1.8l0.7,0.8l0.7,1.9l0.7,6.8l0.6,2l0.8,1.3l0.9,0.5l0.8,0.5
		l0.3,0.9l-0.2,1.2l-1,1.9l-1.2,1.2l-1.5,0.9l-1.5,1.1l-0.8,1.7l-0.9,5.6v2.1l0.3,1.8l1.3,2.9l2.3,2.8l1.4,1.3l1.3,0.4l1.3-0.3
		l1.5-1.3l0.9-1.1l1.2-2.9l0.7-1.2l2.7-2.1l1.2,3.8l-0.4,1.6l-0.4,1.1l-0.6,0.9l-1.4,1.5l-0.5,0.9l-0.3,1.5l0.3,1.6v2.7l-0.7,2.3
		l0.1,1.7l0.5,2.1l1.1,2.7l0.6,2.1l0.7,1.9l0.2,1.5l0.3,1.5l0.7,1l1.6,0.7l1.3,0.2l2-0.2l1.2,0.3l21.7-20.7l-0.5,3.2l0.7,8.7l0.3,1.4
		l0.7,1l0.8,1l0.5,1l0.4,2.8l-0.9,1.8l-1.6,1.2l-5.5,2.7l-0.7,0.5l-0.4,1l-2.8,3l-2.1,4.1l-0.9,1.2l-12.4,9.2l-2.5,1.2l-2.7,0.4
		l-1.1,0.3l-0.4,1l-0.1,0.5l-0.8,2l-0.2,0.5l0.2,6.2l0.2,0.9l1.1,1.2l0.4,0.7l0.1,0.8l-0.3,0.8l-0.5,0.6l-0.7,0.2l-0.8-0.3l-3.1,4.7
		l-1.7,1.9l-2.3,1.6l-1.9,1.3l-1.3,1.5l-0.8,1.7l-0.6,2.9l-0.9,1.6l-0.2,0.9v1l0.4,0.7l0.9,1.1l0.5,1.1l0.1,1l-0.1,2.8l0.2,1.4
		l-0.2,0.6l-0.4,0.2l-1.1,0.5l-0.3,0.3l-0.1,1.2l1,2.8l-0.3,0.6l-0.8,0.3l-0.9,0.9l-0.8,1.1l-0.5,1l-0.6,4.2l-0.9,1.8l-0.6,0.4
		l-0.8-0.7l-0.4-0.2l-0.6,0.2l-0.9,0.1l-0.4,0.4l-0.1,0.5l-0.5,1.2l-0.3,1.4l-0.9,1.6l-2.2,0.7l-0.7-0.3l-2.8-1.9l-1.2-1.1l-1.3-0.4
		l-4.1,0.8l-4.3,1.3l-0.9,1.4l-0.7,0.8l-1.3,0.7l-1.3,0.5l-2.5,0.2l-0.2,1.8l0.1,2.5l-0.5,1l-2.3,2.6v0.5l-0.6,0.4l-1.7,0.1l-0.8,0.3
		l-1,0.5l-1.4,0.9l-1.1,0.9l-0.6,1.3l-0.8,1l-0.8,1.3l-0.7,0.2l-1.1-2.7l-1.8,0.7l0.3-2.5l-0.1-1.2l-1.6-4.6l-0.5-0.8l-0.9-0.4
		l-0.5-0.3l-0.7-0.8l-0.1-0.6l0.1-0.7l0.1-1.3l-0.2-0.7l-0.3-0.4l-1.5-0.5l-0.6-0.5l-0.7-0.3l-3,1.6h-1.1l-0.4-0.2l-2.6-1l-0.6-0.6
		l-0.3-1l-0.8-0.6l-0.8-0.2l-2.2-0.8h-0.8v0.2v2.1l0.4,0.9l1,0.3l-0.4,2.1v1l1.1,3.7l0.1,1.4l-0.1,1.3l-0.3,1.6l-1.7-0.5l-1.6,0.1
		l-1.4-0.2l-1.5,0.1l-0.6-0.2l-0.7-0.7l-1.8-1.3l-1,0.1l-4.4,3.1l-3.5,1.5l-1.5,0.2l-3.1-0.5l-2.3-0.9l-1.5-0.9l-1.3-1.2l-0.8-1.6
		l-2-1l-2.6-2.7l-0.4-0.5l-0.7-1.3l0.1-1.1l0.8-2.9l-0.2-1.7l-0.5-0.9l-1.9-3.2l-0.5-1.5l-0.3-1.8l0.2-1.6l1.8-4.7l-0.4-3l-1.7-0.9
		h-1.8l-1.7-0.7l-1.9-2.4l-1.6-4.2l-0.5-4.2l-0.7-1.1l-1.2-0.9l-2.4-0.3h-2.5l-2.6,0.3l-2.2,0.5l-3.2,0.3l-3.8,0.3l-3,0.7l-5.3,0.2
		l-1.7-0.2l-1.8-0.5l-0.9-0.7l-0.6-0.8l-0.2-1.4l-0.7-1.2l-1.9-2l-0.1-0.4l-0.3-1.5l-0.3-0.2l-1.1-0.3l-0.4-0.4l-0.3-1.1l0.2-1.3
		l0.4-1.2l0.6-0.6l-0.9-0.4l0.7-1.1l-0.1-0.8l-0.6-0.7l-0.5-1.1l0.9-0.3l0.5-0.7l-1.1-0.3l-0.2-0.6l0.4-0.9l0.7-0.8l-0.1-0.5l-1.6-2
		l-0.9,0.3l-0.6-0.6l-0.5-0.9l-0.7-0.6v-1.2l-0.3-1l-0.6-0.7l-1-0.4l-0.8,0.4l-0.4-0.8l0.2-1.4l0.6-1h0.4l0.4,0.3h0.4l0.2-1l-0.3-0.3
		l-1.5-0.2l-0.6-0.2l-0.4-0.7v-0.7l0.4-1.1l-0.3-0.4l-0.6,0.4l-0.5,0.7l0.1,0.4l-0.8-0.1l-0.4-0.3l-0.2-0.5v-0.7l-0.2-0.5l-0.5-0.1
		l-1.2-0.1l1.2-1.4l0.2-0.4l-0.2-0.7l-1-0.7l-0.2-0.8v-2.5l-0.2-0.6l3-1l0.9-0.1l2.1-1.3l3.2,0.3l0.6-0.3l0.3-0.4l0.8-0.8l0.6-0.8
		l0.3-1l-0.3-2.5l-0.3-1.1l-0.4-0.8l-0.8-0.5l-0.2-0.2l-0.6-1.4l0.3-1l1-0.6l1.3-0.5l2-0.3l4.3-0.4h1.4l5.5,1.4l1.2,0.4l0.9,0.5
		l1.6,0.1l2.2-3.7l0.3-0.6l0.2-1.3l-0.2-7.6l-1.4-4.2l-0.9-1.3l-2.9-2.5l-0.8-0.6l-0.9-0.3l-2.3-0.3l-1.8-1.1l-1.3-1.1l-5.4-6.7
		l-7-7.6l-7-5l-8.6-7.9l-0.7-0.8l-0.5-1l0.5-0.4l0.4-0.1l-0.2-0.7l-0.3-0.1v-2.8l1.8,0.3l1.5-1l1.4-1.4l1-0.7l0.9-1l1.3-6.9l0.4-1
		l0.5-0.7l1.3-0.8l0.2-1.3l0.5-0.7l0.4-1.4l-0.5-5.6l-0.3-1.3l-0.5-1.1l-0.8-3.3v-0.2l0.6,0.1l0.4-0.9l0.5,0.1l0.4,0.6v1.2h-0.4
		l-0.5-0.5v1.7l0.5,1.2l0.8,0.5l1-0.6v1.4l0.9-1l0.3,0.7l-0.6,1.1l-0.1,1.1l-1.4-0.5l0.4,2.4l1.7,1l1.5-0.2l0.1-1.3h4.2l-0.8,1.3
		l-0.2,0.7v0.8h0.5l0.9-0.5v0.5l-2.3,0.9v0.4l1,0.3l0.5,0.6l-0.1,0.6l-0.7-0.6l-1.1,0.1l0.5,0.6l1.3,0.9l0.5,0.8l-1.7-0.8l-1.8-0.5
		l-1.6,0.2l-1,1.1v0.3l0.5,0.1l-1.3,3.9l1.8,2.4l3.6,1.1l4.2,0.1l0.8-0.1l0.8-0.3l0.7-0.4l0.5-0.6l0.2-0.6l-0.2-1.5l0.1-0.5l0.6-0.7
		l0.2-0.6l0.4-4.2l-0.1-1.9l-0.8-1.6l-0.3,0.9l0.3,0.9h-0.4l-0.4-1.1l-0.2-1.5v-1.6l0.7-2.3l-0.2-1.4l-0.9-2.3l-0.4-2.2v-9.5
		l-0.3-1.2l-0.9-0.6l-0.9-0.4l-0.4-0.9l-0.3-1.2l-0.4-1.2l-1.4-1.4l-2.1-1.5l-2.4-1.1l-2-0.3v0.6l-0.8-0.8l1.1-1.7l1.7-2l0.8-1.4
		l6.7-2.1l1.6-0.1l6.6-1.9l0.8-0.5l0.4-0.5l0.1-1.6l0.3-0.6l0.6-0.4v-0.4h-0.5v-0.5l1.3-0.2l4.5-1.7l0.9-0.7l3-3l3.5-2.4l0.4-0.4
		l0.4,0.3l1.8,1.8l0.5,1.4l1.1,5.4l1.6,2.3l1.2,2.1l1,1l3.6,1.3l1.1,1l2.2,3.3l0.9,5.6l0.1,2.9l-0.2,2.9l-3.6,4.2l-3.2,4.6l-3.5,7
		l-2,3.1l-1.3,2.3l0.2,6.3l-0.2,1.8l-0.9,3.2l-2.4,3.9l-2.5,9.1v6.5l0.6,3l4.2,9.2l1.8,5.7l25.3,0.7l4.4,0.1l6.6,0.3l0.7-0.2l0.8-0.5
		l0.1-0.7l0.3-1l4.7-6.7l1.9-1.4l2.4-0.8l4-0.8l2.5-1l1.3-0.8l1.6-2.5l1.3-5.6l0.8-1.2l1.2-1.1l1.8-1.1l2.1-4.7l1.1-1.1l3.5-2.4
		l1.9-1.6l2.5-3.2l4.1-4.4l2.3-3.5l1-0.4l1.7-0.5l5-0.5l1.5,0.1l1.2,0.3l0.9,0.2l0.9-0.3l1-0.6l1-0.2l1.4-0.1l3.7,0.2l2-2.7l1.8-2.8
		l1.1-1.2l1.1-0.8L288.6,299.8L288.6,299.8z"/>
	<path id="COL1315" class="dep" d="M479.6,379.5l2,0.5l-0.6,1.9l-0.7,1.4l-2.5,6.5l-1.4,2.5l-0.8,2.9l-1.3,1.7l-1.5,0.7l-0.5,1.2
		l-1.6,12.8L470,414l-0.6,1l-0.8,1l-1.2,0.5l-0.9,0.1l-0.8,0.2l-0.6,0.5l-0.6,0.9l-0.7,0.7l-0.5,0.4l-0.6-0.1l-0.7-0.6l-0.6-0.1
		l-0.6,0.4l-0.6,0.6l-0.4,0.7v0.9l-0.5,1.6l-1.8,1.6l-2.2,1.2l-2.8,4.5l-1.3,4.3l-0.1,0.7l0.2,0.5l1,0.5l0.4,0.5l0.4,1.6l0.4,0.9
		l0.3,0.9l0.4,0.8l2,2.1l-0.2,1.3l-0.9,1.8l-0.6,3.4l-1.5,5l-0.3,0.5l-1.5,0.3l-1.1,0.4l-0.6,0.6l-0.4,0.5v1.4l6.4,3.4l2.7,2l0.5,1.6
		l1.4,1l1.5,2.2l1.6,1.3l-1,0.9l-0.5,0.2l-0.5,0.5l-0.3,0.7l-0.3,1.2l-0.5,1.7l-0.9,0.8l-0.6,1.3l-0.9,4.7l-0.5,0.4l-0.6-0.1
		l-0.8-0.6l-1.5-1.1l-0.5-0.5l-0.6-1.1l-0.4-0.6l-0.4-0.3h-0.7l-0.8,0.4l-1.6,1.8l-7.4,8l-1.5,2.5l-0.9,1.5l-2.8,1.6l-3.9,3.5
		l-1.3-0.1l-1.9-2.5l-1.3-1l-1.6-2.4l-0.5-0.6l-1.4-0.6l-1.5,1.3l-0.8,0.4l-1,0.9l-1.1,1.3l-3.8,5.2l-0.5,0.6l0.2,2.4l-0.5,0.6
		l-0.4,0.9l-0.3,1.5v1l0.3,0.9l0.7,1.2l1.6,1.3l0.5,0.9l-1,1.9l-0.4,1.5l-0.4,0.8l-1.1,1l-1.6,1.8l-2.5-1.1l-1,0.1l-0.3,0.6l-1.1,4.4
		l-0.2,3.1l-1.1,2.9l-0.2,1.3l1.3,4l-0.2,1.2h-1l-0.5,0.7v0.8l-1,1.7l-0.2,0.6l-0.5,0.5l-0.9,0.5l-2.8,0.2l-2.7-1.1l-1.5-0.1
		l-0.5-1.2l-0.2-1.9l-0.6-0.4l-0.7-0.2l-1.3-0.1l-1.2,0.4l-0.8-0.1l-0.5-0.5l-0.4-0.8l-1.3-2.3l-2.6-1l-0.1-0.4l0.2-1.1l-0.4-0.7
		l-1-1.1l-1-1.6l-0.6-0.5l-2-0.6l-5.5-0.1l-1.5-2.1v-0.9l2.1-3.9l-0.3-2.2l2.7-2l0.1-0.9l-1-1.9l-0.2-1.4l0.3-1l-0.2-0.8l-1.7-2.8
		l-0.5-1.9l0.3-1.7l-1.1-1.8l-0.3-0.5l-1.1-0.9l-1.8-1.4l-0.3-0.8l-0.3-0.9v-0.7l0.4-1l0.4-0.8l-0.5-0.7v-0.6l-0.7-0.5l-2.8-2.5
		l-0.7-1.4l-0.1-0.7l-0.4-0.1l-0.6,0.2h-0.8l-1-0.4l-1.5-1.5l-1.5,0.4l-3.5-1.7v-3.5l-0.4-0.3l-1,0.1l-0.6,0.3l-1.5,1.3l-3.7,3.8v1.3
		l-0.5,1.4l-1.9,0.6l-4.4,4l-3.1-1.8l-1.1-0.1l-1-0.6l-0.7-0.6l-0.7-1v-1.4l-3.3,0.2l-0.7-0.3l-1.3-0.6l-2.1-1.2l-1.5-0.1l-0.9,0.1
		l-0.4-0.5l-0.1-0.5l0.2-1.7l-0.5-1.4l-2.9-2.8l-1-1.9l-0.1-0.7l0.2-0.8l0.8-1.5l0.6-0.7l0.2-0.9l-0.1-0.6l-0.5-0.7l-0.3-1v-1.2
		l-0.1-1.4l-0.5-0.7l-0.2-0.6l0.1-1.1l-0.2-0.4l-0.7-0.5l-0.4-1.1l-0.5-0.4l-0.5-0.1l-1,0.7l-2,1.7l-1,0.7l-0.6,0.5l-1.7,0.4
		l-3.1-0.6l-1-0.3l-1-0.4l-1.2-0.2l-0.4,0.1l-0.8,0.6l-1.6,0.7l-3.6,0.7l-1.1,0.4l-0.8-0.8l-0.3-0.5l0.9-1.8l0.6-4.2l0.5-1l0.8-1.1
		l0.9-0.9l0.8-0.3l0.3-0.6l-1-2.8l0.1-1.2l0.3-0.3l1.1-0.5l0.4-0.2l0.2-0.6l-0.2-1.4l0.1-2.8l-0.1-1l-0.5-1.1l-0.9-1.1l-0.4-0.7v-1
		l0.2-0.9l0.9-1.6l0.6-2.9l0.8-1.7l1.3-1.5l1.9-1.3l0.4,2.1l0.6,2.1l0.7,1.3l1,3.1l2.6,4l1.4,1.5l0.9,0.8l1.5,0.9l1.2,0.5l0.6,0.2
		l1-0.3l1.7-1.3l0.9-0.5l0.9-0.1l0.8,0.5l0.6,0.9l0.8,2l0.7,1.3l0.5,1.3v1.2l-1.6,3.1l-0.4,1.4l-0.1,1l0.9,2.4l1.1,0.2l0.5-0.1
		l0.8-0.5l1-0.8l0.9-1.5l1.3-0.9l1.4,1.3l2.9,0.8l0.9,1l0.6,2.1h1.2l0.7,0.2l0.7,0.5l1.2,2.2l1.6,2l2.3,1.3l0.8-0.1l0.8-0.3l0.5-0.1
		l1.4-0.5l1.1-0.1l0.7,0.1l0.7,0.3l0.5,0.4l-0.1,1.7l3-1.9l4.4-1.1l2.1-0.3l1.5,0.1l1.4,0.5l1.2,0.7l1.3,1.1l0.5,0.6l0.7-0.4l0.4-1.4
		V464l0.6-3.4l0.7-2V457v-1.3l-0.3-1.2l0.3-1.1l1.3-2.1l0.3-2.4l0.8-1.3l2.9-2.3l0.2-0.8l2.2-3.6l1,1l3.1,1.5l2.7,2.5l0.8,1.3
		l0.3,0.8v1.2l-0.3,1.4l-1,2.8l-1,1.6l-1.5,0.7l-0.3,1.4l-2,1.3l0.3,2.3l2.6,3.4l0.9,0.6l0.8-0.1l0.9-2.4l1.4-1.3l0.7-1.7l0.3-1.5
		l0.2-0.3l0.4-0.1l2.3,0.7l1.7-0.1l3.3-5.2l1.2-3.4l1.2-0.6h0.4l0.8,0.2l1.6,1.1l2.2,1.1l6.2,1h1.2l0.7-0.7l0.9-3.3l5.1-6l0.7-1.2
		l0.9-1.1l1.8-0.7l2.1-0.5l1.2-0.9l1.2-3.3l1.2-0.7l0.8-0.3l1-0.8l0.5-0.8l0.2-0.7l-0.1-1.3l0.2-1.2l-0.8-2.1l1.3-3.8l-0.3-2.9
		l0.5-2.6l-0.3-0.9l-0.5-1.1l-0.6-0.7l-0.7-0.4l-2-2.1l-0.5-1.2l0.6-1.1l1.4-0.4h0.6l1.3,1.2l2.3,1.8l1.1,1.5l0.7,1.4l1.4,3.5
		l1.2,0.3l1.8-0.5l2.4-2.5l1.3-0.6l0.7-0.5l0.6-0.8v-4l0.5-1.1l2.5-4.6l1.1-5.1l0.3-2.6l-0.7-2.3v-1.1l0.1-0.9l0.5-1.4l-1.8-4.8
		l1.7,0.3l3.8,2.1l1.5,0.3l1.2-0.2l1.2-0.7l1.8-1.7l0.8-1l0.7-1l0.7-1.9l1.2-2.4l1.5,0.4l0.5,1.3l0.4,0.3l0.7-0.2l0.6-0.4l0.6-0.6
		l0.5-0.6l0.2-1l0.3-0.6l0.4-0.4l1.4-0.5l5.5,0.1l1.9,0.5l1.3,0.5l1.3,0.7L479.6,379.5L479.6,379.5z"/>
	<path id="COL1316" class="dep" d="M230.6,216.2l-0.1,4.2l1.8,0.7l0.6,0.4l2,0.5l3.6,1.7l0.9,1.3l1.2,1.3l2.5,0.6l0.3,0.6l0.3,0.1
		l1.4,0.1l1.1,0.7l0.5,2.9l1.9,2.9l11.7,5.4l2.9,2.1l-0.6,1.3l0.2,0.5l1.2,1.8l0.2,0.4l-0.5,0.8l-0.3,3.3l-0.7,0.5l-3.4,0.9l-1,0.1
		l-0.7,0.3l-1,0.7l-1.3,1.4l-1.3,1l-0.5,0.6l-0.2,2.7l1.3,4.2l-0.4,1.8v1l0.2,1.4l1.3,4.4v2.9l0.4,3.4l0.4,1.2l0.5,0.9l0.7,0.7
		l2.8,1.3l2.2,1.5l2.5,2.6l7.1-3.5l2.9-0.9l3.7-1.3l1.5-0.1h0.9l1.4,1.2l2.5,1.9l1.9,3.1l1.5,1.5l0.9,0.6l0.8,0.9l0.4,1.1l-0.1,3.8
		l0.3,1.1l0.1,0.4l-0.1,0.5l-1,1.1l-0.8,1.1v0.9l-0.5,1.1l-1.2,0.3l-1.1,0.8l-1.1,1.2l-1.8,2.8l-2,2.7l-3.7-0.2l-1.4,0.1l-1,0.2
		l-1,0.6l-0.9,0.3l-0.9-0.2l-1.2-0.3l-1.5-0.1l-5,0.5l-1.7,0.5l-1,0.4l-2.3,3.5l-4.1,4.4l-2.5,3.2l-1.9,1.6l-3.5,2.4l-1.1,1.1
		l-2.1,4.7l-1.8,1.1l-1.2,1.1l-0.8,1.2l-1.3,5.6l-1.6,2.5l-1.3,0.8l-2.5,1l-4,0.8l-2.4,0.8l-1.9,1.4l-4.7,6.7l-0.3,1l-0.1,0.7
		l-0.8,0.5l-0.7,0.2l-6.6-0.3l-4.4-0.1l-25.3-0.7l-1.8-5.7l-4.2-9.2l-0.6-3v-6.5l2.5-9.1l2.4-3.9l0.9-3.2l0.2-1.8l-0.2-6.3l1.3-2.3
		l2-3.1l3.5-7l3.2-4.6l3.6-4.2l0.2-2.9l-0.1-2.9l-0.9-5.6l-2.2-3.3l-1.1-1l-3.6-1.3l-1-1l-1.2-2.1l-1.6-2.3l-1.1-5.4l-0.5-1.4
		l-1.8-1.8l-0.4-0.3l1.1-1V252l-0.5-0.8l0.6-0.5l4.1-1.1l1.6-0.9l1.2-0.1l0.6-0.5l0.3-0.6l0.7-0.9l2.4-1.8l0.6-0.7l-0.6-2.4l0.7-2
		l1.3-1.5l2.2-2l0.7-0.8l0.4-1l0.7-5.7l0.5-1h0.4l1.9-0.8l1.1-0.4l0.3-0.8v-1.2l0.1-1.2l0.3-0.6l0.7-0.8l0.7-0.5l0.6-0.3l2.7-0.8
		l2.1-0.7l1.9-1.1l1.6-1.3l0.2-1.7l0.5-1l1.5,0.2l0.7,0.7l2.2-0.1l2.4-0.5l1.6-0.6l1,0.5l0.4,0.5v0.9l-1-0.4l-1-0.2l-0.9,0.3
		l-0.8,0.7l0.9,0.5l0.4-0.1l0.6-0.4l0.8,0.8v0.6l2.1-1.4l1.3-0.7l1.5-0.2l1.5,0.2L230.6,216.2L230.6,216.2z"/>
	<path id="COL1317" class="dep" d="M369.9,330.6l1,1.2l1.2,1l1.6,0.8l1.6,1.4l1.7,1.9l0.2,0.4v0.6l0.8,1.3l0.5,0.5l1,0.6l1,0.4
		l1.3,0.3l3.7,0.5l1.2,0.7l0.3,0.7l0.7,0.2l1.3,0.2l2.2-0.1l3.2,0.3l0.2-0.5l0.7-3.1l1-1.6l0.6-0.5l0.5-0.1l0.8,0.1l1,0.4l1.3-0.1
		l2.1,0.3h1.5l0.7,0.1l0.7,0.3l1.6,0.1l1,0.3l0.7-0.5l1.3-0.4l2.4,0.5l-0.2,0.7l-0.1,0.7l0.5,2.2l0.3,0.9l0.6,1l4.8,3.8l0.2,1
		l-0.2,0.9l0.4,1.3l2,3.1l0.7,0.8l0.1,0.6l0.9,0.4l-0.1,3.8l-2.5,3l1.2,1.7l0.7,1l0.4,0.3l0.7,0.3l0.2,0.9l-0.1,1l0.4,1.2l-0.5,0.9
		l-0.8,1.2l-2.5,3.9l0.4,1l0.3,0.2l1.8,0.8l1.5,0.2l1.7,0.4l0.5,0.3l0.7,0.8l0.8,0.5l1.8,1.5l1.6-0.8l0.4-0.1h0.8l0.9-0.1l0.5,0.2
		l0.3,0.7l0.3,1l0.2,0.2l0.5-0.5l0.5-0.9l0.3-0.1l1.5,0.3l1.9-0.4l0.7-0.3l0.9-0.1l1.1,0.2l0.3,0.6l0.3,0.7l0.2,1.6l0.1,1.1l-0.3,2
		l0.3,1.8l1.3-0.1l0.4-0.3l0.6-0.7l0.5-0.9l1.8,4.8l-0.5,1.4l-0.1,0.9v1.1l0.7,2.3l-0.3,2.6l-1.1,5.1l-2.5,4.6l-0.5,1.1v4l-0.6,0.8
		l-0.7,0.5l-1.3,0.6l-2.4,2.5l-1.8,0.5l-1.2-0.3l-1.4-3.5l-0.7-1.4l-1.1-1.5l-2.3-1.8l-1.3-1.2h-0.6l-1.4,0.4l-0.6,1.1l0.5,1.2l2,2.1
		l0.7,0.4l0.6,0.7l0.5,1.1l0.3,0.9l-0.5,2.6l0.3,2.9l-1.3,3.8l0.8,2.1l-0.2,1.2l0.1,1.3l-0.2,0.7l-0.5,0.8l-1,0.8l-0.8,0.3l-1.2,0.7
		l-1.2,3.3l-1.2,0.9l-2.1,0.5l-1.8,0.7l-0.9,1.1l-0.7,1.2l-5.1,6l-0.9,3.3l-0.7,0.7h-1.2l-6.2-1l-2.2-1.1l-1.6-1.1l-0.8-0.2h-0.4
		l-1.2,0.6l-1.2,3.4l-3.3,5.2L391,458l-2.3-0.7l-0.4,0.1l-0.2,0.3l-0.3,1.5l-0.7,1.7l-1.4,1.3l-0.9,2.4l-0.8,0.1l-0.9-0.6l-2.6-3.4
		l-0.3-2.3l2-1.3l0.3-1.4l1.5-0.7l1-1.6l1-2.8l0.3-1.4V448l-0.3-0.8l-0.8-1.3l-2.7-2.5l-3.1-1.5l-1-1l-2.2,3.6l-0.2,0.8l-2.9,2.3
		l-0.8,1.3l-0.3,2.4l-1.3,2.1l-0.3,1.1l0.3,1.2v1.3v1.6l-0.7,2l-0.6,3.4v1.5l-0.4,1.4l-0.7,0.4l-0.5-0.6l-1.3-1.1l-1.2-0.7l-1.4-0.5
		l-1.5-0.1l-2.1,0.3l-4.4,1.1l-3,1.9l0.1-1.7l-0.5-0.4l-0.7-0.3l-0.7-0.1l-1.1,0.1l-1.4,0.5l-0.5,0.1l-0.8,0.3l-0.8,0.1l-2.3-1.3
		l-1.6-2l-1.2-2.2l-0.7-0.5L340,460h-1.2l-0.6-2.1l-0.9-1l-2.9-0.8l-1.4-1.3l-1.3,0.9l-0.9,1.5l-1,0.8l-0.8,0.5l-0.5,0.1l-1.1-0.2
		l-0.9-2.4l0.1-1l0.4-1.4l1.6-3.1v-1.2l-0.5-1.3l-0.7-1.3l-0.8-2l-0.6-0.9l-0.8-0.5l-0.9,0.1l-0.9,0.5l-1.7,1.3l-1,0.3l-0.6-0.2
		l-1.2-0.5l-1.5-0.9l-0.9-0.8l-1.4-1.5l-2.6-4l-1-3.1l-0.7-1.3l-0.6-2.1l-0.4-2.1l2.3-1.6l1.7-1.9l3.1-4.7l0.8,0.3l0.7-0.2l0.5-0.6
		l0.3-0.8l-0.1-0.8l-0.4-0.7l-1.1-1.2l-0.2-0.9l-0.2-6.2l0.2-0.5l0.8-2l0.1-0.5l0.4-1l1.1-0.3l2.7-0.4l2.5-1.2l12.4-9.2l0.9-1.2
		l2.1-4.1l2.8-3l0.4-1l0.7-0.5l5.5-2.7l1.6-1.2l0.9-1.8l-0.4-2.8l-0.5-1l-0.8-1l-0.7-1l-0.3-1.4l-0.7-8.7l0.5-3.2l0.4-2.8l0.8-2.8
		l0.8-1.9l0.1-0.6l-0.2-0.8l-0.6-0.9l-0.1-0.7v-2.6l0.3-1.1l3.8-4.7l0.2-0.6l0.9-0.5l0.3-1v-2.3l0.4-1.2l0.1-0.7l-0.3-0.6l-0.6-0.9
		l0.2-0.6l0.4-0.5l0.2-0.8l0.6-3.9l-0.1-1.4l-0.8-4.1l-0.3-0.6l-0.7-0.6l-0.9-4.1l0.2-0.8l-1.2-3.8l-0.1-1.3l0.1-1.3l0.5-2.1l0.7-1.8
		l-0.1-0.2l1.4-0.6l0.3-0.1l0.5-0.8l0.5-0.7l0.6-0.6l0.7-0.2l0.7-0.8l0.4,3.4l0.1,0.9l0.5,1.4l2.8,4.9l0.1,1.2l0.6,0.7l0.8,0.2
		l0.4,0.2l0.5,0.6l0.8,0.5l0.4,0.6l0.4,1.2v1.2l-0.5,1.2l-1.9,1.6l-1.1,0.8l-1.2,1.2l-0.3,0.7l-0.1,0.6l0.2,1l0.2,1.3l-0.7,1.2
		l-0.1,2L369.9,330.6L369.9,330.6z"/>
	<path id="COL1318" class="dep" d="M417.6,147.1l-1.6,0.3l-2.6,1.1l-1.1,0.3l-1.2,0.2l-1.2-0.1l-1-0.2l-1.2-0.5l-1-0.2l-1.3,0.2
		l-1.2,0.5l-1,0.3l-0.6-0.3l-0.4-1.2l-0.4-1l-0.8-0.9l-1.3-0.4l0.4-0.8l0.4-0.7l0.8-0.4l1.3-2.5l0.9-0.5l0.8-2.4l0.9-1.1l0.6-1.6
		l0.3-0.8l0.8-1.1l-0.7-1.1l-2.6-2.2l-2.7-1.6l-2-0.5l-1.8-1.1l-2-0.6l-0.5-1l0.1-0.7l0.3-0.9l0.1-0.8l-0.3-1.8l-0.3-1.2l-0.8-1.1
		l-0.9-0.6l-1.2,0.1l-2.4-0.5l-1.8-0.1l-1.5-0.3l-4.4-0.2l-10.3,1.4l-1.4-5l-0.4-2.8l-0.3-0.9l-0.8-1.3l-0.1-0.5v-0.7l0.4-1.7l0.4-1
		l0.2-3.6l0.1-0.8v-0.8l-0.2-1l0.4-0.7l1-0.3l0.3-0.3l0.9-1.2l0.8-0.5l0.3-0.6l1.3-3.9l-0.2-1.9h11l7.4-1.2l0.6-0.4l0.5-0.6l2-1.5
		l1.7-1l0.9-0.9l0.8-1.6l0.3-0.2l0.8-0.3l0.6-0.5l0.9-1.4l0.8-0.6l2.2-1l3.8-3.7l8.2-4.3l11.7-9.7l1.2-0.7l2.5-0.9l4.1-0.8l1-0.5
		l2.1-1.5l1.3,0.4l1.5-0.7l1.4-1.1l1.6-0.5l4-0.1l1.2-0.4l1.1-0.6l1.7-1.4l2.2-0.6l2.9-2.1l3.6-1.4l0.8-1.1l1.2-1.3l0.3-0.7l0.1-0.6
		l0.9-2.4l2.4-3.8l0.7-2.3l1.5-2l0.4-0.9l0.1-1.3l-0.2-3.9l-0.3-1.4L469,25l-0.6-0.6l-0.6-0.3h-0.3l0.2-0.9l0.6-0.6l1.5-0.9l2.1,0.8
		l6.9-1.3l2.4,0.6l-0.3,1.3l-2.8,2.9l1,0.5l1.1,1.8l1.1,0.5l2-0.9l0.4-0.2l0.2-0.9l0.4-0.8l0.6-0.6l0.6-0.4h0.9l0.9,0.1L488,25
		l0.3-0.7l-0.3-0.7l-0.4-0.6l-0.3-0.6l0.5-0.7l-0.7-0.5l-0.7-1l-0.9-0.3l-0.9-0.1l-0.8,0.1l-0.7,0.4l-0.4,0.5h-0.4l-0.5-0.9l3.1-2.2
		l2.5-2.1l0.4-1.2l0.3-0.2l1.2,0.1l0.3-0.1l1-0.8l0.6-0.1l0.8,0.4l-1.2,0.6l-0.9,0.8l-0.2,1l0.9,1l0.8,0.3l1-0.3v-0.9l0.2-0.1h1.2
		l1.3-0.7l0.8-0.6l0.4-0.8l0.3-1.2l-0.8-0.4l0.3-0.6l0.4-0.4l0.6-0.3l1.3-0.2l-0.4,1.2l0.4,0.6l0.6,0.5l0.3,1h0.4l0.5-0.7l0.1-0.5
		l-0.8-0.4l0.4-0.3l1.6-0.9l0.9-0.3l0.9-0.4l0.7-0.8l-0.9,0.1l-1.7,0.9l-0.7-0.3l0.1-0.5l0.6-0.6l0.7-0.5h-0.8l-0.7,0.2l-0.5,0.3
		l-0.4,0.4l0.3-1.5l-0.6,0.2l-1.8,1.6l-0.6,0.7l-0.4-0.5l0.7-1.2l1-1.1l1.2-0.7l1.4-0.3l1.4,0.2l2,1l1.5,0.3h4.8l1.4,0.2l1.4,0.7
		l2.1,1.4l0.9,0.9l0.4,0.3l0.9,0.2h2.4l0.6,0.2l1.4,1.1l1.3,0.5l3.1,0.6l2.3,1.1l1.3,1l1.3,2.1l0.2,1.3l4.1,7l0.5,1.8l2.5,3.8
		l0.4,1.4l-0.4,1.5l-0.8,1.5l-0.8,1l-1.8,1.4l-4.7,2.6l-1.3,1.5l-1,0.5l-1.1,0.4l-0.9,0.2l-0.3,0.6l-1.4,3.7l-0.3,0.5h-2l-1.2,0.7
		l-2.3,1.9l-2.7,1.2l-9.6,2.5l-25.4,6.7l-1.3,0.8l-1.2,1.7l-12.7,23.8l-4,7.6l-0.7,0.8l-1.2,0.4l-2.5-0.7l-1.3-0.1l-1.3,0.2l-3.8,1.4
		l-2.9,0.2l-1.4,0.2l-1.2,0.8l-0.3,0.6l-0.1,1.3l-0.2,0.7l-0.5,0.7l-1.2,1.4l-0.6,0.7l-2.3,5.8l-1.2,1.7l-1.3,1.2l-2.9,2l-1.8,2.1
		l-1.5,3l-3.3,9.3l-1.8,3l-4.1,4.8l-1.3,3.6l-0.9,1.3l-1.1,1.1l-1.1,1.4l-0.4,1.4L417.6,147.1L417.6,147.1z"/>
	<path id="COL1342" class="dep" d="M-92.1,44.6l-0.9,0.1l-0.4-0.6l0.8-0.8l-0.5-1.4l0.2-1.3l0.7-1.2l1-0.8l0.3,0.8L-92.1,44.6z
		M-69.3-11.9l-1.2,0.3l-0.2-1.6l0.5-1.4l0.9-0.8l0.9,0.5l0.4,1.2l-0.4,1.1C-68.4-12.6-69.3-11.9-69.3-11.9z"/>
	<path id="COL1397" class="dep" d="M300.2,463.5l0.3,0.5l0.8,0.8v2.3l0.5,0.9l0.5,0.2l-0.8,1.6l-0.5,0.7l-0.1,0.6l0.6,0.2l0.4,0.9
		l-0.4,1.8l-1.2,2.9l1.1,0.3l0.3,0.5l-0.5,0.4l-1.1,0.2l-0.9,0.3l-0.2,0.6l0.5,0.7l0.8,0.3l-0.4,1l-0.1,1.2l0.2,1.3l0.3,1l-0.9,0.2
		l-0.3,0.4l0.4,1.5l-0.3,0.4l-0.9,0.8l-0.5,1.8l-1.3,2.2l-0.3,1.4l-0.2,0.3l-1.7,1.6l0.1,0.7l-0.7,0.2l-2.6-1.1l-2.4-0.7l-0.6,0.1
		l-1.4,0.2l-1.3,0.6l-2.5-0.5h-1.4l-2.5,0.8l-1.4,0.2h-0.9l-1.2,0.5l-0.6,0.5l-1.6,0.7l-0.4,1.2l-2.8,4.2l-0.6,1.5l-0.4,0.2l-0.6,0.2
		l-1-0.2l-1.5-0.7l-1.9,0.9l-0.6,0.7l-1,0.6l-1.2,0.4h-1l-0.8-0.3l-0.8,0.1l-1,0.5l-1.4,1.3l-1.6,1.8l-0.6,1.7l1.2,0.6l0.9,1.6
		l-2.1,4.1l-0.3,1l-0.1,0.9l1.1,2l0.6,1l-0.1,1.1l-0.5,1l-1.2,1.7l-1.5,2.6l-1.7-1.7l-2-1.6l-1.2-1.2l-0.9-1.1l-1.3-2l-0.6-0.5
		l-0.7-0.2l-1.4-0.1l-1.8-0.5h-0.8l-1.5,0.1l-1.7-0.2l-0.3-0.5l-0.1-0.7l-0.7-1.1l-0.8-0.4l-0.2,0.3L233,519l-0.8,0.4l-0.9,0.1
		l-0.7-0.1l-0.8-0.5l-0.3-0.7l-2.3-5.6l-0.4,0.1l-1.9,3l-0.2,0.5l-0.1,2.3l-0.2,0.7l-0.4,0.6l-1,1l-0.5,0.3l-1.5-0.3l-1.2-0.6
		l-0.2-0.5l-1.6-1.2l-0.7-1l-0.4-1l-0.2-0.9l-0.1-1.1l-0.5-1l-0.9-0.8l1.5-3.8l0.9-1.4l0.3-0.2l0.5-0.1l1.2,0.1l0.4,0.1l1.2,0.8
		l0.5-2.6l1.5-2.9l0.3-1.1l-0.1-1.3l-0.1-0.4l-0.8-0.6l-0.2-1.3l0.3-0.7l1.3-1.1l0.8,0.1l1.2,0.5l1.1-0.3l0.9,1l0.9,0.4l2.2,0.4
		l1.6-0.6l1.3-1.9l0.3-0.7l-0.7-0.8l-0.4-0.6l-0.2-0.8v-0.5l-0.4-0.5l-1.9-2.1l-0.8-0.6l-0.6-0.3l-0.7,0.1l-1,0.7h-0.8l-2.6,1.2
		l-0.5,0.1l-2.5,0.3l-1.1-0.9l-0.1-0.9v-0.8v-6.1l3.5-1.5l4.4-3.1l1-0.1l1.8,1.3l0.7,0.7l0.6,0.2l1.5-0.1l1.4,0.2l1.6-0.1l1.7,0.5
		l0.3-1.6l0.1-1.3l-0.1-1.4l-1.1-3.7v-1l0.4-2.1l-1-0.3l-0.4-0.9v-2.1V466h0.8l2.2,0.8l0.8,0.2l0.8,0.6l0.3,1l0.6,0.6l2.6,1l0.4,0.2
		h1.1l3-1.6l0.7,0.3l0.6,0.5l1.5,0.5l0.3,0.4l0.2,0.7l-0.1,1.3l-0.1,0.7l0.1,0.6l0.7,0.8l0.5,0.3l0.9,0.4l0.5,0.8l1.6,4.6l0.1,1.2
		l-0.3,2.5l1.8-0.7l1.1,2.7l0.7-0.2l0.8-1.3l0.8-1l0.6-1.3l1.1-0.9l1.4-0.9l1-0.5l0.8-0.3l1.7-0.1l0.6-0.4V479l2.3-2.6l0.5-1
		l-0.1-2.5l0.2-1.8l2.5-0.2l1.3-0.5l1.3-0.7l0.7-0.8l0.9-1.4l4.3-1.3l4.1-0.8l1.3,0.4l1.2,1.1l2.8,1.9l0.7,0.3l2.2-0.7l0.9-1.6
		l0.3-1.4l0.5-1.2l0.1-0.5l0.4-0.4l0.9-0.1l0.6-0.2l0.4,0.2l0.8,0.7L300.2,463.5L300.2,463.5z"/>
	<path id="COL1398" class="dep" d="M408.4,533.6l-0.7,1.2l-2.3,16l-2.2,14.6L403,567l-0.3,0.6l-0.5,0.3l-1-0.5l-1.8-1.2l-0.8-0.4
		l-0.3-0.3l-0.4-0.8l-0.8-0.6l-1.5-0.6l-8.2-2.1l-4.3,0.5l-1.7,1.3l-1.1,0.5l-1.1,0.2l-0.9-0.2l-0.8-0.4l-1-0.4l-0.8-0.4l-0.6-0.5
		l-0.3-0.5l-0.1-0.8l-1.4-3.2l-0.4-1.9v-0.9l-0.3-0.6l-0.9-1.3l-0.8-0.9l-0.8-1.4l-0.6-0.3l-0.6-0.1h-1l-0.7-0.6l-0.7-0.9l-0.7-0.4
		l-0.7-0.2l-0.9,0.2l-0.6,0.6l-1,1.6l-0.4,0.8l-1.5,0.9l-1.6,0.7l-0.5,0.4l-0.7,0.9l-0.5,0.7l-0.1,1.4l0.9,0.9l0.8,3.6l-0.2,1.3
		l0.2,1.4l1.1,1l0.5,1.1v1l0.1,0.8l0.7,2.2l-1.9,0.1l-0.8-0.2h-1.5l-0.7,0.5l-0.6,0.6l-4.5,2l-1.2,0.2l-1.5,0.8l-0.7,1.3l-0.6,0.8
		l-1.1,0.3l-1,0.1l-1,0.2l-1.1,0.6l-1.1,1.2l-2.4,1.6l-3.3,3.2l-2.1-0.1l1.3-3.4l0.2-2.1l0.2-0.6l1.2-0.8l0.5-0.6l0.6-1l0.1-0.6
		l-0.6-1.4l-0.8-1.3l-1.6-1.9l-1-2.6l0.1-1l0.2-0.9l2.8-4.4l0.3-2.1l-0.3-0.5l-0.6-1.6v-1.8l0.2-0.9l0.5-0.6l1.2-1l0.8-1.4l0.8-1.1
		l2-3.3l0.4-0.4l1-0.5l1.3-4.4l-1.3,0.1l-1-0.8l-0.2-0.5l0.1-0.5l0.3-0.4l0.6-0.5l0.2-0.7l-0.2-0.7l-0.1-5.4l0.1-1.3l0.4-1.7
		l-1.9-0.8l-1.2-0.1h-0.7l-0.9-0.4l-0.3,0.1l0.2,0.6v0.8l-0.6,1l-0.9,0.4l-0.4,0.5l-1.4,3.3l-0.2,0.3l-1.1,0.3l-0.4,1.1L333,536
		l0.1,0.5l-0.1,0.6h0.7l0.2,0.5l-0.3,0.5l-0.4,0.4l-1.8,0.8l-1.8,1.4l0.9,1.5l0.3,0.4l0.8,0.6l0.4,0.7l0.8,2.8l-0.1,2.7l-2.5,6.8
		l1.4-0.1l0.3,0.5l-0.1,1.1l-0.7,2.5l-0.6,3.5v1.1l-0.2,1.1l-0.4,1l-0.7,1.4l-1.3,1.6v2.9l-0.8,3l-0.3,0.5l-0.4,0.2l-1.7-0.5
		l-0.7-0.3l-1.3-1.1l-0.6,0.5l-0.4,0.5l-2,5.3l0.1,1.4v0.7l0.1,1l0.4,1.3l0.1,1.5l-0.2,1.1l-0.4,1.4l-1.7,3.9l-1.7,3.1l-4.9,6.8
		l-2.4-1.8l-2.3-2.8l0.9-4.9l1.8-3.3l0.6-1.7l0.3-1.2l-0.1-0.9l-1.3-2.3l0.8-2.6l-0.5-1.1l0.2-0.9l0.2-0.8l0.5-0.8l1.2-1.3l0.9-1
		l0.1-1.6l-0.4-1.6l-0.1-0.8l-0.4-1L311,570l-1.5-3.2l-1.2-0.9l-0.9-0.9l-0.7-0.4l-1.1,0.2l-1.8,0.7l-0.5,0.3l-0.4,0.4l-0.4,1
		l-1.1,1.5l-0.7,0.3l-0.8-0.3l-0.7,0.2l-0.7-0.2l-0.8-0.3l-2.2-2l-1.1,0.4l-0.4-1l-1.9-1L292,564l-1.6,0.3l-1.5,0.1l-1.9,0.5
		l-1.5,0.1l-0.7-0.7l0.3-2l4.8-10.6l0.7-2.6v-2.7l-0.9-2.9l1-0.3l-0.2-0.4l-0.8-0.7l0.5-0.8l1.1-1.4l0.3-0.8l-0.2-0.5l-0.9-0.3
		l-0.3-0.4l-0.1-0.4l0.1-0.9l-1-1.4l-0.1-0.8l0.4-0.8l0.8-0.5l0.8-0.2l0.7-0.4l0.5-1.5l0.9-0.9l0.3-0.9l-0.6-3.3v-1l0.2-0.8l0.4-0.7
		l0.8-0.2l-0.3-0.6l0.3-1v-0.7l-0.8-2.3v-0.5l0.4-0.4l1.5-0.7l0.3-0.3l-0.1-0.5l-1-1.5l-0.3-0.8l0.1-1.4l0.9-4.1l-0.5-10.9l-0.4-1.5
		l-0.1-0.7l1.7-1.6l0.2-0.3l0.3-1.4l1.3-2.2l0.5-1.8l0.9-0.8l0.3-0.4l-0.4-1.5l0.3-0.4l0.9-0.2l-0.3-1l-0.2-1.3l0.1-1.2l0.4-1
		l-0.8-0.3l-0.5-0.7l0.2-0.6l0.9-0.3l1.1-0.2l0.5-0.4l-0.3-0.5l-1.1-0.3l1.2-2.9l0.4-1.8l-0.4-0.9l-0.6-0.2l0.1-0.6l0.5-0.7l0.8-1.6
		l-0.5-0.2l-0.5-0.9v-2.3l1.1-0.4l3.6-0.7l1.6-0.7l0.8-0.6l0.4-0.1l1.2,0.2l1,0.4l1,0.3l3.1,0.6l1.7-0.4l0.6-0.5l1-0.7l2-1.7l1-0.7
		l0.5,0.1l0.5,0.4l0.4,1.1l0.7,0.5l0.2,0.4l-0.1,1.1l0.2,0.6l0.5,0.7l0.1,1.4v1.2l0.3,1l0.5,0.7l0.1,0.6l-0.2,0.9l-0.6,0.7l-0.8,1.5
		l-0.2,0.8l0.1,0.7l1,1.9l2.9,2.8l0.5,1.4l-0.2,1.7l0.1,0.5l0.4,0.5l0.9-0.1l1.5,0.1l2.1,1.2l1.3,0.6l0.7,0.3l3.3-0.2v1.4l0.7,1
		l0.7,0.6l1,0.6l1.1,0.1l3.1,1.8l4.4-4l1.9-0.6l0.5-1.4v-1.3l3.7-3.8l1.5-1.3l0.6-0.3l1-0.1l0.4,0.3v3.5l3.5,1.7l1.5-0.4l1.5,1.5
		l1,0.4h0.8l0.6-0.2l0.4,0.1l0.1,0.7l0.7,1.4l2.8,2.5l0.7,0.5v0.6l0.5,0.7l-0.4,0.8l-0.4,1v0.7l0.3,0.9l0.3,0.8l1.8,1.4l1.1,0.9
		l0.3,0.5l1.1,1.8l-0.3,1.7l0.5,1.9l1.7,2.8l0.2,0.8l-0.3,1l0.2,1.4l1,1.9l-0.1,0.9l-2.7,2l0.3,2.2l-2.1,3.9v0.9l1.5,2.1l5.5,0.1
		l2,0.6l0.6,0.5l1,1.6l1,1.1l0.4,0.7l-0.2,1.1l0.1,0.4l2.6,1l1.3,2.3l0.4,0.8l0.5,0.5l0.8,0.1l1.2-0.4l1.3,0.1l0.7,0.2l0.6,0.4
		l0.2,1.9l0.5,1.2l1.5,0.1l2.7,1.1l2.8-0.2l0.9-0.5l0.5-0.5l0.2-0.6l1-1.7v-0.8l0.5-0.7L408.4,533.6L408.4,533.6z"/>
	<path id="COL1399" class="dep" d="M334.3,582.7l-3.6-0.9l-1,0.7l-1.3,2.7l-0.9,1.5l-1.7,2l-1.3,1.3l-0.6,0.8l0.1,1.4l-0.6,1.5
		l-1.3,2.2l-4.4,5.4l-0.9,2l-0.4,0.5l-0.4,0.9l-0.6,0.3l-1.9-0.1l-2-1.8l4.9-6.8l1.7-3.1l1.7-3.9l0.4-1.4l0.2-1.1l-0.1-1.5l-0.4-1.3
		l-0.1-1v-0.7l-0.1-1.4l2-5.3l0.4-0.5l0.6-0.5l1.3,1.1l0.7,0.3l1.7,0.5l0.4-0.2l0.3-0.5l0.8-3v-2.9l1.3-1.6l0.7-1.4l0.4-1l0.2-1.1
		v-1.1l0.6-3.5l0.7-2.5l0.1-1.1l-0.3-0.5l-1.4,0.1l2.5-6.8l0.1-2.7l-0.8-2.8l-0.4-0.7l-0.8-0.6l-0.3-0.4l-0.9-1.5l1.8-1.4l1.8-0.8
		l0.4-0.4l0.3-0.5l-0.2-0.5H333l0.1-0.6L333,536l1.2-0.8l0.4-1.1l1.1-0.3l0.2-0.3l1.4-3.3l0.4-0.5l0.9-0.4l0.6-1v-0.8l-0.2-0.6
		l0.3-0.1l0.9,0.4h0.7l1.2,0.1l1.9,0.8l-0.4,1.7l-0.1,1.3l0.1,5.4l0.2,0.7l-0.2,0.7l-0.6,0.5l-0.3,0.4l-0.1,0.5l0.2,0.5l1,0.8
		l1.3-0.1l-1.3,4.4l-1,0.5l-0.4,0.4l-2,3.3l-0.8,1.1l-0.8,1.4l-1.2,1l-0.5,0.6l-0.2,0.9v1.8l0.6,1.6l0.3,0.5l-0.3,2.1l-2.8,4.4
		l-0.2,0.9l-0.1,1l1,2.6l1.6,1.9l0.8,1.3l0.6,1.4l-0.1,0.6l-0.6,1l-0.5,0.6l-1.2,0.8l-0.2,0.6l-0.2,2.1L334.3,582.7L334.3,582.7z"/>
	<path id="COL1400" class="dep" d="M251.3,534.8v0.5l-1.8,3.3l-0.4,1.6l-0.8,1.2l-3.2,1.7l-1.5,1.6l-0.5,0.7l-1.2,3.2l-2,2.5
		l-1.5,3.2l-0.5,4.6l-0.8,4.3l-0.8,1.2l-1.6,2.4l-1.5,1.1l-0.4,1.2l-1.4,1.9l-0.5,1l-1.1,1.9l-3.5,4l-1.3-0.6l-1.2-0.8l-2.1-0.7
		l-0.3-0.4l-0.2-0.5l-0.1-1l0.1-1.2l0.4-0.8l0.2-1.1l-0.1-1.2l0.2-0.6l0.6-1.5l0.8-1.3l1.1-2.5l0.1-0.4l-0.1-0.9v-2.7l0.2-0.2
		l-1.5-3.2l-3-1.2h-1.2l-1.2-0.5l0.4-1.4l0.4-0.5l0.7-0.5l-0.5-1.2l-0.1-5.1l0.5-1.7v-0.6l0.6-0.9l-0.1-0.9l2.5-3.5l4.6,0.7l0.7-0.3
		h2l0.5-0.6l-0.1-1.1l-0.3-1.9l0.8-0.5h0.5l1.8,1l0.6,0.1h6l2.5,0.3l2.4,1.8l0.8,0.1l0.9-0.5l1.1-0.1l0.9-0.4l0.4-0.3l0.9-0.3
		l0.7-0.6L251.3,534.8L251.3,534.8z"/>
	<path id="COL1401" class="dep" d="M219.9,482.6v6.1v0.8l0.1,0.9l1.1,0.9l2.5-0.3l0.5-0.1l2.6-1.2h0.8l1-0.7l0.7-0.1l0.6,0.3l0.8,0.6
		l1.9,2.1l0.4,0.5v0.5l0.2,0.8l0.4,0.6l0.7,0.8l-0.3,0.7l-1.3,1.9l-1.6,0.6l-2.2-0.4l-0.9-0.4l-0.9-1l-1.1,0.3l-1.2-0.5l-0.8-0.1
		l-1.3,1.1l-0.3,0.7l0.2,1.3l0.8,0.6l0.1,0.4l0.1,1.3l-0.3,1.1l-1.5,2.9l-0.5,2.6l-1.2-0.8l-0.4-0.1l-1.2-0.1l-0.5,0.1l-0.3,0.2
		l-0.9,1.4l-1.5,3.8l0.9,0.8l0.5,1l0.1,1.1l0.2,0.9l0.4,1l0.7,1l1.6,1.2l0.2,0.5l1.2,0.6l1.5,0.3l0.5-0.3l1-1l0.4-0.6l0.2-0.7
		l0.1-2.3l0.2-0.5l1.9-3l0.4-0.1l2.3,5.6l0.3,0.7l0.8,0.5l0.7,0.1l0.9-0.1l0.8-0.4l1.4-1.2l0.2-0.3l0.8,0.4l0.7,1.1l0.1,0.7l0.3,0.5
		l1.7,0.2l1.5-0.1h0.8l1.8,0.5l1.4,0.1l0.7,0.2l0.6,0.5l1.3,2l0.9,1.1l1.2,1.2l2,1.6l1.7,1.7l-0.8,5.6l-1.5,0.9l-0.7,0.6l-0.9,0.3
		l-0.4,0.3l-0.9,0.4l-1.1,0.1l-0.9,0.5l-0.8-0.1l-2.4-1.8l-2.5-0.3h-6l-0.6-0.1l-1.8-1h-0.5l-0.8,0.5l-4.6-0.7l-2.6-0.8l-0.7-0.1
		l-1.5,0.3l0.6-1.4v-0.6l-0.2-0.8l-0.6-0.3l-0.9,0.2l-1,0.9h-0.6l-1-0.1l-0.7-0.5l-0.4-0.6l0.1-1l-1.1-1.9l0.7-0.5l0.4-0.9l0.2-1.5
		l-0.3-0.5l-0.9,0.5h-1.7l-0.6-0.2l-0.5-0.3l-0.4-0.7v-1.9l-2.4-2.1l-0.8-1.3l-0.4-0.8l-1.9-3.7l-0.5-0.5l0.1-3.3l-1-1.7l0.1-2
		l-0.7-2.4l-5.5-9.1l-0.2-2.9l1.2-3.8l1.3-1.1l3.5-2.1l0.8-3.7l0.1-1.8l2.5-2.7l2,1l0.8,1.6l1.3,1.2l1.5,0.9l2.3,0.9l3.1,0.5
		L219.9,482.6L219.9,482.6z"/>
	<path id="COL1402" class="dep" d="M294.4,496l0.4,1.5l0.5,10.9l-0.9,4.1l-0.1,1.4l0.3,0.8l1,1.5l0.1,0.5l-0.3,0.3l-1.5,0.7l-0.4,0.4
		v0.5l0.8,2.3v0.7l-0.3,1l0.3,0.6l-0.8,0.2l-0.4,0.7l-0.2,0.8v1l0.6,3.3l-0.3,0.9l-0.9,0.9l-0.5,1.5l-0.7,0.4l-0.8,0.2l-0.8,0.5
		l-0.4,0.8l0.1,0.8l1,1.4l-0.1,0.9l0.1,0.4l0.3,0.4l0.9,0.3l0.2,0.5l-0.3,0.8l-1.1,1.4l-0.5,0.8l0.8,0.7l0.2,0.4l-1,0.3l0.9,2.9v2.7
		l-0.7,2.6l-4.8,10.6l-0.3,2l0.7,0.7l1.5-0.1l1.9-0.5l1.5-0.1l1.6-0.3l0.1,0.8l1.9,1l0.4,1l1.1-0.4l2.2,2l0.8,0.3l0.7,0.2l0.7-0.2
		l0.8,0.3l0.7-0.3l1.1-1.5l0.4-1l0.4-0.4l0.5-0.3l1.8-0.7l1.1-0.2l0.7,0.4l0.9,0.9l1.2,0.9l1.5,3.2l0.5,0.7l0.4,1l0.1,0.8l0.4,1.6
		l-0.1,1.6l-0.9,1l-1.2,1.3l-0.5,0.8l-0.2,0.8l-0.2,0.9l0.5,1.1l-0.8,2.6l1.3,2.3l0.1,0.9l-0.3,1.2l-0.6,1.7l-1.8,3.3l-0.9,4.9
		l-0.3,1l-4.2,3.8l-2.7,1.8l-0.8,0.9l-0.6,0.8l-0.7,1.5l-0.5,0.6l-0.9,0.3l-0.3,0.3l-0.4,0.7l-0.3,0.6l0.1,0.8l0.2,0.5v0.7l-0.3,0.5
		l-0.8,0.9l-0.6,0.4l-0.6,0.5l-0.4,0.8l-0.3,1.5l0.1,1l0.3,0.9l0.1,0.7l-0.4,0.8l-1.4,1.2l-1.3,1.7l-2.6,3.7l-3.6,3.6l-3.8,0.7
		l-3.2-0.2l-3.1-0.8l-0.5-0.5l-0.3-0.6l0.4-1.6l0.2-0.8l0.1-1.2l0.1-0.4l0.6-0.8l0.2-0.6v-0.7l0.5-1.5l0.3-0.7h-6.6l-1.1,0.3
		l-0.4,0.5l-0.8,0.4l-0.6,0.7l-0.1,1.1l-1.3-0.5l-0.4-0.8l-0.6-0.1l-0.8,0.2l-0.9,0.9l-0.5,0.7l-0.8,0.7l-1-0.8l-0.9-0.5l-1.4-0.9
		l-0.6-0.4l-0.7-0.1l-2,0.3l-0.7,0.5l-0.9,1.2l-0.5,0.3l-1.3,0.4l-0.6,0.2l-0.7,0.6l-0.8,0.2h-0.6l-1.3-0.3l-0.8,0.1l-1,0.9l-1.3,2.1
		l-2,2.6l-1.9,3l-1.5,3.1l-0.2,2.6l-1.7,1.7l-0.5,2.2l-1.2,1.5l-6.6,5.4L225,654l-1.5,3l-0.6,0.8l-1,0.2l-1.8-0.1l-5.4-1.9l-1.3-0.7
		L212,654l-1-0.1h-0.8l-2,1.4l0.1-4.5l-1-2.7l-1.4-1.2l-0.9-1.3l-1-0.4l-1.3-1.1l0.1-1.5l0.2-0.6l0.7-0.6l0.4-1.9l-0.2-1.2l0.2-1.5
		l1.1-0.6l0.7-1l0.1-3.7l0.2-0.8l0.4-0.5l0.5-0.4l0.3-0.4l-0.2-0.7l-0.5-0.6l-0.8-1.7l0.9-1.8l0.1-1.7l0.1-2.2l0.4-1.3l0.7-1.7l0.3-1
		l0.4-1l0.8-1l0.4-1l0.5-0.8l0.1-0.9l-0.1-1.3l0.6-3.7l0.6-1.3l0.5-0.8l0.7-2.4l0.3-0.2l1.2-1.5l0.2-0.4l0.8-1.7l4.5-6.8l1.5-3.7l1-2
		l0.7-1l0.9-2.6l0.5-0.8l0.8-0.5l2.1-1v-0.7l-1.1-1.7l3.5-4l1.1-1.9l0.5-1l1.4-1.9l0.4-1.2l1.5-1.1l1.6-2.4l0.8-1.2l0.8-4.3l0.5-4.6
		l1.5-3.2l2-2.5l1.2-3.2l0.5-0.7l1.5-1.6l3.2-1.7l0.8-1.2l0.4-1.6l1.8-3.3v-0.5l0.8-5.6l1.5-2.6l1.2-1.7l0.5-1l0.1-1.1l-0.6-1l-1.1-2
		l0.1-0.9l0.3-1l2.1-4.1l-0.9-1.6l-1.2-0.6l0.6-1.7l1.6-1.8l1.4-1.3l1-0.5l0.8-0.1l0.8,0.3h1l1.2-0.4l1-0.6l0.6-0.7l1.9-0.9l1.5,0.7
		l1,0.2l0.6-0.2l0.4-0.2l0.6-1.5l2.8-4.2l0.4-1.2l1.6-0.7l0.6-0.5l1.2-0.5h0.9l1.4-0.2l2.5-0.8h1.4l2.5,0.5l1.3-0.6l1.4-0.2l0.6-0.1
		l2.4,0.7l2.6,1.1L294.4,496L294.4,496z"/>
	<path id="COL1403" class="dep" d="M366.6,743.1l0.5,1.8l0.1,0.9l6.8,10l1.1,1.1l3.4,2.6l1,1.1l1,1.9l1,1.2l0.6,1.1l0.8,2.2l0.1,0.9
		l0.1,1.5l0.2,1.6l3.4,3.9l6.8,6l1.8,2.3l2.5,0.8l0.8,0.5l0.4,0.8l0.4,1l0.7,1l1.3,0.9l1.4,0.9l3.6,1.1h1.3l1-0.1l1-0.4l1.5-1l1-1.6
		l1.5-1.2l1.4-1.5l1-0.9l2.1-0.9l0.9-0.6l0.4-0.8l0.3-0.9v-0.8l-0.3-1.3l0.2-0.7l0.5-1.2l0.2-1.1l0.2-0.7l0.9-1.1l0.5-0.2l1.2-0.3
		l0.3-0.3l0.2-0.6l0.5-0.2l0.8,0.3l1.1,0.7l0.9,1.2l1,0.8l1.5-2.3v-0.6l2.4-0.5l2.2,0.9l1,0.6l1.9,1.7l5.5,3.6l1.7,0.5l2.2,0.3
		l0.9,0.4l3.1,2.9l0.7,1.1l0.3,1.2l0.1,2.1l0.2,1.1l0.4,0.9l0.7,0.5l1.1,0.1l0.9,0.3l0.5,1.3l0.2,2.1l0.3,0.4l0.7,0.3l0.7-0.2
		l0.5-0.5h0.5l0.5,1.4l-0.1,1l-0.3,1.2l-0.1,1.1l0.7,0.7l1.9,0.6l0.6,0.6l1.2,2.7l0.5,0.6l4.6,0.3l1.2,0.3l3.1,1.1l0.5,0.4l0.4,0.6
		l0.4,1.4l0.6,0.4l2.8,0.3l1.1,0.6l0.8,1.5l0.4,2.7l0.5,1.1l1,0.8l0.5-0.2l0.3-0.6l0.5-0.2l1.1,0.7l0.8,1l0.4,1l-0.1,1.1l-0.6,0.9
		v1.6l2.2,1.7l2.6,1.6l1.5,1.3l-0.1,1l-0.3,1.2l-0.2,1.1l0.3,0.9h1l2.1-1.4l1,0.2l0.7,1.2l0.5,1.2l0.8,0.9l1.5,0.5l0.8,0.6l1.4,2.4
		l0.8,0.9l6.8,3.2l3.4,2.2h0.8l0.7-0.4l1.1-0.4l0.6,0.1l1.2,0.4l0.6,0.1l0.7-0.1l2.1-0.6l0.8,0.2l1.5,1l2.3,0.8l2.1,1.9l-4.5,4.5
		l-3.5,1.9l-12.4,5.5l-4.3,2.9l-2.5,2.9l-0.8,2.9l-1,2.1l-1.4,1.4l-2.1,0.9l-2.6,0.5l-9.2-0.1l-2.1,0.3l-1.6,0.8l-2.6,2.5l-3.6,1.9
		l-1,1.1l-2.1,3.5l-1.2,1.6l-1.5,1.5l-1.2,1.8l-0.4,2.1v2.4l0.1,1.9l-0.3,1.7l-0.8,0.8l-1.8,1.5l-3,0.5l-2.3-1.5l-2.1-2.1l-2.1-1.3
		l-1.7,0.7l-2.1,1.9l-3.2,3.6l-0.9,1.5l-0.7,0.9l-1,0.1l-1.7-0.8l-1.7-1.1l-7.1-5.8l-2-0.8l-1.9,0.4l-2.5,1.6l-4.6,0.9l-7.6-5.1
		l-4.1,2.9l-1.5,1.6l-1.6,0.5h-1.8l-2.3,0.5l-2.7-0.2l-2.6-2l-2.5-2.5l-2.2-1.7l-1.2-0.4l-0.6,0.2l-0.6,0.5l-1.1,0.7l-1.5,0.2
		l-3.1-0.1l-3,0.2l-5-0.8l-0.9-0.5l-0.5-0.9l-0.8-2l-0.6-0.5l-0.7-0.1l-1.6,0.1l-0.5-0.1l-0.5-0.4l-0.1-0.5l0.3-1.3l-0.1-0.4
		l-0.4-0.4l-0.8-0.1l-0.4-0.2l-1.9-1.2l-1.2-0.5h-1l-1.9,1l-0.9,0.4H359l-5.1-1l-5.3-1.5l-3.2-1.4l-1.4-1l-2.2-2.6l-3.7-2.7l-1.2-0.6
		l-1.2,0.3l-1.1,0.5h-1.2l-0.4-0.5l-0.3-1.3l-0.3-0.5l-0.6-0.3l-1.5,0.1l-0.7,0.1l-0.5,0.2l-0.5,0.1l-0.8-0.4l-0.5-0.6l-0.3-0.6
		l-0.6-2l-0.2-1l-0.4-0.7l-0.7-0.5l-2.4-1.2l-1.4-0.3l-2.3,0.9h-1.1l-0.6-0.8l-0.1-1l-0.2-1l-1.2-0.5l-1,0.4l-0.7,2l-1,0.5l-1.1-0.3
		l-0.6-0.4l-0.6-0.2l-1.2,0.3l-1.1,0.1l-1.3-0.2l-1.4-0.4l-0.9-0.5l-0.4-0.6l-0.4-1.5l-0.4-0.5l-0.5-0.3h-1l-1.1-0.2l-0.6,0.1
		l-0.4-0.3l-0.3-0.9l-0.3-1.7l-0.8-1.4l0.1-0.5l0.4-0.5l0.9-1.7l0.4-0.5l-0.3-0.4l-1.3-0.4l-0.9-0.6l0.2-0.8l0.6-0.8l0.4-0.8
		l-0.4-2.8l-1.6-2l-2.4-1.3l-7.6-1.4l-4.3-2.4l-2.9-0.9l-0.5-0.7l-0.3-2.3l-1-3.1l-0.1-0.9l0.4-4.6l-0.7-1.8l-2.6-0.5l-1.3,0.4h-0.6
		l-0.7-0.1l-0.2-0.4l-0.2-1.1l-0.2-0.4l-0.9-0.4h-0.7l-1.7,0.7l-2.3,0.5L265,819l-1.1-1.4l-0.9-2.3l-0.2-1.2l0.4-2.2v-1.2l-0.4-1.1
		l-1.6-1.9l-0.6-1l-0.1-0.7l0.2-1.3l-0.3-0.7l-0.6-0.6l-0.7-0.5l-1.6-0.7l-1.3-0.3l-3.8,0.5l-5.7-0.4l-2.7-1l-4.1-4.3l-2.7-1.3
		l-3.1-0.4l-4.6,0.4h-1.2l-1.2-0.4l-1.2-0.8l-1.3-0.7l-2.7-0.3l-1.2-0.6l-3.7-4.4l-0.8-1.5l-0.1-1.1v-0.9l-0.3-0.9l-1-0.7l-1.1-0.3
		l-2.6,0.2h-1.2l-1.8-0.8l-1-0.2l-0.9,0.2l-6.6-6l-0.7-0.2l-2.6,0.5l-3.1-0.6l-1.2-0.7l-0.8-0.9l-0.8-1.6l-0.1-0.8l0.8-8.8l0.2-0.8
		l1.3-1.7l0.5-1.1l0.4-2.3l1.5-3.3l4.2-6.6l1.3-0.9l4.3,0.7l3.4,0.1l1.7,0.3l1.7-0.3l1.4-0.6l1.2-1.2l1.1-1.4l1.2-1.2l3.5-2.5l1-1
		l0.9-1.6l1.3-1.5l4.4-4.8l3.3-4.5l4.5-6.7l5.1-4.6l5.1-8.1l2.1-3.5l1.5-2.8l1.4-1.2l3.1-2.2l0.7-0.4l2.5-2.8l1-1.4l0.9-2l2.2-7.6
		l1-1.5l0.8-0.8l0.7-0.2l0.8,0.1l2,1.1l0.8,0.3l2.2-0.7l5.7-4.4l2.3-2.6l0.5-1.2l-0.5-2l-1.5-1.6l-1.6-1l-0.6-1.7l0.4-1.3l0.8-2.1
		l1.3-2.4l3-3.8l3.6-3.3l0.6-0.3l1.1-0.4l6.7,2.2l3.2,0.4l1.3,0.4l1.2,0.7l0.9,0.8l0.6,1l1.9,5l1,1.5l1.3,1.2l1.3,1l0.8,1.3l0.1,2.4
		l-3.8,14.9l-0.4,3.4l-0.1,2.1l0.3,2.4l0.6,1.9l1.1,1.7l4.1,4.6l1,1.5l0.7,1.4v1.4l-0.4,1.2l-1,1.4l-1.5,1.6l-1.3,1.7l-0.7,2.1v2.3
		l0.6,3.1l1.5,3.2l2.3,2.9l2.7,1.9l39.8,14l1.9,0.3h2.5l6.4-0.5L366.6,743.1L366.6,743.1z"/>
	<path id="COL1404" class="dep" d="M88.8,678.9l-2.2,0.1l-2-0.5l-1.2-0.6l0.5-0.4l-0.5-0.5l1.4-1.4v-0.8l-0.9-0.5l-1.2-0.1l-1-0.7
		l-0.5-1.4l0.3-1.2l0.9,0.1l1,0.6l2.5,3.3l1,0.8l2.3,1.3l1.1,0.9L88.8,678.9L88.8,678.9z M84.5,669.8l0.8,0.3l0.2-0.5l0.7-0.5L88,671
		l0.3,0.5l0.3,1.3l0.3,0.5l2.6,2l0.9,1l-0.3,1l-1.2,0.1l-1.7-0.9l-3-2.3l-1.9-2.4l-0.4-0.8l-0.2-0.8l-0.1-0.8l0.2-0.3L84.5,669.8
		L84.5,669.8z M62.9,655l-1,0.3l-0.8-0.3v-0.7l1-0.1l0.4-1l0.3-1.3l0.5-0.7l1-0.8h0.5l-0.1,1l-0.1,1.8l-1,1.2L62.9,655L62.9,655z
		M208.2,655.3l0.5,1.2l8.8,7.7l1.8,2.1l0.9,0.8l1.1,0.4l1.2,0.9l0.8,1l0.8,1.8l0.9,1.6l-1.4,4.7l-1.3,2.7l-0.1,2l1.9,3.7l-1.7,0.9
		l-0.8,0.8l-0.8,1.4l-2.3,0.1l-1.3-0.6l-2.2-2l-2.4-1.7l-0.9,0.3l-1.6,1.9l-1.6,1.4l-1.6,1.1l-4.8,2.4l-2.2,0.9l-5.3,1.4l-1.7-0.1
		l-1.3-0.2l-3.7-2.9l-1-1l-2.1-0.4l-0.9,3.6l2.4,5.3v1.1l-0.5,0.7l-0.3,0.7l-0.9,2.6l-1,1.7l-0.7,0.4l-0.9,1.1l0.1,1.2l0.2,1
		l-0.2,0.4l-0.5,0.3l-0.9,0.3l-1,0.3l-1.3-0.3h-1.2l-1-0.1l-0.8-0.5l-1.2-0.2l-0.9,0.5l-1.1,1.4l0.1,3.1l0.2,2l-0.2,0.7l-1.8,1.7
		l-0.5,1.2l-0.1,0.8l0.2,2.9l1.4,2.5l4.9,3.8l3.5,4.5l2.9,4.7l1.8,1.8l2.4,1.4l5,1.5l1.1,0.6l2.4,0.9l2.6,0.1l2.4,1.1l-1.3,0.9
		l-4.2,6.6l-1.5,3.3l-0.4,2.3l-0.5,1.1l-1.3,1.7l-0.2,0.8l-0.8,8.8l0.1,0.8l0.8,1.6l0.8,0.9l1.2,0.7l3.1,0.6l2.6-0.5l0.7,0.2l6.6,6
		l-0.8,0.7l-0.3,0.8l-0.6,0.7l-1.2,0.2l-2.1-0.1l-0.9,0.2l-1,0.5l-0.8,0.5l-0.6,0.6l-0.7,0.4l-1,0.3l-9.5-0.3l-2-0.4L182,785
		l-4.8-1.5l-1.3-1l-1.7-2.4l-0.6-2.9l0.2-5.9l0.4-1.2l1.1-2.3l0.3-1.1v-0.9l-0.3-0.9l-0.8-2l-1.2-1l-0.1-0.7l-1.3-2l-1.1-1.5
		l-2.3-0.9l-1.1-0.7l-1.1-0.4l-1.1,0.3l-3.5,5.3l-1.5,1.7l-1.8,1l-1.8,0.4l-5.4-0.3H149l-0.1-2.6l-0.7-3.3l-0.3-5.7l0.3-1.2l3.2-2
		l0.7-0.8l0.8-0.9l0.3-0.7l0.3-1.4l0.1-0.7l-0.1-0.5l-0.6-0.9l-0.7-0.5l-1.9-2.9l-2.1-3.3l-1.1-0.5l-2.2,0.6l-2.7,0.4l-2.1,0.6
		l-0.4,0.2l-1.4,1.2l-0.7,0.6l-0.5,0.3l-0.7,0.1h-0.7l-1.2-0.4l-1.1-0.9h-0.5l-1,0.4h-1.1l-3.4,1.2l-0.7-0.3l-0.6-0.4l-0.9,0.2
		l-4-1.2l1.7-4l0.2-1l0.1-1l-0.3-1.1v-0.9l0.2-0.6l0.9-2.6l2.4-2.1l0.6-1.1l0.2-1l0.4-0.3l1.1-0.3l0.2-0.4l0.8-1.9l-1-1.7l-1.2-0.7
		l-0.8-0.3l-0.9-0.5l-4-3l-0.6-0.6l-0.3-0.6l0.7-2.1l1-1.6l0.2-2l-0.8-1.1l-5.9-2.8l-1.3-0.4l-0.7-0.1h-1h-0.8l-1.2,0.2l-0.7,0.3
		l-0.8,0.8l-1.2,0.4l-1.9,0.2l-1.8,0.4l-0.5,0.2l-1.1,0.9l-2,0.8l-2.1-0.1l-3.1,1.2h-1.3l-1.5-0.2l-2.4-0.8l-2.1-0.5l-2-0.9l-0.6-0.6
		l-0.3-0.6l-0.2-2.2l-0.2-0.6l-4.8-7l-1.2-2.8l-0.1-0.6l0.2-1.2l0.8-2.3l0.2-0.9l0.1-0.7l-0.1-0.7l-0.9-2.4l-0.3-1.5l-0.1-1.3
		l-2.1-2.2l-6.1-4l0.7-0.5h1.6h1.3h1.1l2.3-1.5l1.3,0.1l1,0.9l0.7,1.3l0.5,0.7l0.7,0.2l1.3-0.4l-0.6,1.1l-0.6,1.4l0.1,1.2l1.3,0.5
		l0.8,0.1l1.4,0.3l0.9,0.1l1.7-0.4l0.8-0.1l1.6-0.3l1.2-1l0.6-1.2v-1.2l-0.4-0.8l-0.8-1.2l-1-0.9l-1-0.3V672h1.4v-0.6l-0.9-0.1
		l-0.4-0.5v-0.6l0.3-0.6l-0.7-0.2l-0.2-0.4l0.1-0.6l0.4-0.6l-0.9-0.3v-1.1l1.2,0.5l0.9-0.4l0.8-0.7l1-0.4l1-0.2l0.4-0.3l-0.3-0.3
		l-0.5-0.1l-1.1,0.5h-0.6l-1-0.7l0.2-0.4l0.8-0.5l0.4-0.5l1.5,0.4l1.3,0.1l0.9-0.2l0.7,1l0.2,0.4h0.5l-0.7-1.5l-2.4-0.6l0.8-1.2
		l1-0.6l1-0.1l0.9-0.2l0.8-0.9l1.2,0.5l0.3,0.4l0.3,0.5l0.3-1.6l-1.4-0.5l-2.1,0.3l-1.4,0.8l-0.4-1v-1.5l0.4-1.4l0.9-0.7l0.9,0.1
		l0.6,0.6l0.6,0.6l0.7,0.6l0.7,0.2l0.7-1.2l0.9-0.8v-1l-0.2-0.4l-1-0.2l-0.2-0.3v-0.4l0.3-0.2l0.4-0.9l0.5-0.2l-0.3-0.7l-0.4-0.2
		l-1.1-0.1l-0.3-0.6l-0.2,0.7l0.2,0.2l-0.7,0.5l-0.8,0.1l-0.6-0.2l-0.2-0.8l-1.7,1.5l-0.6,0.4l0.1-0.9l2.4-2.9l1.6-2.2l1-1l5.1-4.4
		l2.1-3.9l1-0.3l1.1,0.4l0.2-0.6l0.3-1.3l1,0.1l0.4-0.4l-0.3-0.7l-1.1-0.5l-1,0.4l-1.5,0.2l-0.2-0.6l0.8-1.1l1.6-1.4l1.1-0.7l1.6-0.6
		l2.8,2.7l0.3,0.2l1,1.7l0.7,0.8l0.2,0.7l0.2,0.9l0.2,0.5l0.9,1.4l0.5,0.3l1-0.1l1.2-0.5l0.8-0.1l1.7,0.8l0.1,0.3l-0.3,0.4l0.1,0.3
		l0.5,0.4h0.8l1,1.3l0.2-0.4l0.4,0.4l0.5,0.1l0.7-0.2l1.9-1.7l0.6-0.6l0.8-0.7l0.4-0.1l1,0.1l1.1-0.8l1.4-0.5l1.2-0.2l3.1,0.6l3.3,1
		l0.5,0.3l1.1,1l0.4,0.6l0.7,0.3l3.9,2.1l2,0.6l1.2,0.2l1-0.2l1.2-0.3l0.5-0.4l1.2-1.3l2.2-4l0.8,0.9l3.6,2.4l1.4,1.3l1.3,0.6
		l0.9,0.1l0.5-0.3l0.9-0.9l0.4-0.1l0.5,1l0.6,0.6l0.8,0.2l0.4-0.6l0.6-0.8l0.8-0.3l0.5,0.1l1.1,0.8l1.1-1l0.4-0.6l0.6-1.5l0.5-0.5
		l0.8-0.3l1.7-0.4l0.7-0.3l0.7-0.7l0.6-1l0.3-1.1l0.1-2.3l-0.3-0.6l-0.9-0.9l-0.2-0.6l0.3-0.5l1.4-1.7l2.6,1.3l3,0.6l6.6,0.5l1.8,0.6
		l2.5,1.8l1,0.4l4.3,0.9l2.5,1l-1.1,0.6l-0.2,1.5l0.2,1.2l-0.4,1.9L203,642l-0.2,0.6l-0.1,1.5l1.3,1.1l1,0.4l0.9,1.3l1.4,1.2l1,2.7
		L208.2,655.3L208.2,655.3z"/>
	<path id="COL1405" class="dep" d="M311.5,603.1l-0.3,1.9l-1.5,3.7l-1.4,2.5l-5,6.7l-0.8,2.3l-0.3,2.8l-0.3,5.6l-0.3,2.2l-0.7,2.2
		l-2,3.4l-1.2,1l-3.2,2.1l-1.7,1.8l-2,0.9l-1.5,1.1l-0.7,0.9l-2.3,4l-1.8,5.2l-0.1,0.4l-1.1,0.4l-0.6,0.3l-3.6,3.3l-3,3.8l-1.3,2.4
		l-0.8,2.1l-0.4,1.3l0.6,1.7l1.6,1l1.5,1.6l0.5,2l-0.5,1.2l-2.3,2.6l-5.7,4.4l-2.2,0.7l-0.8-0.3l-2-1.1l-0.8-0.1l-0.7,0.2l-0.8,0.8
		l-1,1.5l-2.2,7.6l-0.9,2l-1,1.4l-2.5,2.8l-0.7,0.4l-3.1,2.2l-1.4,1.2l-1.5,2.8l-2.1,3.5l-5.1,8.1l-5.1,4.6l-4.5,6.7l-3.3,4.5
		l-4.4,4.8l-1.3,1.5l-0.9,1.6l-1,1l-3.5,2.5l-1.2,1.2l-1.1,1.4l-1.2,1.2l-1.4,0.6l-1.7,0.3l-1.7-0.3l-3.4-0.1l-4.3-0.7l-2.4-1.1
		l-2.6-0.1l-2.4-0.9l-1.1-0.6l-5-1.5l-2.4-1.4l-1.8-1.8l-2.9-4.7l-3.5-4.5l-4.9-3.8l-1.4-2.5l-0.2-2.9l0.1-0.8l0.5-1.2l1.8-1.7
		l0.2-0.7l-0.2-2l-0.1-3.1l1.1-1.4l0.9-0.5l1.2,0.2l0.8,0.5l1,0.1h1.2l1.3,0.3l1-0.3l0.9-0.3l0.5-0.3l0.2-0.4l-0.2-1l-0.1-1.2
		l0.9-1.1l0.7-0.4l1-1.7l0.9-2.6l0.3-0.7l0.5-0.7v-1.1l-2.4-5.3l0.9-3.6l2.1,0.4l1,1l3.7,2.9l1.3,0.2l1.7,0.1l5.3-1.4l2.2-0.9
		l4.8-2.4l1.6-1.1l1.6-1.4l1.6-1.9l0.9-0.3l2.4,1.7l2.2,2l1.3,0.6l2.3-0.1l0.8-1.4l0.8-0.8l1.7-0.9l-1.9-3.7l0.1-2l1.3-2.7l1.4-4.7
		l-0.9-1.6l-0.8-1.8l-0.8-1l-1.2-0.9l-1.1-0.4l-0.9-0.8l-1.8-2.1l-8.8-7.7l-0.5-1.2l2-1.4h0.8l1,0.1l1.4,1.3l1.3,0.7l5.4,1.9l1.8,0.1
		l1-0.2l0.6-0.8l1.5-3l2.5-2.7l6.6-5.4l1.2-1.5l0.5-2.2l1.7-1.7l0.2-2.6l1.5-3.1l1.9-3l2-2.6l1.3-2.1l1-0.9l0.8-0.1l1.3,0.3h0.6
		l0.8-0.2l0.7-0.6l0.6-0.2l1.3-0.4l0.5-0.3l0.9-1.2l0.7-0.5l2-0.3l0.7,0.1l0.6,0.4l1.4,0.9l0.9,0.5l1,0.8l0.8-0.7l0.5-0.7l0.9-0.9
		l0.8-0.2l0.6,0.1l0.4,0.8l1.3,0.5l0.1-1.1l0.6-0.7l0.8-0.4l0.4-0.5l1.1-0.3h6.6l-0.3,0.7l-0.5,1.5v0.7l-0.2,0.6l-0.6,0.8l-0.1,0.4
		l-0.1,1.2l-0.2,0.8l-0.4,1.6l0.3,0.6l0.5,0.5l3.1,0.8l3.2,0.2l3.8-0.7l3.6-3.6l2.6-3.7l1.3-1.7l1.4-1.2l0.4-0.8l-0.1-0.7l-0.3-0.9
		l-0.1-1l0.3-1.5l0.4-0.8l0.6-0.5l0.6-0.4l0.8-0.9l0.3-0.5v-0.7l-0.2-0.5l-0.1-0.8l0.3-0.6l0.4-0.7l0.3-0.3l0.9-0.3l0.5-0.6l0.7-1.5
		l0.6-0.8l0.8-0.9l2.7-1.8l4.2-3.8l0.3-1l2.3,2.8L311.5,603.1L311.5,603.1z"/>
	<path id="COL1406" class="dep" d="M70.9,674.3l6.1,4l2.1,2.2l0.1,1.3l0.3,1.5l0.9,2.4l0.1,0.7l-0.1,0.7l-0.2,0.9l-0.8,2.3l-0.2,1.2
		l0.1,0.6l1.2,2.8l4.8,7l0.2,0.6l0.2,2.2l0.3,0.6l0.6,0.6l2,0.9l2.1,0.5l2.4,0.8l1.5,0.2h1.3l3.1-1.2l2.1,0.1l2-0.8l1.1-0.9l0.5-0.2
		l1.8-0.4l1.9-0.2l1.2-0.4l0.8-0.8l0.7-0.3l1.2-0.2h0.8h1l0.7,0.1l1.3,0.4l5.9,2.8l0.8,1.1l-0.2,2l-1,1.6l-0.7,2.1l0.3,0.6l0.6,0.6
		l4,3l0.9,0.5l0.8,0.3l1.2,0.7l1,1.7l-0.8,1.9l-0.2,0.4l-1.1,0.3l-0.4,0.3l-0.2,1l-0.6,1.1l-2.4,2.1l-0.9,2.6l-0.2,0.6v0.9l0.3,1.1
		l-0.1,1l-0.2,1l-1.7,4l4,1.2l0.9-0.2l0.6,0.4l0.7,0.3l3.4-1.2h1.1l1-0.4h0.5l1.1,0.9l1.2,0.4h0.7l0.7-0.1l0.5-0.3l0.7-0.6l1.4-1.2
		l0.4-0.2l2.1-0.6l2.7-0.4l2.2-0.6l1.1,0.5l2.1,3.3l1.9,2.9l0.7,0.5l0.6,0.9l0.1,0.5l-0.1,0.7l-0.3,1.4l-0.3,0.7l-0.8,0.9l-0.7,0.8
		l-3.2,2l-0.3,1.2l0.3,5.7l0.7,3.3l0.1,2.6l-2,1.7l-1.2,0.1l-0.5-0.6l-0.4,0.2l-0.1,0.8l0.2,1.4l-0.1,0.8l-0.3,0.6l-0.9,0.9l-0.7,0.5
		l-4.8,1.8l-1.1,0.3l-0.1,1l-0.1,2.9l0.4,3.7l0.1,0.4h0.6l0.4,0.2l1.4,1l0.8,0.3l0.3,0.3l0.2,0.6v0.6l-0.6,1.8l-3.5,7.5l-1.9,3.3
		l-1.3,0.9l-1.2,1.7l-4.2,5.2l-1.3,1.5l2.6,2.7l3.1,2.5l1.3,0.8l1,0.5l0.4,0.4l0.3,0.7l-0.1,1.1l-0.2,0.4L135,815l-0.3,0.4v0.7
		l0.1,0.7l1.4,3.2l0.2,0.9l0.2,2.1l0.6,1.4l0.2,1.3l-0.3,0.9l-0.7,0.5l-0.3,1.5l-0.9-0.2l-1.2,0.2l-3.4,1.2l-1.4,0.1l-1.1-0.3l-1-0.5
		l-1.2-0.5l-7.2-1.4l-2.3-0.9l-1.8-1.4l-0.7-1.7l-0.3-2L113,819l-0.5-7.1l-0.9-3.3l-2.7-0.7l-2.3,0.3l-2.5-0.9l-4.4-3.1l-1.4-2.1
		l-0.5-4.8l-2-1.6h-1.6l-5.4,2l-1.3,0.3h-1.4l-1.4-0.4l-1.6-0.6l-0.7-0.6l-0.2-0.7l0.1-0.7l-0.3-0.7l-0.6-0.7l-0.7,0.1H80l-4.6-1.7
		l-4.8-0.2l-2.8-1.4l-8.7-6.6l-1.4-0.7l-4-1.1l-1.3-0.6l-1.6-1.2l-6.3-7.1l-1.2-0.9l-3.8-0.9l-1,0.1l-0.9,0.6l-0.4-1.1l-1.4-1.5
		l-0.3-0.7l-0.1-1.3l-0.6-0.2l-1,0.3l-1,0.2l-1.6-0.5l-1.3-1l-1-1.4l-0.7-1.5l-0.7-1.1l-2-1.6l-1.4-2l-3.9-2.7l1-0.5l-0.4-1.2
		l-0.8-0.7l-0.9-0.6l-0.7-0.7v-1.1l0.1-1.2v-1.3l-0.5-1l-0.4-0.2l-2.2,1l-0.5-0.6l-0.7-0.6l-0.9-0.2l-0.7-0.5l-2-1.1l-1.8-1.2l-1-1
		l-0.6-1l0.3-1.1l0.6-0.7l1-0.4l1.3-0.3l1.2-1.1l1.1-2.1l0.9-1.2l1.7-1.7l1.4-1.6l0.9-1l1.4-1.1l3.1-0.7l1.6,0.2l1.1-0.1l1.5,0.3
		l1.3,0.6l1.4,0.3l2.3,0.2l1.5,0.3l1.9,0.2l0.3,0.2l0.5,0.6l0.7,0.4l0.6,0.2l0.7-0.1l-0.1-0.9l0.4-1.6l0.9-1l0.5-1.7l-0.6-1.1l0.1-1
		l0.5-1v-0.6l-0.4-0.1l-0.5,0.8l-0.8,0.5h-1.4l-0.4-0.9v-1.2l0.3-1.4l0.1-1l0.3-1.7l0.1-0.8l-0.3-0.6l-0.5-0.6L35,716l-0.7-0.3
		l-0.7,0.4L33,717l-0.6,2.2l-0.8,0.3l-0.5-0.5l-0.1-1.4l-0.2-1.8l-0.8-2.3l-0.6-3.2l-0.6-2.3l-0.2-2.9l1.6-3.5l0.5-1.7l1.8-0.8
		l0.6-1.9l2-3.6l1.4-2.9l0.8-2l1-1.1l-0.4,1.1l-0.1,1.2L38,691l0.3,1.2l1-3.1l0.5-3.2l0.8-1.4l1.2,0.3l1.7-2.1l1.7-2l1.6-2.4l1.5-0.5
		l2.6-2.5l1.7-1.1l0.8,0.1l1.4,3.4l1.1,1.7l1.3,1.9l1.6,0.1l-0.8-2.3l-0.3-1.9v-2.1l0.6-1l1-0.9l0.7,1.2l0.5,2l-0.4,1.5l0.7,1.1
		l1.1,2.7l1,1.1l0.6,0.4l2.4,1.2l1.1,0.3l0.6-0.1l1.1-0.7l1.4-0.4l0.1-0.9l-0.1-0.5l0.3-0.7V679l-0.6-2.1l-0.6-1.1l-0.4-1.2l0.6-0.6
		L70.9,674.3L70.9,674.3z M62.1,671.6l1.2,0.6l1.4-0.5l1.4,0.8l0.4,1.2l0.5,0.7l0.2,0.8l-0.2,0.4l0.1,0.4l1.6,1.9l0.6,1.4l0.1,2.2
		l-0.7,1.9l-1.9,0.5l-1.5-0.9l-1.8-1.9l-1.5-2l-0.7-1.4l0.2-1l1-0.7l0.3-0.7l-0.5-0.7l-1-1.9l0.1-0.7L62.1,671.6L62.1,671.6z"/>
	<path id="COL1407" class="dep" d="M206.2,782.2l0.9-0.2l1,0.2l1.8,0.8h1.2l2.6-0.2l1.1,0.3l1,0.7l0.3,0.9v0.9l0.1,1.1l0.8,1.5
		l3.7,4.4l1.2,0.6l2.7,0.3l1.3,0.7l1.2,0.8l1.2,0.4h1.2l4.6-0.4l3.1,0.4l2.7,1.3l4.1,4.3l2.7,1l5.7,0.4l3.8-0.5l1.3,0.3l1.6,0.7
		l0.7,0.5l0.6,0.6l0.3,0.7l-0.2,1.3l0.1,0.7l0.6,1l1.6,1.9l0.4,1.1v1.2l-0.4,2.2l0.2,1.2l0.9,2.3l1.1,1.4l1.4,0.5l2.3-0.5l1.7-0.7
		h0.7l0.9,0.4l0.2,0.4l0.2,1.1l0.2,0.4l0.7,0.1h0.6l1.3-0.4l2.6,0.5l0.7,1.8l-0.4,4.6l0.1,0.9l1,3.1l0.3,2.3l0.5,0.7l2.9,0.9l4.3,2.4
		l7.6,1.4l2.4,1.3l1.6,2l0.4,2.8l-0.4,0.8l-0.6,0.8l-0.2,0.8l0.9,0.6l1.3,0.4l0.3,0.4l-0.4,0.5l-0.9,1.7l-0.4,0.5l-0.1,0.5l0.8,1.4
		l0.3,1.7l0.3,0.9l0.4,0.3l0.6-0.1l1.1,0.2h1l0.5,0.3l0.4,0.5l0.4,1.5l0.4,0.6l0.9,0.5l1.4,0.4l1.3,0.2l1.1-0.1l1.2-0.3l0.6,0.2
		l0.6,0.4l1.1,0.3l1-0.5l0.7-2l1-0.4l1.2,0.5l0.2,1l0.1,1l0.6,0.8h1.1l2.3-0.9l1.4,0.3l2.4,1.2l0.7,0.5l0.4,0.7l0.2,1l0.6,2l0.3,0.6
		l0.5,0.6l0.8,0.4l0.5-0.1l0.5-0.2l0.7-0.1l1.5-0.1l0.6,0.3l0.3,0.5l0.3,1.3l0.4,0.5h1.2l1.1-0.5l1.2-0.3l1.2,0.6l3.7,2.7l2.2,2.6
		l1.4,1l3.2,1.4l5.3,1.5l-37.1,11.5l-0.2-1.4l-0.3-0.3h-0.9l-0.4-0.2l-0.6-0.9l-0.8-1l-0.8-0.7l-4.1-2.5l-1.8-1.3l-2.8-3l-1.9-3.2
		l-0.6-0.5l-0.8,0.1l-1.3,0.8h-0.9l-1.7-1.6l-0.4-0.2l-1.7-0.1l-1.3-0.4l-0.7-0.1l-1.2-0.4l0.5-0.9l1.9-1.4l-2.3-4.6l-1-1.4l-1.4-1.2
		l-0.8,0.2l-1.7,2.6l-0.7,0.6l-0.7,0.1l-1.1-0.4l-2.3-0.5l-1.5-0.6l-0.9-0.7l-2.7-3l-0.4-0.4l-0.6-0.1l-1.2-0.1l-0.6-0.2l-0.8-0.7
		l-2.6-3.7l-1.3-1l-1.4-0.7l-3-0.8l-1.4-0.1l-1,0.2l-0.7,0.7l-0.2,1.3l-0.3,0.8l-0.9,1l-1,0.8l-1,0.4l-1.3-0.7l-4.3-1.6l-3.7-0.7
		l-1.3-1l-1.6-0.5l-3.9-2.4l-3.2-2.9l-1.2-0.4l-0.7-0.4l-0.9-0.9l-1-1l-1.4-0.4l-1.2,0.1l-2.9,0.7l-1.6,0.1l-1.5-0.1l-1.3-0.3
		l-1.1-0.5l-1.9-1l-2.7-2l-0.5-1l-4.1-2.5l-1.7-1.5l-0.7-1.1l-0.3-1.3l-0.4-0.8l-4.5-5.7l-0.2-0.8l-0.7-1.1l-1.5,0.2l-1.7,0.6h-1.2
		l-0.4-0.5l-0.4-1.8l-0.4-0.7l-0.5-0.2l-0.8-0.1l-1.4,0.1l-1.7-0.1l-1.4-0.4l-1.4-0.5l-1.3-0.9l-1.8-2l-0.7-0.3l-0.7,0.3l-2,1.4
		l-1.7,2l-1.3,0.4l-1.5,0.1l-0.6-0.1v0.4l-0.1,5l0.7,4.5l-1.2,0.8l-6.7,0.7l-1.7,0.9l-1,0.2l-1.3-0.5l-1.8-1.6l-1-0.8l-1-0.3
		l-3.3-0.3l-2.3-0.7l-0.8,0.3l0.1,2.7h-1l-2.4-1l-0.8-0.1l-4.7,0.7l-1-0.1l-1-0.3l-1.1-0.8l-1.5-1.5l-0.7-0.5l-1.1-0.4l-0.8-0.1
		l-2.7-0.1l-2-0.7l-2.6-2.9l-1.4-0.3l0.3-1.5l0.7-0.5l0.3-0.9l-0.2-1.3l-0.6-1.4l-0.2-2.1l-0.2-0.9l-1.4-3.2l-0.1-0.7v-0.7l0.3-0.4
		l0.5-0.4l0.2-0.4l0.1-1.1l-0.3-0.7l-0.4-0.4l-1-0.5l-1.3-0.8l-3.1-2.5l-2.6-2.7l1.3-1.5l4.2-5.2l1.2-1.7l1.3-0.9l1.9-3.3l3.5-7.5
		l0.6-1.8V783l-0.2-0.6l-0.3-0.3l-0.8-0.3l-1.4-1l-0.4-0.2h-0.6l-0.1-0.4l-0.4-3.7l0.1-2.9l0.1-1l1.1-0.3l4.8-1.8l0.7-0.5l0.9-0.9
		l0.3-0.6l0.1-0.8l-0.2-1.4l0.1-0.8l0.4-0.2l0.5,0.6l1.2-0.1l2-1.7h2.2l5.4,0.3l1.8-0.4l1.8-1l1.5-1.7l3.5-5.3l1.1-0.3l1.1,0.4
		l1.1,0.7l2.3,0.9l1.1,1.5l1.3,2l0.1,0.7l1.2,1l0.8,2l0.3,0.9v0.9l-0.3,1.1l-1.1,2.3l-0.4,1.2l-0.2,5.9l0.6,2.9l1.7,2.4l1.3,1
		l4.8,1.5l2.7,1.3l2,0.4l9.5,0.3l1-0.3l0.7-0.4l0.6-0.6l0.8-0.5l1-0.5l0.9-0.2l2.1,0.1l1.2-0.2l0.6-0.7l0.3-0.8L206.2,782.2
		L206.2,782.2z"/>
	<path id="COL1408" class="dep" d="M229.5,535.1l0.3,1.9l0.1,1.1l-0.5,0.6h-2l-0.7,0.3l-4.6-0.7l-2.5,3.5l0.1,0.9l-0.6,0.9v0.6
		l-0.5,1.7l0.1,5.1l0.5,1.2l-0.7,0.5l-0.4,0.5l-0.4,1.4l1.2,0.5h1.2l3,1.2l1.5,3.2l-0.2,0.2v2.7l0.1,0.9l-0.1,0.4l-1.1,2.5l-0.8,1.3
		l-0.6,1.5l-0.2,0.6l0.1,1.2l-0.2,1.1l-0.4,0.8l-0.1,1.2l0.1,1l0.2,0.5l0.3,0.4l2.1,0.7l1.2,0.8l1.3,0.6l1.1,1.7v0.7l-2.1,1l-0.8,0.5
		l-0.5,0.8l-0.9,2.6l-0.7,1l-1,2l-1.5,3.7l-4.5,6.8l-0.8,1.7l-0.2,0.4l-1.2,1.5l-0.3,0.2l-0.7,2.4l-0.5,0.8l-0.6,1.3l-0.6,3.7
		l0.1,1.3l-0.1,0.9l-0.5,0.8l-0.4,1l-0.8,1l-0.4,1l-0.3,1l-0.7,1.7l-0.4,1.3l-0.1,2.2l-0.1,1.7l-0.9,1.8l0.8,1.7l0.5,0.6l0.2,0.7
		l-0.3,0.4l-0.5,0.4l-0.4,0.5l-0.2,0.8l-0.1,3.7l-0.7,1l-2.5-1l-4.3-0.9l-1-0.4l-2.5-1.8l-1.8-0.6l-6.6-0.5l-3-0.6l-2.6-1.3l-1.4,1.7
		l-0.3,0.5l0.2,0.6l0.9,0.9l0.3,0.6l-0.1,2.3l-0.3,1.1l-0.6,1l-0.7,0.7l-0.7,0.3l-1.7,0.4l-0.8,0.3l-0.5,0.5l-0.6,1.5l-0.4,0.6
		l-1.1,1l-1.1-0.8l-0.5-0.1l-0.8,0.3l-0.6,0.8l-0.4,0.6l-0.8-0.2l-0.6-0.6l-0.5-1l-0.4,0.1l-0.9,0.9l-0.5,0.3l-0.9-0.1l-1.3-0.6
		l-1.4-1.3l-3.6-2.4l-0.8-0.9l-2.2,4l-1.2,1.3l-0.5,0.4l-1.2,0.3l-1,0.2l-1.2-0.2l-2-0.6l-3.9-2.1l-0.7-0.3l-0.4-0.6l-1.1-1l-0.5-0.3
		l-3.3-1l-3.1-0.6l-1.2,0.2l-1.4,0.5l-1.1,0.8l-1-0.1l-0.4,0.1l-0.8,0.7l-0.6,0.6l-1.9,1.7l-0.7,0.2l-0.5-0.1l-0.4-0.4l-0.2,0.4
		l-1-1.3h-0.8l-0.5-0.4l-0.1-0.3l0.3-0.4l-0.1-0.3l-1.7-0.8l-0.8,0.1l-1.2,0.5l-1,0.1l-0.5-0.3l-0.9-1.4l-0.2-0.5l-0.2-0.9l-0.2-0.7
		l-0.7-0.8l-1-1.7l-0.3-0.2l-2.8-2.7l-0.8-0.8l0.1-1.3l0.5-0.8l0.7-0.8l0.8-0.4l0.7,0.1l1.1-0.3l1-0.1l0.3-0.2l1.3-1.2l1.5,2.8l1,1.1
		l1.7,0.7l-0.4-0.8l-2.2-2.7l-0.6-0.9l-0.1-1.2l0.3-1l0.7-0.8l0.2,0.5l0.5,0.7l0.4,0.3l0.2-0.3l-0.1-0.5l-0.8-1.1l0.4-1.4l0.6-1.2
		l0.4-1.1l-0.5-1.4h1.4l-0.4,0.6v1l0.1,0.5h0.5l0.6-0.4h1.2l0.9,0.8l0.2-0.4l-0.2-0.5l-0.5-0.4l-0.6-0.3l0.9-0.5l-1.2-0.4H123
		l0.3-0.7l0.2-0.1l0.9,0.3l0.2-1l-0.9-0.3l-1.4,0.1l-1.1,0.3l0.3-1.1l0.7-0.1l1.1,0.2l0.8-0.1l-1.1-0.7l0.9-0.5l0.3-0.3l-0.3-0.7
		l1.4-0.3l1.4-0.1v0.4l-0.3,0.6h0.6l2-0.6l-1-0.2l-0.2-0.5l0.3-0.6l1.2-1.4l0.4-0.9l0.7-1.9l0.7,0.5l0.6,0.2l0.5-0.3l0.7-0.6l0.8-0.3
		l1-0.3l0.4-0.3l-1-0.3l-0.9,0.1l-0.9,0.4l-0.7-0.1l-0.3-1l1.6-0.4l1.1-0.4l0.6-0.9l-1.2,0.2l-2.8,0.7l-0.9-0.4l-0.3-1.1l0.2-1.2
		l0.4-1l1.8,1.4l1,0.3l1.5,0.1l0.2-0.4l-0.5-0.3l-0.6-0.1l-1.3-0.1l-0.4-0.3l-0.4-0.6l1.1,0.1l1-0.1l0.7-0.5l0.5-0.8l-1.1-0.7
		l-0.6-0.8l0.1-0.9l1.1-0.9l0.8,0.7l0.1,0.5v0.7l1-1l-0.4-1.4l-0.2-1.2l3.1-1l0.8-1.2l0.7-1.2l1-0.9v-0.4l-4.2,0.9v-0.5l1-0.4h-1.7
		l-0.8-0.1l-0.7-0.4l0.2,2.9l-3.9,2.3l-4.8,0.8l-2.6-1.4l0.1-0.6l1-0.5l0.2-0.5l-0.2-0.3l-1.2-0.6l-0.8-0.5l-0.5-0.2v-0.7V588l0.5-1
		l0.3-1.8l0.4-0.6l0.6-0.4l1-0.1l0.7,0.2v0.5l-0.8,0.8l3.2-0.6l1-0.3v-0.5l-2.3,0.5l0.3-0.9l0.5-0.7l1.8-2.2l1.1-2.3h-1.1l-0.3-0.9
		l-1,0.3l-0.8-0.6l-0.8-0.9l-1.1-0.7l0.3,0.7l0.1,0.7l-0.1,0.8l-0.3,0.6l-0.6-0.3l-0.5-0.1l-0.6,0.1l-0.6,0.3v0.5l0.2,0.4l-0.2,0.6
		l-0.3-0.3l-1-0.2l0.2,1.2l-0.2,1.9l-0.5,1.7l-0.7,0.7l-0.2,0.4l-0.3,1.9l-0.2,0.5l-1.1,0.1l-0.8-0.6l-0.3-0.9l0.4-0.9l-3.5-2.8
		l-0.4-0.5l-0.3-1.1l0.4-1l1.4-0.1l-0.7-1l-0.3-0.5l-0.5-1.8l-0.3-2.1v-1.9l2.8-0.4l2.9-2.4l0.9-0.1l0.6,0.2l0.8,0.8l0.8,0.3l0.9-0.4
		l0.5-0.7l-0.1-1.2l0.3-0.2l1.1-1l0.7-0.9l0.5,1.1v1.7l0.2,0.7l0.9,1.1l0.6,0.4l0.5,0.1l1.1-0.7l1.5-0.5h0.7l0.6,0.1l1.3,0.9l0.8,0.2
		l2.9,3l0.8,1l0.3,0.2h1.1l1.4,0.2h0.7l0.6-0.2l0.5-0.3l0.6-0.8l0.3-0.2h0.5l0.9,0.1h0.7l0.7,0.3l0.8,0.8l2.8,4.3l1.7,0.8l2.1-0.2
		l0.9,0.2l0.4,0.7l0.7,0.4l0.9,0.3l2.1,0.9l1.2,0.1l0.9-0.3l2.2-2.1l1.2-0.9l1-1l0.7-0.3l0.8-0.1l3.3,0.9h0.8l0.5-0.3l0.1-0.9
		l0.3-0.7l1.5-2.1l1.7-1.8l1.6-0.8l1.6-0.5l1.8-1.7l0.4-1.3l-1-1l-2.8-1.5l-0.3-1.7l0.5-3.3l-0.1-0.5l-1.6-1.4l-0.6-0.9l-1.2-2.1
		l-0.1-0.5l0.4-0.2l0.8,0.2h0.5l1.2-0.3l1.9-0.6l1.4-1l0.9-3.1l-0.1-1.3l-0.5-1.1v-0.8l1-3.5l0.6-1.1l3.6-3.2l1.8-1.3l2-2.1l0.9-1.4
		l-0.2-1l-0.4-0.7v-0.8l0.4-0.9l0.5-0.9l0.5-0.6l5.5-4.7l2.7-3.2l1.9-5.4l0.6-0.9l1.1-1.1l0.7-0.5l2-1.9l0.5,0.5l1.9,3.7l0.4,0.8
		l0.8,1.3l2.4,2.1v1.9l0.4,0.7l0.5,0.3l0.6,0.2h1.7l0.9-0.5l0.3,0.5l-0.2,1.5l-0.4,0.9l-0.7,0.5l1.1,1.9l-0.1,1l0.4,0.6l0.7,0.5
		l1,0.1h0.6l1-0.9l0.9-0.2l0.6,0.3l0.2,0.8v0.6l-0.6,1.4l1.5-0.3l0.7,0.1l2.6,0.8L229.5,535.1L229.5,535.1z"/>
	<path id="COL1412" class="dep" d="M283.1,158.1l-1.4-1.7l-3-3.5l-1.8-1.4l-1.5-0.4l-3-3l-3.8,0.8l-2-3.1l-1-0.6l0.6-0.9l-0.2-0.5
		l-1.1-0.4l-1.2-0.2l-2.6-0.2l-0.4-0.3l-0.3-0.6l-0.6-1.1l-0.2-0.9l0.8-2.6l0.1-1l0.6-0.5l0.7-0.4l0.4-0.7v-1.5l-0.2-1l-0.4-0.6
		l-1.4-1.1l-0.4-0.4l-0.1-0.8l0.2-0.9l0.4-0.7l0.4,0.1l0.4-0.5l1.5-1.4l-0.5-1v-0.9l0.5-1.1l-0.2-1.7l-0.3-0.5l0.9-1.1l0.7-0.3h0.8
		l0.8-0.2l0.7-0.3l4.3-2.8l2.5-0.7l1.4-0.8l0.9-1l-0.1-1.1l0.3-0.7l0.3-1.6l0.3-0.6l0.7-0.4l0.9-0.4l1.2-0.1l1.3-0.5l0.9-1l1.6-1.3
		l0.1-1.2h1.9l2.3-0.2l1.1-0.9l-0.1-1.7l0.6,0.9l2.8,2.6l1.5,1.8l0.5,1l0.5,2.8l0.6,0.9l0.8,0.7l0.6,0.8l0.3,1.3l-0.3,1.2l-0.6,1.3
		l-0.3,1.6l0.1,0.8l1.1,3.1l0.2,0.6v1.4l-0.5,5.8l0.2,4.4l-0.2,1.5l-1.3,2.3l-3.9,2.7l-1.2,2.5l-0.4,3.1l-0.4,1.5l-0.8,1.2l-1.1,1.3
		L283.1,158.1L283.1,158.1z"/>
	<path id="COL1413" class="dep" d="M241.5,152.4l-0.7,0.8l-1.4-0.3l-0.6,0.3l-0.2,0.9l-0.2,0.5h-0.6l-0.2-0.9l-0.1-1.1l0.2-0.8
		l0.4-0.6l0.7-0.7l0.5,0.4l0.8,0.3l1.3,0.4L241.5,152.4L241.5,152.4z M283.1,158.1l-0.5,0.9l-0.5,2.4l-0.9,2.2l-0.2,1.5l0.3,1.9
		l0.8,0.8l1.1,0.4l1.3,0.9l0.5,0.2l2,0.4l0.8,0.7l0.6,0.8l0.9,2.1l0.2,0.2l0.9,0.5l0.3,0.6l-0.2,1.8l-0.4,1l-0.8,0.6l-2.4,1.2
		l-0.7,0.5l-0.4,0.9l-0.1,1.5v3.2l0.3,1.4l0.6,1.3l0.6,0.9l2.3,2.1l0.4,1.2l-0.3,1.4l-0.5,1.5l-0.3,1.3l0.2,1.4l0.6,1l1.8,1.6
		l0.8,1.1l0.2,1.1l-0.8,2.7l-1,6.1l0.4,2.6l2-0.3l0.5,0.6l1.3,1.8l0.9-0.5l0.9-0.3h0.9l0.8,0.5l0.3,0.5l0.3,1l0.3,0.4l0.4,0.1h0.9
		l0.3,0.1l1.1,0.6l0.5,0.5l0.2,0.5l0.1,0.9l0.4,0.6l0.4,0.6l0.6,0.5l2.1,1.4l1.1,1.2l0.6,2.2l0.4,0.6l0.6,0.5l0.7,0.2h0.7l0.4-0.4
		l0.7-1l1.1-0.6l1.1-0.1l2.2,0.2l0.3,0.4l0.5,1.8l0.3,0.6l0.9,0.4l0.6-0.2l0.6-0.4l0.7-0.2l1.3,0.1l1.5,0.5l1.3,0.7l0.5,0.7l0.1,1.9
		l0.5,0.6l2.6,0.1l1.2,0.8l1.8,2.8l1,1.3l2.8,1.6l0.9,0.8l-0.8,0.6l1.9,0.8l2.3,0.6l2.1-0.2l1.1-1.6l0.7,0.7l0.9,0.7l0.6,0.8
		l-0.4,1.1l2.2,1.2l5.6,0.3l1.9,0.8l-0.8,2l0.1,2l0.8,1.8l1.1,1.4l2.3,2.2l0.9,1.3l0.2,1.9l-0.3,1.4l-1.2,2.5l-0.3,1.5l0.1,4.4
		l0.3,1.4l0.5,0.7l1.2,1.5l0.2,0.8v2.3l0.3,1.6l1.5,2.7l0.5,1.6l0.5,4.8l-0.3,1l-0.5,1l0.1,0.7l0.5,0.5l0.2,0.8l-0.2,0.5l-0.5,0.8
		l-0.3,0.8v1.9l-0.1,0.7l-0.6,1.3l-0.2,0.8l-0.7,0.7l-0.1,0.8l0.3,0.6l0.2,1.2l0.2,0.7l-0.1,0.6l-0.7,0.8l-0.7,0.2l-0.6,0.6l-0.5,0.7
		l-0.5,0.8l-0.3,0.1l-1.4,0.6l0.1,0.2l-0.7,1.8l-0.5,2.1l-0.1,1.3l0.1,1.3l1.2,3.8l-0.2,0.8l0.9,4.1l0.7,0.6l0.3,0.6l0.8,4.1l0.1,1.4
		l-0.6,3.9l-0.2,0.8l-0.4,0.5l-0.2,0.6l0.6,0.9l0.3,0.6l-0.1,0.7l-0.4,1.2v2.3l-0.3,1l-0.9,0.5l-0.2,0.6l-3.8,4.7l-0.3,1.1v2.6
		l0.1,0.7l0.6,0.9l0.2,0.8l-0.1,0.6l-0.8,1.9l-0.8,2.8l-0.4,2.8l-21.7,20.7l-1.2-0.3l-2,0.2l-1.3-0.2l-1.6-0.7l-0.7-1l-0.3-1.5
		l-0.2-1.5l-0.7-1.9l-0.6-2.1L318,369l-0.5-2.1l-0.1-1.7l0.7-2.3v-2.7l-0.3-1.6l0.3-1.5l0.5-0.9l1.4-1.5l0.6-0.9l0.4-1.1l0.4-1.6
		l-1.2-3.8l-2.7,2.1l-0.7,1.2l-1.2,2.9l-0.9,1.1l-1.5,1.3l-1.3,0.3l-1.3-0.4l-1.4-1.3l-2.3-2.8l-1.3-2.9l-0.3-1.8v-2.1l0.9-5.6
		l0.8-1.7l1.5-1.1l1.5-0.9l1.2-1.2l1-1.9l0.2-1.2l-0.3-0.9l-0.8-0.5l-0.9-0.5l-0.8-1.3l-0.6-2l-0.7-6.8l-0.7-1.9l-0.7-0.8l-1.3-1.8
		l-1.2-2.1l-15.8-12.9l0.5-1.1v-0.9l0.8-1.1l1-1.1l0.1-0.5l-0.1-0.4l-0.3-1.1l1.7-0.4l0.6-0.4l1.4-1.2l0.7-0.2l2.2,0.2l1.8-0.1
		l1.6-0.5l1.4-1l1-1.1l0.7-1.6l0.2-1.7l0.2-0.6h0.3l0.6,0.2l1.1,0.1l0.5-0.8l0.9-2.6l0.2-0.8l-0.1-1.2l-0.6-2.3l-0.2-2v-1.5l0.1-0.3
		l-0.8-0.8l-0.7-2l-1.2-7.9l0.6-1.4l1.7-1.5l0.9-1.6l0.9-0.9v-0.5l-0.4-0.7l-0.9-0.9l-3.4-5.2l-3.2-3.5L294,242l-1.9-0.8l-2.9-1.8
		l-1.2-2.5l-1.3-2.5l-1.2-1l-0.6-0.3l-0.7-0.6l-0.3-0.6l-0.2-1V230l-0.7-2.9l-0.9-1.9l-0.3-1.3v-0.8l0.3-1.3l-0.6-0.9l0.2-0.6
		l1.4-3.2l0.9-1.4l0.3-0.4l-0.3-0.5l-0.6-0.3l-1.4-1l-0.6-0.9h-0.5l-0.8,0.4l-1.6,0.4l-1.3-0.3l-1.1-0.4l-0.4-0.5l-0.2-0.6l1.4-3.2
		l-2-0.6H273l-0.8-0.6l-2.9-2.5l-1.4-1.8l-2.7-2.2l-1-0.4l-0.8-0.1l-0.8,0.2l-0.9-0.1l-2-1.4l-1.2-0.4l-1-0.1l-0.9,0.4l-0.5,0.5
		l-1.1,1l-1.4-0.5l-1.3,1.1l0.7-3l0.5-0.8l0.1-1l0.1-1.2l0.3-1.3l0.7-2.1l0.2-1.1l-0.3-1.6l0.5-2.2l0.5-1.1l-0.1-1l-1.4-0.1l-0.9,0.5
		l-0.9-0.2l-5.4-1.8l-1.5-0.8l-0.5-0.7l0.2-0.6l1-1.4l0.2-0.6v-0.7l-0.6-1.2l-0.1-0.9l-0.1-2.3l-1.1,0.1l-1.2,0.4l-0.9-0.1l-0.7-0.3
		l-0.2-0.7l0.4-1l3.1-5.5l-6.5,3.5L238,169l-0.1-1.4l0.6-0.7l1-0.4l0.3-0.4l0.7-1.5l0.7-1.1l0.2-0.8l0.1-0.7v-1.4l0.3-0.7l-2.1,1.2
		l-2.8,1.9l-2.7,2.8l-2.7,1.6l-1.3-0.2l1-2.3l1.9-1.1l1-0.6l1-1.4l0.4-0.9l0.6-0.8l0.2-0.7l-0.3-0.9l0.2-0.5h1.5l-0.4-0.6l-0.1-0.5
		l0.1-0.6l0.4-0.6l0.6,1.4l1.3-0.3l2.5-1.6l0.7-0.6V153l-0.4-1.8l-0.1-1.6h-0.5l-0.5,0.4l-0.4-0.5l-0.4-1.8H240l-0.4,1.1l-0.4,0.2
		l-0.6,0.1l0.3-0.5l0.3-1.3l0.3-0.5l0.4-0.4l0.8-0.4l0.5-0.4l1.9-2.2l0.6-0.4l-0.3,1.2l-0.7,1.4l-0.3,1.2l1.1,0.5l0.9-0.6l0.4-1.5
		v-1.7l-0.2-1.4l-0.2-0.3l-1.2-0.2l0.1-0.4l0.4-1l-0.1-1.5l-0.2-0.6l-0.9-0.2l-0.2-0.3l0.3-0.6l0.6-0.7l0.7-0.3l0.8-0.1l0.9-0.3
		l0.7-0.4l0.6-0.6v-0.4l-0.5-0.7l0.1-0.3l1.5-0.7h0.5l0.5-0.1l0.2-0.8l0.2-0.1l0.6-0.6l0.4-0.7v-0.3l0.4-0.1l1.6-0.8l4.5-1.1l0.6-0.6
		l0.7-1.1l0.5-0.6l0.4-0.1l1.1,0.5l0.1,0.4l-0.5,0.7l0.5,0.5v0.3l-0.4,0.7l-0.2,0.9l0.1,0.8l0.4,0.4l1.4,1.1l0.4,0.6l0.2,1v1.5
		l-0.4,0.7l-0.7,0.4l-0.6,0.5l-0.1,1l-0.8,2.6l0.2,0.9l0.6,1.1l0.3,0.6l0.4,0.3l2.6,0.2l1.2,0.2l1.1,0.4l0.2,0.5l-0.6,0.9l1,0.6
		l2,3.1l3.8-0.8l3,3l1.5,0.4l1.8,1.4l3,3.5L283.1,158.1L283.1,158.1z M262.1,124.2v-0.4l-1.1,0.9l-0.3,0.5l-1.3-0.7l-0.4-1.3l0.5-1.2
		l2.4-0.8l0.2-0.3l0.3,0.5l0.2,1.7L262.1,124.2L262.1,124.2z"/>
	<path id="COL1414" class="dep" d="M417.6,147.1v1v1.3l-1.3,15l-3.5,12l-0.1,2.7l-0.5,2.6l-0.1,1.4l0.5,1.8l0.6,1.3l0.2,1.2l-0.5,1.8
		l-2.1,4.3l-3.7,5.8l-1.7,4.6l-0.7,1.3l-1.1,1.1l-2.7,1.7l-1,0.9l-1.2,3l-5.4,8l-2.3,5.8l-0.9,1.4l-1.2,1.2l-2.4,1.7l-0.8,1.3
		l-0.1,1.5l0.9,0.5h1l-3,0.7l-0.6,0.3l-1.3,2.3l0.3,2.6l-0.9,9.4l0.3,2.7v0.5l-0.5,1.9l0.9,3.4l0.5,1.6l0.1,0.7l-0.3,0.7l-1,0.9
		l-1.7,1.1l-0.4,0.4l-0.2,0.5l0.2,1.1l-0.2,0.5l-0.7,0.7l-2.4,1.9l-1,0.9l-0.9,1.4l-0.4,0.8l-0.2,0.9v1.4l0.7,1.7l1.9,2.7l1.3,3.1
		l0.4,0.2l0.5,0.9l-0.8,2.9l-1.6,1.8l-0.1,0.5l0.1,0.3l1.5,0.2l1,0.4l0.4,0.3l1,0.7l0.2,1.6l0.7,0.6l0.3-0.2l1-1.5l2-1.6l-0.4-2.6
		l-0.5-1.1l-0.3-1.1l0.3-0.8l0.6-0.1l0.9,0.1l1.6,0.2l0.7,0.5l0.5,0.4l0.2,3l-0.9,4.3l-1.1,2.4l-0.5,2l-0.8,1.3l-0.5,1.4l-0.2,1.5
		l0.3,5.3l0.9,0.6l1,2.3l0.1,1.1l-0.1,1.7l0.3,0.9l0.9,1l2.9,0.3l0.9,1.2l1.1,0.5l0.2,0.9l-0.1,0.9l-0.2,0.9l-0.9,1.2l-0.6,0.7
		l-0.8,0.6l-1.2,0.5l-0.5,0.4l-0.3,0.8l-0.3,1.2l0.2,2.4l-0.1,1.4l-0.2,0.7l-0.3,0.6l-1.5,2l-0.6,1l-0.8,0.8l-0.7,0.9l-1,0.9
		l-1.3,0.9l-2.1,1l-0.8,0.2l-0.6-0.1l-0.7-0.3l-1.3-1l-0.5-0.3l-1.3-0.3l-0.5-0.5l-0.8-0.9l-0.5-0.3l-0.7-0.3l-2.5-0.5l0.7,0.7
		l-8.5-0.4l0.1-2l0.7-1.2l-0.2-1.3l-0.2-1l0.1-0.6l0.3-0.7l1.2-1.2l1.1-0.8l1.9-1.6l0.5-1.2v-1.2l-0.4-1.2l-0.4-0.6l-0.8-0.5
		l-0.5-0.6l-0.4-0.2l-0.8-0.2l-0.6-0.7l-0.1-1.2l-2.8-4.9l-0.5-1.4l-0.1-0.9l-0.4-3.4l0.1-0.6l-0.2-0.7l-0.2-1.2l-0.3-0.6l0.1-0.8
		l0.7-0.7l0.2-0.8l0.6-1.3l0.1-0.7v-1.9l0.3-0.8l0.5-0.8l0.2-0.5l-0.2-0.8l-0.5-0.5l-0.1-0.7l0.5-1l0.3-1l-0.5-4.8l-0.5-1.6l-1.5-2.7
		l-0.3-1.6v-2.3l-0.2-0.8l-1.2-1.5l-0.5-0.7l-0.3-1.4l-0.1-4.4l0.3-1.5l1.2-2.5l0.3-1.4l-0.2-1.9l-0.9-1.3l-2.3-2.2l-1.1-1.4l1.8-5.6
		l0.7-1.2l0.7-2l1.6-2.6l-1.7-2.3l-2-2l-0.9-1.4l-0.3-1.4l-0.1-1.3l-0.3-0.4h-0.5l-1.1,0.1l-2.6-0.5l-0.9-0.4l-0.5-0.9v-1l0.7-1v-0.8
		l-0.1-0.6l-0.2-2.4l-0.3-0.5l-0.4-0.4l-1.2-1l-0.7-1.4l-0.4-3.8l-1.2-1.1l-1.4-0.8l-2.9-2.7l-3.7-2.2l2-1.4l3.2-3.8l1.2-0.7l1-0.4
		l1.5-0.2l1.1,0.2l0.7,0.2l1.1,0.1l0.5,0.1l0.9,0.7l0.6,0.3h2.5l1.3,0.1l0.5-0.3l2.8-1.6l0.5-0.1l0.4,0.2l0.8,1.2l1.1-1.4l-2.2-6.5
		l-1.7-3.2l0.4-1.1l-0.3-2.3l-2.9-2.7l-0.7-0.5l-3.9-5.3l-1.1-1l-1-0.7l-0.9-0.4l-0.7-0.9l-1.8-2.8l-2.1-3.7l-0.2-0.8v-1l0.2-0.7
		l0.6-2.2l0.4-3.2l1.2-1.6l0.7-1.5l0.7-0.7l1-1.5l2.1-2.2l0.6-1l0.7-1.8l0.5-1.2l1.3-1.3l0.9-0.8l0.9-0.3l2.4-0.5l0.9-0.3h0.6
		l1.1,0.3h0.7l2.6-0.8l2.4-1.7l0.9-0.2l1.1-0.5l0.9-1.1l0.7-0.3l0.8-0.1l0.9-0.1l0.5-0.4l0.7-1.7l0.5-0.2l1.9-0.6l1.6-0.7l0.5-0.7
		l-0.1-0.6l-0.5-0.6l-0.7-0.4l-0.3-0.3l-0.2-0.6l0.2-1v-1.1l-0.4-2.5l-0.3-1l-0.6-1.3l1.8-3.4l0.7-0.7l1-1.4l-0.2-0.9l-0.7-0.8
		l-1-0.5l-1.2-0.3l-1-0.1l-1,0.1l-0.6-0.3l0.4-1l2.2-3.3l0.1-0.8l10.3-1.4l4.4,0.2l1.5,0.3l1.8,0.1l2.4,0.5l1.2-0.1l0.9,0.6l0.8,1.1
		l0.3,1.2l0.3,1.8l-0.1,0.8l-0.3,0.9l-0.1,0.7l0.5,1l2,0.6l1.8,1.1l2,0.5l2.7,1.6l2.6,2.2l0.7,1.1l-0.8,1.1l-0.3,0.8l-0.6,1.6
		l-0.9,1.1l-0.8,2.4l-0.9,0.5l-1.3,2.5l-0.8,0.4l-0.4,0.7l-0.4,0.8l1.3,0.4l0.8,0.9l0.4,1l0.4,1.2l0.6,0.3l1-0.3l1.2-0.5l1.3-0.2
		l1,0.2l1.2,0.5l1,0.2l1.2,0.1l1.2-0.2l1.1-0.3l2.6-1.1L417.6,147.1L417.6,147.1z"/>
	<path id="COL1415" class="dep" d="M123.9,568.9l0.1,1.2l-0.5,0.7l-0.9,0.4l-0.8-0.3l-0.8-0.8l-0.6-0.2l-0.9,0.1l-2.9,2.4l-2.8,0.4
		l0.2-1.1l0.4-0.7l0.8-0.7l0.9-0.2l0.9,0.1l0.7-0.1l0.3-0.9l0.2-0.5l0.7-0.5l0.8-0.2l0.8,0.3l1.1,1.3l0.4,0.1l1-0.3L123.9,568.9
		L123.9,568.9z M119.4,565.3l1.3,0.6l1.4-0.1l1.4-0.3l1.3,0.2l-1.2,2l-0.9,0.8l-0.8-0.4l-1.2-1.5l-1.7,0.7l-1.6,0.2h-3.5l-1.3-0.3
		l-0.9-0.1l-1,0.2l-0.6,0.5l-0.9,1.1l-2.5,0.8l-0.3,0.2l-0.2-0.6v-0.9l0.3-0.9l0.6-0.4l0.9-0.3l1.5-1.3l0.8-0.2l0.9,0.1l1.7,0.3h0.9
		l-0.3-0.5l-1-0.7l-0.5-0.6h2.3l-1.6-0.4l0.2-0.7l1.1-0.7l1.2-0.6l-0.9-0.4h-0.5l0.5-1l1.8,1l1,0.8l0.8,1l0.5,1.1L119.4,565.3
		L119.4,565.3z M144.1,295.2v0.2l0.8,3.3l0.5,1.1l0.3,1.3l0.5,5.6l-0.4,1.4l-0.5,0.7l-0.2,1.3l-1.3,0.8l-0.5,0.7l-0.4,1l-1.3,6.9
		l-0.9,1l-1,0.7l-1.4,1.4l-1.5,1l-1.8-0.3v2.8l0.3,0.1l0.2,0.7l-0.4,0.1l-0.5,0.4l0.5,1l0.7,0.8l8.6,7.9l7,5l7,7.6l5.4,6.7l1.3,1.1
		l1.8,1.1l2.3,0.3l0.9,0.3l0.8,0.6l2.9,2.5l0.9,1.3l1.4,4.2l0.2,7.6l-0.2,1.3l-0.3,0.6l-2.2,3.7l-1.6-0.1l-0.9-0.5l-1.2-0.4l-5.5-1.4
		H163l-4.3,0.4l-2,0.3l-1.3,0.5l-1,0.6l-0.3,1l0.6,1.4l0.2,0.2l0.8,0.5l0.4,0.8l0.3,1.1l0.3,2.5l-0.3,1l-0.6,0.8l-0.8,0.8l-0.3,0.4
		l-0.6,0.3l-3.2-0.3l-2.1,1.3l-0.9,0.1l-3,1l0.2,0.6v2.5l0.2,0.8l1,0.7l0.2,0.7l-0.2,0.4l-1.2,1.4l1.2,0.1l0.5,0.1l0.2,0.5v0.7
		l0.2,0.5l0.4,0.3l0.8,0.1l-0.1-0.4l0.5-0.7l0.6-0.4l0.3,0.4l-0.4,1.1v0.7l0.4,0.7l0.6,0.2l1.5,0.2l0.3,0.3l-0.2,1h-0.4l-0.4-0.3
		h-0.4l-0.6,1l-0.2,1.4l0.4,0.8l0.8-0.4l1,0.4l0.6,0.7l0.3,1v1.2l0.7,0.6l0.5,0.9l0.6,0.6l0.9-0.3l1.6,2l0.1,0.5l-0.7,0.8l-0.4,0.9
		l0.2,0.6l1.1,0.3l-0.5,0.7l-0.9,0.3l0.5,1.1l0.6,0.7l0.1,0.8l-0.7,1.1l0.9,0.4l-0.6,0.6l-0.4,1.2l-0.2,1.3l0.3,1.1l0.4,0.4l1.1,0.3
		l0.3,0.2l0.3,1.5l0.1,0.4l1.9,2l0.7,1.2l0.2,1.4l0.6,0.8l0.9,0.7l1.8,0.5l1.7,0.2l5.3-0.2l3-0.7l3.8-0.3l3.2-0.3l2.2-0.5l2.6-0.3
		h2.5l2.4,0.3l1.2,0.9l0.7,1.1l0.5,4.2l1.6,4.2l1.9,2.4l1.7,0.7h1.8l1.7,0.9l0.4,3l-1.8,4.7l-0.2,1.6l0.3,1.8l0.5,1.5l1.9,3.2
		l0.5,0.9l0.2,1.7l-0.8,2.9l-0.1,1.1l0.7,1.3l0.4,0.5l2.6,2.7l-2.5,2.7l-0.1,1.8l-0.8,3.7l-3.5,2.1l-1.3,1.1l-1.2,3.8l0.2,2.9
		l5.5,9.1l0.7,2.4l-0.1,2l1,1.7l-0.1,3.3l-2,1.9l-0.7,0.5l-1.1,1.1l-0.6,0.9l-1.9,5.4l-2.7,3.2l-5.5,4.7l-0.5,0.6l-0.5,0.9l-0.4,0.9
		v0.8l0.4,0.7l0.2,1l-0.9,1.4l-2,2.1l-1.8,1.3l-3.6,3.2L181,545l-1,3.5v0.8l0.5,1.1l0.1,1.3l-0.9,3.1l-1.4,1l-1.9,0.6l-1.2,0.3h-0.5
		l-0.8-0.2l-0.4,0.2l0.1,0.5l1.2,2.1l0.6,0.9l1.6,1.4l0.1,0.5l-0.5,3.3l0.3,1.7l2.8,1.5l1,1l-0.4,1.3l-1.8,1.7l-1.6,0.5l-1.6,0.8
		l-1.7,1.8l-1.5,2.1l-0.3,0.7l-0.1,0.9l-0.5,0.3h-0.8l-3.3-0.9l-0.8,0.1l-0.7,0.3l-1,1l-1.2,0.9l-2.2,2.1l-0.9,0.3l-1.2-0.1l-2.1-0.9
		l-0.9-0.3l-0.7-0.4l-0.4-0.7l-0.9-0.2l-2.1,0.2l-1.7-0.8l-2.8-4.3l-0.8-0.8l-0.7-0.3h-0.7l-0.9-0.1h-0.5l-0.3,0.2l-0.6,0.8l-0.5,0.3
		l-0.6,0.2h-0.7l-1.4-0.2h-1.1l-0.3-0.2l-0.8-1l-2.9-3l-0.8-0.2l-1.3-0.9l-0.6-0.1h-0.7l-1.5,0.5l-1.1,0.7l-0.5-0.1l-0.6-0.4
		l-0.9-1.1l-0.2-0.7v-1.7l-0.5-1.1l1.2-1.5l-5.7-0.1l-1-0.2l-1-1.1l-2.4-4.2l1.9-2.7l0.4-1l0.5-2.9l0.7-1l1.5-0.7v-0.5l-1.4,0.5
		l0.2-2l0.7-3.1l0.1-9.3l0.4,1.1l0.9,0.8l0.3-0.7l0.2-1.1l-0.2-1l-1.6-0.8l-0.3-0.9v-1.1l-0.2-0.9l1.5,0.2l1.2,0.8l0.8,1.1l0.6,1.2
		h0.4l-0.7-2.2l-2.9-3.5l-0.4-2.2l-1.5,0.5l-0.5-2.8l-0.8-8.6l-0.5-1.2l-0.4-10.1l0.4-2.3l0.6-2.2l0.8-2l-0.9-0.5l-0.1-1.5l0.1-1.5
		l-0.3-0.7l-0.6-0.5l-0.3-1.4l-0.2-2.7l-1,0.4l-0.6-0.3l-0.3-0.8v-1.1h0.5l0.5,0.4h0.4l0.5-0.4l-0.7-0.5l-0.3-0.6l-0.5-2.1l0.1-0.5
		l-0.5-0.5l-1.4-0.3l-0.4-0.2l-0.7-0.7l-0.5-0.7l-0.6-0.6l-0.9-0.3h-1l-0.7,0.2l-0.5,0.5l-0.1,0.7l-0.8-0.7h-0.8l-0.7,0.3H106
		l-0.5-0.8l0.2-0.6l0.6-0.4l0.8-0.1l0.6-0.7l1.6-3.3l0.8-1.1l0.6-0.2l1.5-0.1l0.7-0.2l0.8-0.5l0.5-0.6l0.7-0.5l1-0.2l1.2,0.4l1,0.6
		l1.1,0.4l1.5-0.5l0.4-0.4l0.3-0.9l0.3-0.8l-0.1-0.8l0.4-0.4l0.8,0.1l0.5-1l0.7-0.5l0.9-0.6l0.6-0.5l0.5-0.6l0.3-0.8l0.4-1.6
		l-0.2-2.8l-1-2.4l-2.7-4.4l-0.7-0.6l-0.1-1.5l-2.6-7.3h-0.5v1.9h-0.5l-1-3l-1.8-2.6l-4.1-5.1l-0.7-1.2l-0.3-1l0.1-2.7l0.5-2.4v-1.1
		l-0.5-0.9l0.5-0.4l2.5,2.1l1.6,2l0.7-0.5l0.6-1.1l1-2.5l0.2-1.3l0.1-1.2l-0.1-1l-0.2-0.7l-1.2-1.7l0.1-0.6l1.6-0.5l0.2,0.4l0.7,0.5
		l0.2-1l-0.2-1l-0.6-0.7l-0.8-0.5V418l1-1.7l0.3-1.1l0.1-1.4l0.8-1l0.3-1.5l-0.1-1.5l-0.5-1.1l-2.3-1.8l-1.2-1.4l-0.7-0.5v-0.7
		l0.4-1.4V402l-0.2-0.8l-0.5-0.4l-0.6-0.2l-2.3-1.3l-1.6,0.4l-1.3,1l-0.8,1.1l0.5,0.9l-0.6,0.1l-0.9,0.4h-0.4v-1.7l0.1-0.8l0.3-0.8
		l-2.7-6l-1.4-1.8l-1.9-1.9l-1-0.7l-1.7-0.4l-0.6-0.5l-0.8,0.2l-0.2,0.4l-0.1,1.1l-0.6,0.3l-0.3-4.7l0.6-1.9l1.8-0.8l0.8-1.2
		l-0.8-2.6l-2.1-4h-0.5l0.5,0.8l0.5,0.5v0.5h-0.5l-1.2-1.6l-4.9-5.3l-0.7-0.4l-1.2-0.1l-0.7-0.4l-0.4-0.9l-0.5-0.8l-1-0.3l0.5-0.4
		l-0.9-0.3l-0.8-0.6l-1.1-1.5l-0.5-0.1l5.1-16.4l1.6,0.4l1.4-0.3l1.3-0.7l1-1.3l0.6-1.7l-0.2-1.5l-1.5-3l-0.6-2.1l-0.3-2.9l0.4-2.4
		l1.6-0.9L94,332l3.4,2.9l0.6,0.8l-0.3,0.7l0.2,0.5l0.8,0.2l1.8,2.6l0.5,0.9l0.9,3.4l0.7,0.7l1.5-0.1l1.7-1.4l3.1-3.1l9.4-5.9l2-1.8
		l-0.5-1.2l-1.3-1.3l-0.9-2l0.2-0.8l2-2.6l1.7-3.8l1.4-1.5l2.1-1.1l2.2-0.7l2-0.4h2.5l0.4-0.3l-0.5-1.1l-0.7-0.7l-0.7-0.5l-0.6-0.6
		l-0.5-1l-0.1-1.6l-1.4-5.3l-2-3.8l-2.4-3.5l-1.4-3.1l-0.5-0.7l-0.9-0.3l-0.9-0.1l-0.8-0.3l-0.8-1.2l-0.6-2.4l-0.5-4.7l-1-2.3
		l-1.1-1.9L114,281l-1.1-0.4l-2.1,0.2l-0.6-0.4v-1.6l0.6-2l2.6-2.8l0.8-1.7v-1.2l-0.4-0.7l0.1-0.5l1.1-0.7l1.1-0.3l1.1-0.1l0.7-0.5
		l0.1-1.2l0.4-0.6l1.1,0.6l0.6,2.5l0.8,1.3l0.9,0.8l0.6,0.8l0.6,1l0.5,1.3l0.6,2.6l0.5,1.5l4.4,3l3.4,1.3l1,0.8l0.7,0.8l5.4,9
		l1.5,1.1l0.9,0.2h1.9L144.1,295.2L144.1,295.2z"/>
	<path id="COL1416" class="dep" d="M373.9,89l0.2,1.9l-1.3,3.9l-0.3,0.6l-0.8,0.5l-0.9,1.2l-0.3,0.3l-1,0.3l-0.4,0.7l0.2,1v0.8
		l-0.1,0.8l-0.2,3.6l-0.4,1l-0.4,1.7v0.7l0.1,0.5l0.8,1.3l0.3,0.9l0.4,2.8l1.4,5l-0.1,0.8l-2.2,3.3l-0.4,1l0.6,0.3l1-0.1l1,0.1
		l1.2,0.3l1,0.5l0.7,0.8l0.2,0.9l-1,1.4l-0.7,0.7l-1.8,3.4l0.6,1.3l0.3,1l0.4,2.5v1.1l-0.2,1l0.2,0.6l0.3,0.3l0.7,0.4l0.5,0.6
		l0.1,0.6l-0.5,0.7l-1.6,0.7l-1.9,0.6l-0.5,0.2l-0.7,1.7l-0.5,0.4l-0.9,0.1l-0.8,0.1l-0.7,0.3l-0.9,1.1l-1.1,0.5l-0.9,0.2l-2.4,1.7
		l-2.6,0.8h-0.7l-1.1-0.3h-0.6l-0.9,0.3l-2.4,0.5l-0.9,0.3l-0.9,0.8l-1.3,1.3l-0.5,1.2l-0.7,1.8l-0.6,1l-2.1,2.2l-1,1.5l-0.7,0.7
		l-0.7,1.5l-1.2,1.6l-0.4,3.2l-0.6,2.2l-0.2,0.7v1l0.2,0.8l2.1,3.7l1.8,2.8l0.7,0.9l0.9,0.4l1,0.7l1.1,1l3.9,5.3l0.7,0.5l2.9,2.7
		l0.3,2.3l-0.4,1.1l1.7,3.2l2.2,6.5l-1.1,1.4l-0.8-1.2l-0.4-0.2l-0.5,0.1l-2.8,1.6l-0.5,0.3l-1.3-0.1h-2.5l-0.6-0.3l-0.9-0.7
		l-0.5-0.1l-1.1-0.1l-0.7-0.2l-1.1-0.2l-1.5,0.2l-1,0.4l-1.2,0.7l-3.2,3.8l-2,1.4l3.7,2.2l2.9,2.7l1.4,0.8l1.2,1.1l0.4,3.8l0.7,1.4
		l1.2,1l0.4,0.4l0.3,0.5l0.2,2.4l0.1,0.6v0.8l-0.7,1v1l0.5,0.9l0.9,0.4l2.6,0.5l1.1-0.1h0.5l0.3,0.4l0.1,1.3l0.3,1.4l0.9,1.4l2,2
		l1.7,2.3l-1.6,2.6l-0.7,2l-0.7,1.2l-1.8,5.6l-0.8-1.8l-0.1-2l0.8-2l-1.9-0.8l-5.6-0.3l-2.2-1.2l0.4-1.1l-0.6-0.8l-0.9-0.7l-0.7-0.7
		l-1.1,1.6l-2.1,0.2l-2.3-0.6l-1.9-0.8l0.8-0.6l-0.9-0.8l-2.8-1.6l-1-1.3l-1.8-2.8l-1.2-0.8l-2.6-0.1l-0.5-0.6l-0.1-1.9l-0.5-0.7
		l-1.3-0.7l-1.5-0.5l-1.3-0.1l-0.7,0.2l-0.6,0.4l-0.6,0.2l-0.9-0.4l-0.3-0.6l-0.5-1.8l-0.3-0.4l-2.2-0.2l-1.1,0.1l-1.1,0.6l-0.7,1
		l-0.4,0.4h-0.7l-0.7-0.2l-0.6-0.5l-0.4-0.6l-0.6-2.2l-1.1-1.2l-2.1-1.4l-0.6-0.5l-0.4-0.6l-0.4-0.6l-0.1-0.9l-0.2-0.5l-0.5-0.5
		l-1.1-0.6l-0.3-0.1h-0.9l-0.4-0.1l-0.3-0.4l-0.3-1l-0.3-0.5l-0.8-0.5h-0.9l-0.9,0.3l-0.9,0.5l-1.3-1.8l-0.5-0.6l-2,0.3l-0.4-2.6
		l1-6.1l0.8-2.7l-0.2-1.1l-0.8-1.1l-1.8-1.6l-0.6-1l-0.2-1.4l0.3-1.3l0.5-1.5l0.3-1.4l-0.4-1.2l-2.3-2.1l-0.6-0.9l-0.6-1.3l-0.3-1.4
		v-3.2l0.1-1.5l0.4-0.9l0.7-0.5l2.4-1.2l0.8-0.6l0.4-1l0.2-1.8l-0.3-0.6l-0.9-0.5l-0.2-0.2l-0.9-2.1l-0.6-0.8l-0.8-0.7l-2-0.4
		l-0.5-0.2l-1.3-0.9l-1.1-0.4l-0.8-0.8l-0.3-1.9l0.2-1.5l0.9-2.2l0.5-2.4l0.5-0.9l3.5-7l1.1-1.3l0.8-1.2l0.4-1.5l0.4-3.1l1.2-2.5
		l3.9-2.7l1.3-2.3l0.2-1.5l-0.2-4.4l0.5-5.8v-1.4l-0.2-0.6l-1.1-3.1l-0.1-0.8l0.3-1.6l0.6-1.3l0.3-1.2l-0.3-1.3l-0.6-0.8l-0.8-0.7
		l-0.6-0.9l-0.5-2.8l-0.5-1l-1.5-1.8l-2.8-2.6l-0.6-0.9l-0.2-1.1l0.4-0.5l1.7,0.9l5.1,1.7l6.5,2.7l5,1.7l3.3,0.8l3.4,0.5l4.6,0.4
		l4.5-0.2l2.6-0.4l-1,0.8l-3.3,0.6l-6.5-0.2l-1.5-0.3h-0.7l-0.8,0.3l-0.2,0.6l0.1,0.8v0.7l-0.6,0.3l-0.3,0.9l0.8,2l1.6,3.2l-1-0.6
		l-1-1l-0.9-0.7l-0.7,0.8l-0.5-0.6h-1.6l-1-0.5l-0.5,0.3l-0.5,1.1l-0.4,1.4l-0.2,0.9v2.1l0.1,1l0.4,0.5l0.9-0.3l0.4-1.1l0.3-1.2
		l0.7-0.8v0.8l0.2,0.4l0.5,0.3h0.7l-0.1,0.7l0.1,2.6l1,0.4h1.1l0.8-0.6l0.3-1.2l-0.7,0.4l-0.6-0.1l-0.4-0.7l-0.2-1l0.3-0.9l0.5-0.7
		l0.4-0.5l-0.2-0.8l1.3,0.3l0.9,0.9l0.4,1.3l0.3,3.3l0.6,0.8l1,0.2l2.7-0.2l0.5-0.1l0.6-0.3l1.3-1.3l0.3-0.2l0.1-0.6l2-3.6v-0.5v-1.9
		l0.7-1.5l0.4-0.9l0.9-1.1l0.2-0.4l0.5-2.6l0.7-1.5l4.2-6.2l0.2-0.5l-0.2-0.8l-1-1.2l-0.2-0.6v-0.8l0.4-1.1l0.1-0.7l-0.2-0.7
		l-0.6-1.2l-0.2-0.7l0.2-0.2l0.6-0.6l0.1-0.8l-0.4-0.4l0.1-0.8l0.4-0.6l0.9-1.3l0.9-0.9v-0.7l0.9-1.7h1.1l0.8,0.2l0.5-0.4l-0.1-1.6
		h0.5l0.1,0.4l0.4,1l0.7-1l0.1-0.4l0.5,0.4h0.5v-1.4l0.6,0.6l0.5,1l0.8,0.3l0.6-0.3l0.6-1.2l0.6,0.6h0.5l0.1-0.5l0.3-0.2l0.9-0.3
		l1.7,0.2l1.3,0.5l1.1,0.8L348,86l0.5,0.2l3.1,0.7l2.2,1.3l2.6,0.8l8.1,0.6l7.6-0.6L373.9,89L373.9,89z"/>
	<path id="COL1417" class="dep" d="M221.4,190.2l0.5,0.1v0.4h-1.2l-0.7,0.1l-0.2-0.4l0.5-0.4L221.4,190.2L221.4,190.2z M290.6,293.6
		l0.1-3.8l-0.4-1.1l-0.8-0.9l-0.9-0.6l-1.5-1.5l-1.9-3.1l-2.5-1.9l-1.4-1.2h-0.9l-1.5,0.1l-3.7,1.3l-2.9,0.9l-7.1,3.5l-2.5-2.6
		l-2.2-1.5l-2.8-1.3l-0.7-0.7l-0.5-0.9l-0.4-1.2l-0.4-3.4v-2.9l-1.3-4.4l-0.2-1.4v-1l0.4-1.8l-1.3-4.2l0.2-2.7l0.5-0.6l1.3-1l1.3-1.4
		l1-0.7l0.7-0.3l1-0.1l3.4-0.9l0.7-0.5l0.3-3.3l0.5-0.8l-0.2-0.4l-1.2-1.8l-0.2-0.5l0.6-1.3l-2.9-2.1l-11.7-5.4l-1.9-2.9l-0.5-2.9
		l-1.1-0.7l-1.4-0.1l-0.3-0.1l-0.3-0.6l-2.5-0.6l-1.2-1.3l-0.9-1.3l-3.6-1.7l-2-0.5l-0.6-0.4l-1.8-0.7l0.1-4.2l1.7,0.4l0.9-0.6
		l2.6-2.3l1.6-3.1l1.3-4.4l0.1-4l-0.8-1.8l-0.8-1l-0.5-0.5l-0.7-1.3h-1.1l-0.9-0.7l-0.7-0.4h-1.4l-0.8,0.4l-0.8,0.6l-0.2-0.7l3.8-3.8
		l0.6-1.8l1.1-3.8v-1.6l0.4-1.4l0.9-1.9l0.7-2.3l0.3-1.4v-1.4l0.9-3.9l0.1-2.2l-0.5-1.2l6.5-3.5l-3.1,5.5l-0.4,1l0.2,0.7l0.7,0.3
		l0.9,0.1l1.2-0.4l1.1-0.1l0.1,2.3l0.1,0.9l0.6,1.2v0.7l-0.2,0.6l-1,1.4l-0.2,0.6l0.5,0.7l1.5,0.8l5.4,1.8l0.9,0.2l0.9-0.5l1.4,0.1
		l0.1,1l-0.5,1.1l-0.5,2.2l0.3,1.6l-0.2,1.1l-0.7,2.1l-0.3,1.3l-0.1,1.2l-0.1,1l-0.5,0.8l-0.7,3l1.3-1.1l1.4,0.5l1.1-1l0.5-0.5
		l0.9-0.4l1,0.1l1.2,0.4l2,1.4l0.9,0.1l0.8-0.2l0.8,0.1l1,0.4l2.7,2.2l1.4,1.8l2.9,2.5l0.8,0.6h1.9l2,0.6l-1.4,3.2l0.2,0.6l0.4,0.5
		l1.1,0.4l1.3,0.3l1.6-0.4l0.8-0.4h0.5l0.6,0.9l1.4,1l0.6,0.3l0.3,0.5l-0.3,0.4l-0.9,1.4l-1.4,3.2l-0.2,0.6l0.6,0.9l-0.3,1.3v0.8
		l0.3,1.3l0.9,1.9l0.7,2.9v0.9l0.2,1l0.3,0.6l0.7,0.6l0.6,0.3l1.2,1l1.3,2.5l1.2,2.5l2.9,1.8l1.9,0.8l6.4,4.9l3.2,3.5l3.4,5.2
		l0.9,0.9l0.4,0.7v0.5l-0.9,0.9l-0.9,1.6l-1.7,1.5l-0.6,1.4l1.2,7.9l0.7,2l0.8,0.8l-0.1,0.3v1.5l0.2,2l0.6,2.3l0.1,1.2l-0.2,0.8
		l-0.9,2.6l-0.5,0.8l-1.1-0.1l-0.6-0.2h-0.3l-0.2,0.6l-0.2,1.7l-0.7,1.6l-1,1.1l-1.4,1l-1.6,0.5l-1.8,0.1l-2.2-0.2l-0.7,0.2l-1.4,1.2
		l-0.6,0.4L290.6,293.6L290.6,293.6z"/>
	<path id="COL1420" class="dep" d="M651.7,439.8l-6.7,4.1l-2.7,0.5l-14.3-0.5l-2.1,0.5l-2,1.2l-0.6,0.7l-2.2-0.9L620,444l-0.1-1.1
		l-0.2-0.7l-0.5-0.6l-1.6-1.3l-1.3-0.7l-4.5-1.7l-0.8-0.7l-0.6-1.5L610,435l-0.5-0.5l-2-1.2l-0.5-0.5l-0.8-1.1l-0.6-0.5l-2.2-1
		l-0.9-0.2l-1.7-0.2l-2.4,0.1l-1.9,0.2h-1.8l-1-0.1l-2.1-0.7l-1.4-0.1l-1.7,0.2l-4.7,1.7l-2.8,1.4l-1.4,0.4l-2.5-0.1l-3.5,0.3
		l-5.2,0.9h-3.7l-0.4-0.3l-2.6-1.1l-1.2-0.2l-1.4,0.2l-1.4,0.3l-1.5,0.6h-0.7l-6.4-0.4l-4.9-1.8l-2.2-0.4l-3.6,0.1l-1.6-0.2l-2.1-0.8
		l-2.3-0.4l-1.3,0.9l-1.1-0.1l-1.1,0.2l-0.8-0.2l-0.8,0.2l-1.6,1l-2.4,1.1h-2.1l-1.3,0.2l-1,0.4l-1,0.4l-2.6,1l-1.7,0.2l-1.5-0.2
		h-1.2l-2,0.5l-1-0.2l-1.8-0.9l-0.7-0.2l-1,0.1l-1.5,0.6h-5.1l-1.7,0.4l-7.3,2.7l-2.1,0.1l-1.2-0.1h-1.4l-1.4,0.3l-3.8,1.8l-3.7,0.9
		l-3.8,2.8l-1.1-0.1l-1.7-0.3l-2.1-1.5l-2.7-1.3l-1.2-0.8l-0.9-0.8l-1.7-3.2l-2.6-2.7l-1.5-2.5l-0.3-1.7V428l0.2-0.9l1.7-2.8l1.8-1.6
		l0.5-1.6v-0.9l0.4-0.7l0.6-0.6l0.6-0.4l0.6,0.1l0.7,0.6l0.6,0.1l0.5-0.4l0.7-0.7l0.6-0.9l0.6-0.5l0.8-0.2l0.9-0.1l1.2-0.5l0.8-1
		l0.6-1l0.7-2.4l1.6-12.8l0.5-1.2l1.5-0.7l1.3-1.7l0.8-2.9l1.4-2.5l2.5-6.5l0.7-1.4l0.6-1.9l5.5,1.3l2.2,0.2l1.1-0.2l0.7-0.4l0.7-0.6
		l0.8-0.5h0.8l0.7,0.1l0.4-0.2l-0.2-1.2l2-0.1l1.6-0.3l1.5-0.1l2,0.5l-0.3-1.1l0.4-0.5l0.9-0.1l2.3,0.1l0.5,0.4l0.4,0.5l0.8,0.6h0.4
		l0.5-0.1l0.9-0.6l0.6-0.1l0.3,0.3l0.4,0.6l1.3,0.1l0.1-0.2l1.2-0.3l1.5,0.4l1.3,1.1l0.8-0.3l1.8-0.8l1-0.2l1.1,0.1l2.2,0.6l1.1,0.1
		l2.8-0.5l1,0.1l0.6,0.4l0.2,1.7l0.3,0.7l0.9,0.4h3.3l0.8,0.4l0.5,0.5l0.7,0.1l1.2-0.3l0.8-0.6l0.6-0.7l0.6-0.4l4.8,0.6l3.6-0.5
		l3.4-1.2l2.8-2.1l0.7-0.9l0.3-0.7l0.6-0.3l1.4-0.1l2.5-0.8l3-0.3l4-0.9l2-0.1l0.4,0.3l1,0.8l0.6,0.2l2.3,0.5h1.1l1.9-0.6l1.1-0.2
		l0.5,0.4l3.4,4.4l0.6,0.4l1.1,0.2l0.7,0.1l1.6-0.3l0.6,0.1l0.3,0.2l0.6,0.8l1,0.3l7,3.4l2.1,0.1l3.8-2.2l2.5-0.6l2.5-0.1l1.9,0.5
		l2.2,1.9l21.5,27.3l5.1,6.5l17.3,21.8L651.7,439.8L651.7,439.8z"/>
	<path id="COL1421" class="dep" d="M479.6,379.5h-2.7l-1.3-0.7l-1.3-0.5l-1.9-0.5l-5.5-0.1l-1.4,0.5l-0.4,0.4l-0.3,0.6l-0.2,1
		l-0.5,0.6l-0.6,0.6l-0.6,0.4l-0.7,0.2l-0.4-0.3l-0.5-1.3l-1.5-0.4l-1.2,2.4l-0.7,1.9l-0.7,1l-0.8,1l-1.8,1.7l-1.2,0.7l-1.2,0.2
		l-1.5-0.3l-3.8-2.1l-1.7-0.3l-0.5,0.9l-0.6,0.7l-0.4,0.3l-1.3,0.1l-0.3-1.8l0.3-2l-0.1-1.1l-0.2-1.6l-0.3-0.7l-0.3-0.6l-1.1-0.2
		l-0.9,0.1l-0.7,0.3l-1.9,0.4l-1.5-0.3l-0.3,0.1l-0.5,0.9l-0.5,0.5l-0.2-0.2l-0.3-1l-0.3-0.7l-0.5-0.2l-0.9,0.1h-0.8l-0.4,0.1
		l-1.6,0.8l-1.8-1.5l-0.8-0.5l-0.7-0.8l-0.5-0.3l-1.7-0.4l-1.5-0.2l-1.8-0.8l-0.3-0.2l-0.4-1l2.5-3.9l0.8-1.2l0.5-0.9l-0.4-1.2l0.1-1
		l-0.2-0.9l-0.7-0.3l-0.4-0.3l-0.7-1l-1.2-1.7l2.5-3l0.1-3.8l-0.9-0.4l-0.1-0.6l-0.7-0.8l-2-3.1l-0.4-1.3l0.2-0.9l-0.2-1l-4.8-3.8
		l-0.6-1l-0.3-0.9l-0.5-2.2l0.1-0.7l0.2-0.7l-2.4-0.5l-1.3,0.4l-0.7,0.5l-1-0.3l-1.6-0.1l-0.7-0.3l-0.7-0.1h-1.5l-2.1-0.3l-1.3,0.1
		l-1-0.4l-0.8-0.1l-0.5,0.1l-0.6,0.5l-1,1.6l-0.7,3.1l-0.2,0.5l-3.2-0.3l-2.2,0.1l-1.3-0.2l-0.7-0.2l-0.3-0.7l-1.2-0.7l-3.7-0.5
		l-1.3-0.3l-1-0.4l-1-0.6l-0.5-0.5l-0.8-1.3v-0.6l-0.2-0.4l-1.7-1.9l-1.6-1.4l-1.6-0.8l-1.2-1l-1-1.2l-0.7-0.7l2.5,0.5l0.7,0.3
		l0.5,0.3l0.8,0.9l0.5,0.5l1.3,0.3l0.5,0.3l1.3,1l0.7,0.3l0.6,0.1l0.8-0.2l2.1-1l1.3-0.9l1-0.9l0.7-0.9l0.8-0.8l0.6-1l1.5-2l0.3-0.6
		l0.2-0.7l0.1-1.4l-0.2-2.4l0.3-1.2l0.3-0.8l0.5-0.4l1.2-0.5l0.8-0.6l0.6-0.7l0.9-1.2l0.2-0.9l0.1-0.9l-0.2-0.9l-1.1-0.5l-0.9-1.2
		l-2.9-0.3l-0.9-1l-0.3-0.9l0.1-1.7l-0.1-1.1l-1-2.3l-0.9-0.6l-0.3-5.3l0.2-1.5l0.5-1.4l0.8-1.3l0.5-2l1.1-2.4l0.9-4.3l-0.2-3
		l-0.5-0.4l-0.7-0.5l-1.6-0.2l-0.9-0.1l-0.6,0.1l-0.3,0.8l0.3,1.1l0.5,1.1l0.4,2.6l-2,1.6l-1,1.5l-0.3,0.2l-0.7-0.6l-0.2-1.6l-1-0.7
		l-0.4-0.3l-1-0.4l-1.5-0.2l-0.1-0.3l0.1-0.5l1.6-1.8l0.8-2.9l-0.5-0.9l-0.4-0.2l-1.3-3.1l-1.9-2.7l-0.7-1.7v-1.4l0.2-0.9l0.4-0.8
		l0.9-1.4l1-0.9l2.4-1.9l0.7-0.7l0.2-0.5l-0.2-1.1l0.2-0.5l0.4-0.4l1.7-1.1l1-0.9l0.3-0.7l-0.1-0.7l-0.5-1.6l-0.9-3.4l0.5-1.9v-0.5
		l-0.3-2.7l0.9-9.4l-0.3-2.6l1.3-2.3l0.6-0.3l3-0.7l7.4-0.2l2.8-0.3l2.4-1.2l2.3-2.2l1.2-0.8l1.7-0.5l1.5-0.9l2.9-2.7l1.6-0.1
		l0.4,0.6l0.8,2.4l-0.3,0.9l0.3,0.6l0.8,0.9l0.2,1.7l-0.1,2.8l0.3,1.5l1.2,1.7l1.3,0.3l1.4-0.5l2.3-1.5l0.5-0.3l0.8-0.3l0.8,0.1
		l0.6,0.2h0.5l0.5-0.6l1.3,1.2l1.1,0.7l0.3,0.8l-0.9,1.6l1.1,1.3l4.2,16.1l3,11.7l1.4,2.3l6.5,7.1l6.9,7.4l0.8,0.7l1.3,0.4l0.6,0.4
		l0.8,0.8l0.7,1l0.4,1.2l0.2,1.1l-0.1,1.1l-0.6,2.2l-0.1,1.1l0.4,1.6l2.2,4.2l1.5,4.6l0.1,2.6l-1.1,1.6h-1.1l-1.5-0.3l-1.2,0.2
		l-0.7,1.2l-0.3,1.3l-0.6,1.1l-0.8,0.9l-1,0.9l-1.4,0.6l-0.6,0.4l-0.3,0.8l0.3,0.6l1.4,1.7l0.5,0.7l0.3,1.2l0.2,2.9l-0.2,1.2
		l-1.3,4.2l-0.6,7.1l0.2,1.4l0.9,2.6l0.2,1.3l-0.3,1.5l-0.5,1.4l-0.5,1.4l0.3,1.6l1.8,3l2.5,1.8l2.9,1l3.3,0.6l5.5-0.1l2.3,0.6l2.3,3
		l0.4,0.3l0.1,0.3l-0.6,2.8l-0.1,0.6l0.2,2l0.5,1.9l0.7,2l3.7,7.1l1.2,1.4l0.8,0.5l1.8,0.8l0.9,0.6l1.6,1.3L479.6,379.5L479.6,379.5z
		"/>
	<path id="COL1422" class="dep" d="M623.3,446.3l-1.4,1.5l-1.5,2.3l-4.8,11l-1.1,1.9l-2.9,3l-0.3,0.9l-2.3,3.6l-1.6,1.6l-2.1,1.6
		l-2.2,1.4l-2,0.9l-2.8,0.6l-5.3,0.2l-2.5,0.5l-4.2,1.7l-1.5,0.2l-1.4,0.5l-4.3,3.2l-4.5,2.4l-1.4,1.1l-1.2,0.8l-2.9,1.2l-1.1,1
		l-0.4,1.2l-0.2,3.2l-0.6,0.7l-1.1,0.4l-11.8,10.3l-1.2,0.6l-2.6,0.7l-1.1,1.2l-4.5,10.7l-1.4,2l-0.8,0.7l-1.8,1.7l-0.9,0.4l-0.9,0.2
		l-1.1,0.5l-1.9,1.1l-3.2,2.6l-0.6,0.5l-4,0.6l-19.5,8.4l-5.3,3.7l-2.8,1.4l-6.1,1.8l-0.8,0.1h-0.7l-0.7,0.1l-0.7,0.5l-5.3,5.7
		l-5.1,4.3l-2.6,1.6l-2.5,0.7l-1.4-0.4l-0.7-1l-0.6-1l-2.5-1.6l-0.8-0.3h-0.7l-10.8,2.4l-0.9,0.4l-2.9,4.5l-1.5,0.4l-1.7-0.3
		l-1.3-0.9l-3.2,1.8l-1.6,0.5l-0.7-1.1l-0.4-0.4l-0.8-0.4l-1-0.3l-0.8-0.1l-0.4,0.4l-1.4,2.7l-0.6,0.2l-0.8-0.7l-0.5-0.3l-0.6,0.5
		h-0.5l-2.6-0.4l-0.6-0.1l-0.6,0.3l-0.9,0.8l-0.4,0.3l-0.7,0.1l-0.5-0.1l-1.5-0.9l-0.4-2.4l-0.5-0.2l-1.1,0.2l-0.5-0.1l0.2-1.4
		l-0.4-0.6l-0.1-0.4l-0.2-0.6l-1.1-1.3l-0.3-0.8l-0.6-0.3h-1l-6-6.4l-4.6-8.4l-3.1-3l-0.4-0.7l-0.4-2l0.2-1.2l-1.3-4l0.2-1.3l1.1-2.9
		l0.2-3.1l1.1-4.4l0.3-0.6l1-0.1l2.5,1.1l1.6-1.8l1.1-1l0.4-0.8l0.4-1.5l1-1.9l-0.5-0.9l-1.6-1.3l-0.7-1.2l-0.3-0.9v-1l0.3-1.5
		l0.4-0.9l0.5-0.6l-0.2-2.4l0.5-0.6l3.8-5.2l1.1-1.3l1-0.9l0.8-0.4l1.5-1.3l1.4,0.6l0.5,0.6l1.6,2.4l1.3,1l1.9,2.5l1.3,0.1l3.9-3.5
		l2.8-1.6l0.9-1.5l1.5-2.5l7.4-8l1.6-1.8l0.8-0.4h0.7l0.4,0.3l0.4,0.6l0.6,1.1l0.5,0.5l1.5,1.1l0.8,0.6l0.6,0.1l0.5-0.4l0.9-4.7
		l0.6-1.3l0.9-0.8l0.5-1.7l0.3-1.2l0.3-0.7l0.5-0.5l0.5-0.2l1-0.9l-1.6-1.3l-1.5-2.2l-1.4-1l-0.5-1.6l-2.7-2l-6.4-3.4v-1.4l0.4-0.5
		l0.6-0.6l1.1-0.4l1.5-0.3l0.3-0.5l1.5-5l0.6-3.4l0.9-1.8l0.2-1.3l-2-2.1l-0.4-0.8l-0.3-0.9l-0.4-0.9l-0.4-1.6l-0.4-0.5l-1-0.5
		l-0.2-0.5l0.1-0.7l1.3-4.3l2.8-4.5l2.2-1.2l-1.7,2.8l-0.2,0.9v0.6l0.3,1.7l1.5,2.5l2.6,2.7l1.7,3.2l0.9,0.8l1.2,0.8l2.7,1.3l2.1,1.5
		l1.7,0.3l1.1,0.1l3.8-2.8l3.7-0.9l3.8-1.8l1.4-0.3h1.4l1.2,0.1l2.1-0.1l7.3-2.7l1.7-0.4h5.1l1.5-0.6l1-0.1l0.7,0.2l1.8,0.9l1,0.2
		l2-0.5h1.2l1.5,0.2l1.7-0.2l2.6-1l1-0.4l1-0.4l1.3-0.2h2.1l2.4-1.1l1.6-1l0.8-0.2l0.8,0.2l1.1-0.2l1.1,0.1l1.3-0.9l2.3,0.4l2.1,0.8
		l1.6,0.2l3.6-0.1l2.2,0.4l4.9,1.8l6.4,0.4h0.7l1.5-0.6l1.4-0.3l1.4-0.2l1.2,0.2l2.6,1.1l0.4,0.3h3.7l5.2-0.9l3.5-0.3l2.5,0.1
		l1.4-0.4l2.8-1.4l4.7-1.7l1.7-0.2l1.4,0.1l2.1,0.7l1,0.1h1.8l1.9-0.2l2.4-0.1l1.7,0.2l0.9,0.2l2.2,1l0.6,0.5l0.8,1.1l0.5,0.5l2,1.2
		l0.5,0.5l0.4,0.7l0.6,1.5l0.8,0.7l4.5,1.7l1.3,0.7l1.6,1.3l0.5,0.6l0.2,0.7l0.1,1.1l1.1,1.4L623.3,446.3L623.3,446.3z"/>
	<path id="COL1423" class="dep" d="M542.1,659.4l1.5-0.3l1.2,0.7l1.2,0.2l1.3,0.3l0.2,0.5l-0.2,1.4v0.6l0.4,0.3l0.4-0.2l0.3-0.6v-0.9
		l-0.2-1l0.2-0.8h0.5l1.2,0.8l0.8,1.3l0.6,0.4l0.4-0.4l-0.1-0.9l0.4-0.6l0.6-0.1l0.9,0.8l0.1,0.9l-0.1,0.7l0.1,0.4l1.7-0.8h1l1.1,0.7
		l0.8,1.4l0.6,0.3l1.1-0.2l1-0.5l0.9-0.6l0.8-0.2l0.5,0.1l0.3,0.5v0.8l0.2,0.7l0.4,0.1l2.8-2.2l0.4-0.6v-0.6l-0.2-0.8l-0.4-0.7
		l-0.1-0.6l0.2-0.4h0.7l0.6,0.5l1.7,2h0.5l0.8-0.9l1.4,0.1l1.1,0.2l6.3,3.8l-26.6,11.1l-0.9,0.6l-0.1,0.6l0.7,0.7l3.8,1.2l3.4,1.8
		l1.6,0.4l1.5,0.8l1.4,1.5l3.3,4.7l2.8,5.4l0.8,2l0.9,0.9l1.3,0.9l3.4,0.9l1.4,0.4l0.4,0.1l0.7,0.3l0.5,0.7l0.1,1.4l2.5-0.4l0.5-0.3
		l1.8-0.6h1l3.6,1.2h0.8l1.6,0.9l0.9,0.4l0.7-0.3l0.2-0.6l-0.1-0.6l0.1-0.4l0.4-0.2h1.2l1.2-0.4l0.8-0.1l0.9,0.7l0.7,0.2h1.6l2-0.6
		l0.7-0.1l0.5,0.1l0.4-0.1l0.3-0.7l0.8-0.2l2,0.1l1.1-0.3l0.8-0.6h0.7l1,0.7l1.1,1.9l1.4,1.5l0.3,0.5v0.4l-0.3,1l-1.7,1.1l-0.6,0.7
		l-2.6,1.6l-2.1,1.7l-0.1,1.4l-2.9,2.1l-1.6,1.5l-0.8,0.6l-1.2,0.6l-3.9,0.4l-3,0.8l-2.3,0.8l-1.4,0.1h-1.2l-0.7,0.3h-1.1l-2.7,0.4
		l-1.2,0.6l-1,1l-0.6,0.5l-0.9,0.4l-2.5,0.5l-1.4,0.6l-4.5,1l-2.1,1.1l-1.2,0.2l-1,0.1l-0.9-0.1l-0.8-0.3l-0.6-0.4l-1.5-0.4l-0.9,0.2
		l-2.5-0.3l-6.2,0.2l-1.1-0.2l-0.5,0.3l-1,1.4l-2.8,2.7l-1.7,1.2l-2.2,1.2l-3.5,1.2l-5.5,3l-3.2,2.3l-1.2,1.3l-1.4,1.2l-1.2,0.7
		l-1.2-0.2l-0.7-0.2l-1.3-1.4l-2.3-0.9l-1.9-1.5l-1.1,0.3l-0.3,5.6l-0.3,1.9l-0.4,1.5l-1.8,2.3l-0.6,1.1l-0.6,2.3l-1.4,3.3l-0.8,1.5
		l-0.4,1.7L513,759l-3.1,7.3l-0.5,0.6l-0.2,1.3v1.5v0.9l1,1.7l0.2,0.6l0.8,1.3l0.5,1l0.6,0.7l0.3,0.9l-0.2,0.6l-0.7,0.2l-0.8-0.3
		l-0.5-0.6l-0.2-0.8l-0.3-1.4l-0.3-0.3l-0.4,0.1l-0.4,0.4l-0.1,0.9l0.1,0.7l-0.1,0.5l-1-0.2l-0.5,0.3l-0.2,0.6v1.5l-0.1,0.6l-0.8,1.7
		l-0.7,1l-1.3,0.9l-3,3.2l-0.8,0.2l-0.7-0.1l-0.9-0.3l-1-0.2l-1.3,0.3l-0.9,0.8l-1,1.5l-0.5,1.2l-0.5,0.9l-2.1,2.2l-2,1.6l-12.7,13.2
		l-2.8-0.3l-0.6-0.4l-0.4-1.4l-0.4-0.6l-0.5-0.4l-3.1-1.1l-1.2-0.3l-4.6-0.3l-0.5-0.6l-1.2-2.7l-0.6-0.6l-1.9-0.6l-0.7-0.7l0.1-1.1
		l0.3-1.2l0.1-1l-0.5-1.4h-0.5l-0.5,0.5l-0.7,0.2l-0.7-0.3l-0.3-0.4l-0.2-2.1l-0.5-1.3l-0.9-0.3l-1.1-0.1l-0.7-0.5l-0.4-0.9l-0.2-1.1
		l-0.1-2.1l-0.3-1.2l-0.7-1.1l-3.1-2.9l-0.9-0.4l-2.2-0.3l-1.7-0.5l-5.5-3.6l-1.9-1.7l-1-0.6l-2.2-0.9l-2.4,0.5v0.6l-1.5,2.3l-1-0.8
		l-0.9-1.2l-1.1-0.7l-0.8-0.3l-0.5,0.2l-0.2,0.6l-0.3,0.3l-1.2,0.3l-0.5,0.2l-0.9,1.1l-0.2,0.7l-0.2,1.1l-0.5,1.2l-0.2,0.7l0.3,1.3
		v0.8l-0.3,0.9l-0.4,0.8l-0.9,0.6l-2.1,0.9l-1,0.9l-1.4,1.5l-1.5,1.2l-1,1.6l-1.5,1l-1,0.4l-1,0.1h-1.3l-3.6-1.1l-1.4-0.9l-1.3-0.9
		l-0.7-1l-0.4-1l-0.4-0.8l-0.8-0.5l-2.5-0.8l-1.8-2.3l-6.8-6l-3.4-3.9l-0.2-1.6l-0.1-1.5l-0.1-0.9l-0.8-2.2l-0.6-1.1l-1-1.2l-1-1.9
		l-1-1.1l-3.4-2.6l-1.1-1.1l-6.8-10l-0.1-0.9l-0.5-1.8l0.9-1.2l0.2-32.5l-0.1-8.6l0.3-2.7l0.5-0.6l0.6-1.2l0.9-1.3l0.1-0.6l-0.2-0.5
		v-0.7l0.6-0.6l0.8-0.5l0.5-0.3l0.4,0.1l0.1,1.1l0.4,0.5h0.5l0.8-0.2l2-1.2h0.4l0.3,0.3l0.7,1.3l0.3,0.4l2.2-0.3l0.6,0.2l0.5,0.4
		l0.4,0.1l0.3-0.5l0.4-2.1l0.8,1.5l-0.1,0.8v0.8l0.2,0.5l0.3,0.1l1-0.9h1.2l0.5,0.3l0.3,0.6l0.4,0.1l0.6-1.2l0.3-0.5h0.8l0.4,0.4
		l-0.1,0.9l0.2,0.4l0.5-0.1l0.7-0.9l0.6-0.2l1.7,0.6l1.1-0.3l1.7-0.1l0.6-0.4v-0.6l-0.4-0.5v-0.4l2.2-1.1l1.1,0.5l1.7-0.3l0.4,0.2
		l0.4,1l0.5,0.4h0.6l0.7-0.3l0.3-0.5v-1.1l0.4-0.3l0.5,0.2l0.9,0.6l0.5-0.1l1-0.9l1.3-1.1l1.1-0.3h0.6l0.4,0.4l0.7,0.1l0.9-0.6
		l1.4-1.1l1.2-0.6l0.4-0.7l0.6-0.5l1.5-0.3l0.2-0.6l-0.3-0.7l-0.7-0.7l0.3-1.1l1.2-0.6l0.4-0.8l0.5-0.9l5.8-3.3l1.3-0.4l0.7,0.1
		l0.7,1l0.6,0.4l0.6,1l1.7,0.4l0.9-1.1l0.6-1.4l0.8-0.7l2.2-0.5l0.8,0.4l0.5,2.3l0.2,0.5l0.4,0.3l0.7-0.2l0.5-2.8l0.9-0.9l0.7,0.4
		l1.1,1.9l0.5,0.4v-1.9l0.2-1.4l0.8-0.8h1.7v-0.5l-0.8-0.5l-0.5-0.6l0.1-0.7h0.5l0.5,0.3l1.4,0.2l0.8,0.2l1.5-1.3l0.6-0.3l2.4-0.1
		l1.2-0.3l1.1-0.6l2.6-2.3l1.2-0.1l2.6,1.5l0.4-1.4l0.6-0.9l0.8-0.1l1,1l0.8,2.3l0.3,0.4l0.3-1.3l-0.1-1.4l-0.1-0.7l0.2-0.5l0.9-0.6
		l0.9-0.5l0.9-0.2l0.9,0.1l0.1-1.6L466,663l-0.1-1.3l0.3-0.9l0.8-0.4l2.6-0.5l1.4-0.4l1,0.3l0.9,1.6l1,0.8l1.5,0.4l2.6,0.2l0.8,0.7
		l0.3-0.3l0.5,0.8l0.9,0.1l0.9-0.3l1.3-0.3l0.2-0.2l7.2-1.4l1.4-0.7l0.7-0.8l0.9-0.5l0.6,0.1l0.4,0.5l0.5,2l0.7,0.4l0.6-0.7l0.2-1.2
		v-2.1l0.3-0.4l0.6,0.1l2.5,2.4l0.9,0.3l0.8-0.4l1.1-1.1l0.4-0.1l0.2,0.4l-0.1,1.9l0.3,0.7l1.4,0.2l2.9-1.3l0.7-0.7l0.5-0.7l0.8-0.2
		h0.9l1.7-0.2l1.4,0.2l1.5,0.5l0.8-0.3l0.9-1.3h0.5l2.3,1.4l1.3,0.6l0.8-0.1l0.5-1.4l0.4-0.5l0.6,0.1l1.2,1.1l0.6-0.2l0.4-0.6
		l0.4-1.8l0.4-0.6h0.6l0.6,0.5l0.3,1l0.5,0.8l0.6,0.4h1.1l0.7,0.2l0.8,0.5h0.7l0.8-0.2l2.3-1.8l0.6,0.1l0.7,0.5l0.7,0.6l0.7,0.2
		l0.7-0.4l0.4-0.5l0.6,0.2l1.4,0.7L542.1,659.4L542.1,659.4z"/>
	<path id="COL1424" class="dep" d="M624.2,737.5l-2.4-1.3l-3-0.9l-3.2-0.2l-2-0.8l-3.4-1.7l-7.2-6l-0.4-1l0.1-1.2l2.9-7l0.7-3.5
		l0.2-2.9l0.1-1.4l2.1-1.7l2.6-1.6l0.6-0.7l1.7-1.1l0.3-1v-0.4l-0.3-0.5l-1.4-1.5l-1.1-1.9l-1-0.7h-0.7l-0.8,0.6l-1.1,0.3l-2-0.1
		l-0.8,0.2l-0.3,0.7l-0.4,0.1l-0.5-0.1l-0.7,0.1l-2,0.6h-1.6l-0.7-0.2l-0.9-0.7l-0.8,0.1l-1.2,0.4h-1.2l-0.4,0.2l-0.1,0.4l0.1,0.6
		l-0.2,0.6l-0.7,0.3l-0.9-0.4l-1.6-0.9h-0.8l-3.6-1.2h-1l-1.8,0.6l-0.5,0.3l-2.5,0.4l-0.1-1.4l-0.5-0.7l-0.7-0.3l-0.4-0.1l-1.4-0.4
		l-3.4-0.9l-1.3-0.9l-0.9-0.9l-0.8-2l-2.8-5.4l-3.3-4.7l-1.4-1.5l-1.5-0.8l-1.6-0.4l-3.4-1.8l-3.8-1.2l-0.7-0.7l0.1-0.6l0.9-0.6
		L580,665l2.2-1.8l5.6-2.3l1.6-1l0.8-0.9l0.2-0.9l0.2-0.7l0.6-0.8l3.5-2.2l0.4-1.2l-0.1-1.6l-0.3-1.3l-0.6-1.2l-0.1-0.6l0.2-0.4
		l0.8-0.2l0.7-0.4l0.3-0.6l-0.1-0.6l-0.6-0.5l-0.7-0.2l-1.5-0.3l-0.3-0.4l0.3-0.4l1.2-0.9l1.1-2l1.5-1.8l0.9-0.8l1.6-0.9l0.2-0.5
		l0.6-0.3l0.9,0.9l0.6,0.1l0.8-0.3l0.2-0.8l-0.2-0.8l0.1-0.9l0.2-0.3l0.4,0.1l0.2,0.4l0.4,1.2l0.4,0.2l0.7-0.3l0.2-0.9L605,635
		l-1.1-1.9l0.2-1.2l0.5-0.4l1-0.2l0.2-0.3l-0.2-0.6l-0.6-0.8l-0.9-0.7l-0.6-0.9l-0.1-0.9l1-1l0.4-0.8l0.3-0.8l0.4-0.3v-1.7h2.7
		l0.8-0.6l0.5-2.9l0.4-1.1l-1.5-2.1l-0.4-0.7l1.3-0.3l1.9-0.1l1.6,0.2l0.8,0.5l0.2,0.4l0.7,0.4l0.9,0.2l0.7,0.1l1.8-2.7l0.6-0.7
		l0.9-0.5l1.3-0.2l0.5,0.3l0.6,0.7l0.7,1.4l0.5-0.6l0.7-1.3l1.1-0.2l4.6,0.2l1.7-0.3l1.1-0.4l1.1,0.1l1.4,1l1.1,1l0.7,0.4l0.4-0.7
		l0.3-3.5l0.4-0.7h0.9l1.2-1l0.3-2.6l-0.1-0.7l-0.5-0.5l0.2-0.7l0.6-0.4l1.3-0.1l1.1,0.1l1.5-0.1l1.5-0.2l2-0.9l1.3-0.4l1.1,0.3
		l0.7,0.7l0.5,0.7l0.6,0.3l0.6-0.3l1.1-0.4l1.4-0.2l2.6-0.9l1.4,0.1l1.1,0.8h0.5l0.1-1l0.5-0.8l0.9-0.2l0.9,0.5l0.5,0.8l0.5,0.6h0.8
		l0.7-0.1l0.5,0.1l0.8,0.9l1.2,0.5l0.4,0.3l0.1,0.5l-0.1,0.9l0.1,0.2l0.6-0.1l1.5-1.2l0.9-0.2l0.6,0.3l1.2,0.9h0.5l-0.2,1.9l0.3,0.3
		l0.4,0.6l0.5,0.4l1.1-0.4l0.5-0.5l0.9-1.6l0.8-0.6l0.9,0.3l4.4,0.6l0.8-0.5l-0.1-2.7l0.5-1l0.8-0.3l1,0.3l0.1,0.8l0.6,0.2h0.9
		l2.3-1.2l0.8-0.2l0.6,0.4l0.8,1l1.5-0.1l-0.1-1.1l-0.3-1.4l0.9-0.7l0.7,0.1l1.3,0.3h0.7l0.9-0.3l0.2-0.7v-0.9l0.1-0.8l1.9-0.4
		l1.5-1.3l0.8,0.2l1.2,0.5l1.1,0.4l2.1-0.2l0.8-0.5l0.7-0.7l0.6-0.4l0.9,0.1l0.7,0.5l0.7,0.2l0.4-0.3l0.5-1.1l0.8-1l1.1-0.9l2.1-0.4
		l0.3-0.8l0.7-0.5l0.8-0.2h0.5l-0.7-1l-0.1-0.8l0.4-0.9l1.4-0.2l2.9-0.1l0.6-0.4l0.2-1.1l0.5-1.1l0.7-0.8l-0.3-0.8l-0.9-1l-0.1-1.2
		l1-0.5l1.5,0.1l2.9,0.4l1.5,0.7l0.4,1.4l0.1,1.6l0.5,1l2.7-1.5l1.6-0.5l0.8,0.8l-0.2,0.7l-0.4,0.7l-0.2,0.6l0.4,0.6l0.9,0.2l0.9-0.6
		l1.5-1.7l0.6-0.8l0.7-1.7l0.6-0.8l0.9-0.2l0.6,0.6l1,1.7l1.3,1l0.9-0.4l1.5-2.5l0.3,1.1l0.2,2.3l0.4,0.8l0.8,0.1l0.9-0.4l1.6-1.1
		l2.5,1.4l2.5,1l2.5-0.2l2.8-1.9l3.3-4.6l0.9-0.7l1.2-0.5l0.5,0.2l0.5,1.6l0.3,4.2l0.3,1.5l2.7,4.6l0.6,1.7l0.4,3.3l0.4,1.6l1.2,1.4
		l1.3,0.7h1.3l1.2-0.2l1.4-0.1l2.5,1.2l1.9,2.5l4.6,11.8l0.9,1.4l1,0.6l2.5,1l2.2,2.4l-0.3,2.8l-1.7,2.8l-4.1,5.1l-0.8,0.6l-0.7,0.2
		l-1.5,0.3l-0.8,0.4l-4.1,3.9l-21.9,20.2l-1.1,1.9v4.6l1-0.8l0.5-0.9l0.7-0.8l1.3-0.4l1.5,0.1l0.7-0.1l1.3-0.6l0.6,0.2l0.7,0.8
		l2.8,1.4l1.7,0.3l1.3-0.5l1.3-0.3l1.2,1l1,1.5l0.4,1.2l0.4,3.1l0.4,1.4l0.8,0.7h3l1.3,0.4l1,0.9l0.3,0.6l0.4,1.2l0.3,0.5l0.6,0.5
		l1.4,0.7l0.5,1l1.1,1.3l0.3,0.3l0.8,0.2l0.5,0.6l0.3,0.8l0.5,0.7l0.6,0.4l1.5,0.9l0.6,0.5l0.3,0.7l0.3,0.9l0.4,0.8l0.6,0.4l0.8,0.2
		l0.7,0.5l1.3,1.3l0.6,0.4l2.4,0.7l2.2,1.4l0.6,0.5l0.2,0.7v1.3l0.4,0.6l0.4,1.3l-0.9,1.4l-1.3,1.2l-0.7,0.9v1.2l1.1,2.6l0.4,2.1
		l1.2,2.9l0.5,0.9l1,0.5l1.3,0.4l1,0.5l0.4,1.1l0.2,3.7l-0.2,1.1l-0.3,0.5l-1.1,1.4l0.2,0.9l0.5,0.7l0.5,0.5l0.5,0.9l1.2,0.9l0.3,0.5
		l0.2,0.7l1.2,2.3l5.8,15.3l0.2,1.5v3l0.2,1.3l0.7,1.5l1.4,2.3l0.7,1.5l0.2,1.5l-0.4,2.7l0.2,1l0.7,0.7l0.7,0.6l0.7,0.7l0.7,1.3
		l0.5,1.7l0.1,1.6l-1.2,2.5l0.3,1.6l1.4,2.9l-2.6,0.5l-10.2,2.8l-1.4-0.2l-0.5-1.7l-0.3-3.5l1.7-19.4l-0.7-4.2l-2.3-7.1l-2.6-5.3
		l-7.3-9.7l-1.6-2.9l-2.1-5.2l-1.4-2.5l-1.7-1.7l-1.1-0.5l-2.8-1l-1.1-0.1l-0.6,0.3l-1.1,1.2l-0.6,0.3l-2.4,0.3l-1.1,0.8l-1.9,1.5
		l-2.6,1.3l-5.1,5.4l-8.1,10.9l-2.1,1.9l-2.6,1.5l-2.2,0.8l-2.4,0.6h-2.4l-2.3-0.6l-2.2-1.9l-1.9-2.6l-1.3-2.9l-1.5-4.3l-0.7-1.3
		l-1-0.9l-1.5-0.6l-1.4-0.3l-0.5-0.2l-0.6-0.6l-0.1-0.5v-1.3l-0.3-0.4l-0.6,0.4l-4,10.1l-1.3,1.9l0.4,0.3l1.7,0.2l0.6,0.8l-0.1,1.5
		l0.1,1.2l2.5,0.1l0.6,0.4l0.2,0.5l-0.1,0.9l0.2,0.4l0.6,0.4l1.1,0.6l-56.2,0.1h-23.7l-2.8-0.4l-5.1-2.1l-4.8-1.1l-2.6,0.2l-4.6,2.1
		l-2.8,0.3l-1.4-0.3h-1.2l-1.2,0.3l-2.9,1.5l-1.2,0.3L624.2,737.5L624.2,737.5z"/>
	<path id="COL1425" class="dep" d="M542.1,659.4l-1.3,0.3l-1.4-0.7l-0.6-0.2l-0.4,0.5l-0.7,0.4l-0.7-0.2l-0.7-0.6l-0.7-0.5l-0.6-0.1
		l-2.3,1.8l-0.8,0.2h-0.7l-0.8-0.5l-0.7-0.2h-1.1l-0.6-0.4l-0.5-0.8l-0.3-1l-0.6-0.5H526l-0.4,0.6l-0.4,1.8l-0.4,0.6l-0.6,0.2
		L523,659l-0.6-0.1l-0.4,0.5l-0.5,1.4l-0.8,0.1l-1.3-0.6l-2.3-1.4h-0.5l-0.9,1.3l-0.8,0.3l-1.5-0.5l-1.4-0.2l-1.7,0.2h-0.9l-0.8,0.2
		l-0.5,0.7l-0.7,0.7l-2.9,1.3l-1.4-0.2l-0.3-0.7l0.1-1.9l-0.2-0.4l-0.4,0.1l-1.1,1.1l-0.8,0.4l-0.9-0.3l-2.5-2.4l-0.6-0.1l-0.3,0.4
		v2.1l-0.2,1.2l-0.6,0.7l-0.7-0.4l-0.5-2l-0.4-0.5l-0.6-0.1l-0.9,0.5l-0.7,0.8l-1.4,0.7l-7.2,1.4l-0.2,0.2l-1.3,0.3l-0.9,0.3
		l-0.9-0.1l-0.5-0.8l-0.3,0.3l-0.8-0.7l-2.6-0.2l-1.5-0.4l-1-0.8l-0.9-1.6l-1-0.3l-1.4,0.4l-2.6,0.5l-0.8,0.4l-0.3,0.9l0.1,1.3
		l0.2,1.2l-0.1,1.6l-0.9-0.1l-0.9,0.2l-0.9,0.5l-0.9,0.6l-0.2,0.5l0.1,0.7l0.1,1.4l-0.3,1.3l-0.3-0.4l-0.8-2.3l-1-1l-0.8,0.1
		l-0.6,0.9l-0.4,1.4l-2.6-1.5l-1.2,0.1l-2.6,2.3l-1.1,0.6l-1.2,0.3l-2.4,0.1l-0.6,0.3l-1.5,1.3l-0.8-0.2l-1.4-0.2l-0.5-0.3h-0.5
		l-0.1,0.7l0.5,0.6l0.8,0.5v0.5h-1.7l-0.8,0.8l-0.2,1.4v1.9l-0.5-0.4l-1.1-1.9l-0.7-0.4l-0.9,0.9l-0.5,2.8L436,680l-0.4-0.3l-0.2-0.5
		l-0.5-2.3l-0.8-0.4l-2.2,0.5l-0.8,0.7l-0.6,1.4l-0.9,1.1l-1.7-0.4l-0.6-1l-0.6-0.4l-0.7-1l-0.7-0.1l-1.3,0.4l-5.8,3.3l-0.5,0.9
		l-0.4,0.8l-1.2,0.6l-0.3,1.1l0.7,0.7l0.3,0.7l-0.2,0.6l-1.5,0.3l-0.6,0.5l-0.4,0.7l-1.2,0.6l-1.4,1.1l-0.9,0.6l-0.7-0.1l-0.4-0.4
		h-0.6l-1.1,0.3l-1.3,1.1l-1,0.9l-0.5,0.1l-0.9-0.6l-0.5-0.2l-0.4,0.3v1.1l-0.3,0.5l-0.7,0.3h-0.6l-0.5-0.4l-0.4-1l-0.4-0.2l-1.7,0.3
		l-1.1-0.5l-2.2,1.1v0.4l0.4,0.5v0.6l-0.6,0.4l-1.7,0.1l-1.1,0.3l-1.7-0.6l-0.6,0.2l-0.7,0.9l-0.5,0.1l-0.2-0.4l0.1-0.9l-0.4-0.4
		h-0.8l-0.3,0.5l-0.6,1.2l-0.4-0.1l-0.3-0.6l-0.5-0.3h-1.2l-1,0.9l-0.3-0.1l-0.2-0.5v-0.8l0.1-0.8l-0.8-1.5l-0.4,2.1l-0.3,0.5
		l-0.4-0.1l-0.5-0.4l-0.6-0.2l-2.2,0.3l-0.3-0.4l-0.7-1.3l-0.3-0.3h-0.4l-2,1.2l-0.8,0.2h-0.5l-0.4-0.5l-0.1-1.1l-0.4-0.1l-0.5,0.3
		l-0.8,0.5l-0.6,0.6v0.7l0.2,0.5l-0.1,0.6l-0.9,1.3l-0.6,1.2l-0.5,0.6l-0.3,2.7l0.1,8.6l-0.2,32.5l-0.9,1.2l-5.6-0.9l-6.4,0.5h-2.5
		l-1.9-0.3l-39.8-14l-2.7-1.9l-2.3-2.9l-1.5-3.2l-0.6-3.1V715l0.7-2.1l1.3-1.7l1.5-1.6l1-1.4l0.4-1.2v-1.4l-0.7-1.4l-1-1.5l-4.1-4.6
		l-1.1-1.7l-0.6-1.9l-0.3-2.4l0.1-2.1l0.4-3.4l3.8-14.9l-0.1-2.4l-0.8-1.3l-1.3-1l-1.3-1.2l-1-1.5l-1.9-5l-0.6-1l-0.9-0.8l-1.2-0.7
		l-1.3-0.4l-3.2-0.4l-6.7-2.2l0.1-0.4l1.8-5.2l2.3-4l0.7-0.9l1.5-1.1l2-0.9l1.7-1.8l3.2-2.1l1.2-1l2-3.4l0.7-2.2l0.3-2.2l0.3-5.6
		l0.3-2.8l0.8-2.3l5-6.7l1.4-2.5l1.5-3.7l0.3-1.9l2,1.8l1.9,0.1l0.6-0.3l0.4-0.9l0.4-0.5l0.9-2l4.4-5.4l1.3-2.2l0.6-1.5l-0.1-1.4
		l0.6-0.8l1.3-1.3l1.7-2l0.9-1.5l1.3-2.7l1-0.7l3.6,0.9l2.1,0.1l3.3-3.2l2.4-1.6l1.1-1.2l1.1-0.6l1-0.2l1-0.1l1.1-0.3l0.6-0.8
		l0.7-1.3l1.5-0.8l1.2-0.2l4.5-2l0.6-0.6l0.7-0.5h1.5l0.8,0.2l1.9-0.1l-0.7-2.2l-0.1-0.8v-1l-0.5-1.1l-1.1-1l-0.2-1.4l0.2-1.3
		l-0.8-3.6l-0.9-0.9l0.1-1.4l0.5-0.7l0.7-0.9l0.5-0.4l1.6-0.7l1.5-0.9l0.4-0.8l1-1.6l0.6-0.6l0.9-0.2l0.7,0.2l0.7,0.4l0.7,0.9
		l0.7,0.6h1l0.6,0.1l0.6,0.3l0.8,1.4l0.8,0.9l0.9,1.3l0.3,0.6v0.9l0.4,1.9l1.4,3.2l0.1,0.8l0.3,0.5l0.6,0.5l0.8,0.4l1,0.4l0.8,0.4
		l0.9,0.2l1.1-0.2l1.1-0.5l1.7-1.3l4.3-0.5l8.2,2.1l1.5,0.6l0.8,0.6l0.4,0.8l0.3,0.3l0.8,0.4l1.8,1.2l1,0.5l0.5-0.3l0.3-0.6l0.2-1.6
		l2.2-14.6l2.3-16l0.7-1.2l0.4,2l0.4,0.7l3.1,3l4.6,8.4l6,6.4h1l0.6,0.3l0.3,0.8l1.1,1.3l0.2,0.6l0.1,0.4l0.4,0.6l-0.2,1.4l0.5,0.1
		l1.1-0.2l0.5,0.2l0.4,2.4l1.5,0.9l0.5,0.1l0.7-0.1l0.4-0.3l0.9-0.8l0.6-0.3l0.6,0.1l2.6,0.4h0.5l0.6-0.5l0.5,0.3l0.8,0.7l0.6-0.2
		l1.4-2.7l0.4-0.4l0.8,0.1l1,0.3l0.8,0.4l0.4,0.4l0.7,1.1l1.6-0.5l3.2-1.8l1.3,0.9l1.7,0.3l1.5-0.4l2.9-4.5l0.9-0.4l10.8-2.4h0.7
		l0.8,0.3l2.5,1.6l0.6,1l0.7,1l1.4,0.4l2.5-0.7l2.6-1.6l5.1-4.3l5.3-5.7l0.7-0.5l0.7-0.1h0.7l0.8-0.1l6.1-1.8l2.8-1.4l5.3-3.7
		l19.5-8.4l4-0.6l0.6-0.5l3.2-2.6l1.9-1.1l1.1-0.5l0.9-0.2l0.9-0.4l1.8-1.7l-0.2,105.1L542.1,659.4L542.1,659.4z"/>
	<path id="COL1426" class="dep" d="M624.2,737.5h-1l0.5,2.6v4.7l-0.2,36.3l1.5,0.2l2.8-1.8l1.7-0.5h0.9l0.9,0.2l0.5,0.4l0.1,1.4
		l0.8,0.2l6.4-1l1.6,0.1l2.9,1l0.7,0.1h2.2l2.1-0.3h0.7l0.6,0.3l0.8,0.9l1.3,0.8l0.7,0.1l3.2-2.3l1-0.3l1.1,0.2l3.4,1.8l0.9,0.6
		l1.2,1.5l1.1,0.7l0.5,0.5l0.2,0.6l0.1,0.8l0.2,0.7l1.4,0.9l-0.3,2.5l1,1l1.6,0.6l0.8,0.5l0.4,0.5v0.9l-0.5,0.4l-0.6,0.1l-0.4,0.2
		l-0.2,1.4l0.7,3v1.5l-0.5,0.8l-0.7,0.5l-0.4,0.6l0.2,0.9l0.5,0.5l1.5,0.7l0.5,0.5l0.7,1.5l0.2,1.2l-0.4,0.8l-1.2,0.4l-0.6-0.1
		l-1.3-0.4h-0.7l-0.5,0.3l-0.7,1l-0.5,0.3l-1.1,0.1l-2.5-0.4l-1.2,0.1l0.3-1.8l-0.6-0.8l-1.2,0.1l-1.5,0.4l-1.4,0.6l-0.4-0.2
		l-4.8-4.8l-1.2-0.9l-1.4-0.3l-1.7,0.2l-1.3,0.6l-2.2,1.4l-1.2,0.2l-1.4,0.5l-0.7,1.5l-0.9,1.1l-2.2-0.4l-1.9-0.9l-1,0.1l-2.6,2
		l-2.3,1.3l-2.5,0.9l-2.8,0.5l-4.6,0.3l-1.3,0.4l-1.3,0.2l-1.6-0.3h-1.5l-1.4,0.7l-1.3,0.4l-1-1l-0.5,17.3l-0.2,7.4l-0.5,18.2
		l-0.1,5.1l0.4,2.4l0.8,1.4l2.6,3l3.4,3.1l1.5,2.2l0.7,0.6l1.3,0.5l2.7,0.6l1.1,0.8l0.4,0.6l0.7,1.5l0.5,0.7l0.6,0.4l1.6,0.8l0.7,0.5
		l2,2.1l1,0.9l5.4,2l1.1,0.6l1.2,1l0.8,1.2l0.6,1.3l0.3,1.5v2l0.1,0.7l0.4,0.7l0.8,1l0.2,0.9l-0.4,1.5l-2.1,3.2l-0.5,1.2l0.7,1.6
		l2.6,2.9l0.5,0.9l-0.2,1.7l0.2,0.7l0.6,1l0.4,0.4l1,0.6l0.4,0.7v0.8l-0.1,0.6l-0.1,0.7l0.5,0.9l0.5,0.5l1.5,0.6l0.6,0.4l1.5,2.2
		l0.4,0.3l1,0.2l0.5,0.8l-0.1,0.2l0.3,2.5l-0.1,0.8l-0.5,1.4l0.1,0.8l2.5,4l0.7,2.1l-1.4,3.8l-2.3-2.7l-0.3-0.9l-0.4-0.4l-1-0.4
		l-0.9-0.1l-4.8-2.4l-1-0.1l-3.4,2l-0.8,0.1l-0.5-0.4l-0.5-1.3l-0.2-1.3l0.3-1.1l0.5-1.1l0.3-1.2l-0.3-1.1l-0.9-1.1l-2.7-2.4l-1-0.6
		l-1-0.2l-1,0.4l-0.6,0.7l-0.5,1.8l-0.8,0.6h-1.4l-3-1.2h-1.6l-1.1,0.6l-1,0.9l-1.1,0.6l-1.3-0.1l-1.1-0.9v-0.9l0.9-2.1v-1.4l0.1-0.3
		l0.4-0.5l1.2-1l0.5-0.9l0.3-0.8l-0.4-0.6l-1.5,0.1l-1.1,0.4l-1,0.6l-1,0.2l-2-1l-0.7,0.5l-0.6,0.8l-0.9,0.5h-0.6l-0.6-0.2l-1.3-0.7
		H608l-1.1,0.6l-1.7,2.1l1,1.6l1.7,1.3l0.8,1.8l-0.6,1.3l-1.2,0.7l-1.3,0.2l-1.3-0.3l-3.3-2.6l-0.6-0.7l0.1-0.9l0.8-1.8l0.2-0.9
		l-0.4-0.9l-0.9,0.4l-1.7,1.5l-1.2,0.3l-1.2-1l-0.9-1.4l-0.4-1.3l0.2-1.1l0.8-0.8l2-1.3l1.5-2.3l-1.4-2.1l-2.1-2.2l-0.6-2.4l0.7-0.9
		l1-0.6l0.9-0.7l0.1-1l-0.7-2.1l-0.2-1.1v-1.2l0.4-2.6v-1.3l-0.3-1.2l-1-0.9l-1.2,0.1l-1,0.4l-0.7-0.1l-0.1-1.5l1.4-1.9l4.2-3.9
		l0.6-0.8l-0.3-0.8l-1.5-0.9l-1.5-0.4h-1.3l-1.2,0.4l-1.4,0.7l-0.7,0.9l0.2,1.8l-0.5,0.7l-1.3,0.2l-3.5-0.7l-2.9,0.1l-0.3-0.6l0.2-1
		V881l-0.5-1.2l-0.8-1.3l-1-1.2l-1.1-0.7l-1.1-0.3l-3.4,0.3l-0.9-0.4l-1.4-1.7l-0.9-0.5h-0.8l-1.5,0.3l-0.8-0.1l-0.7-0.3l-1.9-1.6
		l-1.2-0.6l-1.5-0.5l-1.3,0.1l-0.7,1.1l-0.3,1.1l-0.8,0.6l-1.1,0.2l-2.4-0.1l-0.6-0.2l-0.4-0.6l-1.6-3.5l-1.6-4.5l-2.5-3.2l-0.1-0.8
		l0.4-0.8l0.3-1.2v-1.2l-0.3-1l-0.5-1l-2-2.9l-0.9-1l-0.8-0.5h-0.9l-1.4,0.7l-0.8,0.1l-1.2-0.4l-2.6-1.3l-1.3-0.4l-1.5-0.6l-0.6-1.1
		l-0.6-2.8l-1-1.4h-1.4l-2.8,1.3h-1.1l-1.1-0.1l-1.1-0.4l-1-0.5l-1.5-1.5l-2.1-1.9l-2.3-0.8l-1.5-1l-0.8-0.2l-2.1,0.6l-0.7,0.1
		l-0.6-0.1l-1.2-0.4l-0.6-0.1l-1.1,0.4l-0.7,0.4h-0.8l-3.4-2.2L500,835l-0.8-0.9l-1.4-2.4l-0.8-0.6l-1.5-0.5l-0.8-0.9l-0.5-1.2
		l-0.7-1.2l-1-0.2l-2.1,1.4h-1l-0.3-0.9l0.2-1.1l0.3-1.2l0.1-1l-1.5-1.3l-2.6-1.6l-2.2-1.7v-1.6l0.6-0.9l0.1-1.1l-0.4-1l-0.8-1
		l-1.1-0.7l-0.5,0.2l-0.3,0.6l-0.5,0.2l-1-0.8l-0.5-1.1l-0.4-2.7l-0.8-1.5l-1.1-0.6l12.7-13.2l2-1.6l2.1-2.2l0.5-0.9l0.5-1.2l1-1.5
		l0.9-0.8l1.3-0.3l1,0.2l0.9,0.3l0.7,0.1l0.8-0.2l3-3.2l1.3-0.9l0.7-1l0.8-1.7l0.1-0.6v-1.5l0.2-0.6l0.5-0.3l1,0.2l0.1-0.5l-0.1-0.7
		l0.1-0.9l0.4-0.4l0.4-0.1l0.3,0.3l0.3,1.4l0.2,0.8l0.5,0.6l0.8,0.3l0.7-0.2l0.2-0.6l-0.3-0.9l-0.6-0.7l-0.5-1l-0.8-1.3l-0.2-0.6
		l-1-1.7v-0.9v-1.5l0.2-1.3l0.5-0.6l3.1-7.3l0.5-1.9l0.4-1.7l0.8-1.5l1.4-3.3l0.6-2.3l0.6-1.1l1.8-2.3l0.4-1.5l0.3-1.9l0.3-5.6
		l1.1-0.3l1.9,1.5l2.3,0.9l1.3,1.4l0.7,0.2l1.2,0.2l1.2-0.7l1.4-1.2l1.2-1.3l3.2-2.3l5.5-3l3.5-1.2l2.2-1.2l1.7-1.2l2.8-2.7l1-1.4
		l0.5-0.3l1.1,0.2l6.2-0.2l2.5,0.3l0.9-0.2l1.5,0.4l0.6,0.4l0.8,0.3l0.9,0.1l1-0.1l1.2-0.2l2.1-1.1l4.5-1l1.4-0.6l2.5-0.5l0.9-0.4
		l0.6-0.5l1-1l1.2-0.6l2.7-0.4h1.1l0.7-0.3h1.2l1.4-0.1l2.3-0.8l3-0.8l3.9-0.4l1.2-0.6l0.8-0.6l1.6-1.5l2.9-2.1l-0.2,2.9l-0.7,3.5
		l-2.9,7l-0.1,1.2l0.4,1l7.2,6l3.4,1.7l2,0.8l3.2,0.2l3,0.9L624.2,737.5L624.2,737.5z"/>
	<path id="COL1427" class="dep" d="M767,580.5l-1.2,0.5l-0.9,0.7l-3.3,4.6l-2.8,1.9l-2.5,0.2l-2.5-1l-2.5-1.4l-1.6,1.1l-0.9,0.4
	l-0.8-0.1l-0.4-0.8l-0.2-2.3l-0.3-1.1l-1.5,2.5l-0.9,0.4l-1.3-1l-1-1.7l-0.6-0.6l-0.9,0.2l-0.6,0.8l-0.7,1.7l-0.6,0.8l-1.5,1.7
	l-0.9,0.6l-0.9-0.2l-0.4-0.6l0.2-0.6l0.4-0.7l0.2-0.7l-0.8-0.8l-1.6,0.5L731,587l-0.5-1l-0.1-1.6L730,583l-1.5-0.7l-2.9-0.4
	l-1.5-0.1l-1,0.5l0.1,1.2l0.9,1l0.3,0.8l-0.7,0.8l-0.5,1.1l-0.2,1.1l-0.6,0.4l-2.9,0.1l-1.4,0.2l-0.4,0.9l0.1,0.8l0.7,1H718
	l-0.8,0.2l-0.7,0.5l-0.3,0.8l-2.1,0.4l-1.1,0.9l-0.8,1l-0.5,1.1l-0.4,0.3l-0.7-0.2l-0.7-0.5l-0.9-0.1l-0.6,0.4l-0.7,0.7l-0.8,0.5
	l-2.1,0.2l-1.1-0.4l-1.2-0.5l-0.8-0.2l-1.5,1.3l-1.9,0.4l-0.1,0.8v0.9l-0.2,0.7l-0.9,0.3h-0.7l-1.3-0.3l-0.7-0.1l-0.9,0.7l0.3,1.4
	l0.1,1.1l-1.5,0.1l-0.8-1l-0.6-0.4l-0.8,0.2l-2.3,1.2H687l-0.6-0.2l-0.1-0.8l-1-0.3l-0.8,0.3l-0.5,1l0.1,2.7l-0.8,0.5l-4.4-0.6
	l-0.9-0.3l-0.8,0.6l-0.9,1.6l-0.5,0.5l-1.1,0.4l-0.5-0.4l-0.4-0.6l-0.3-0.3l0.2-1.9h-0.5l-1.2-0.9l-0.6-0.3l-0.9,0.2l-1.5,1.2
	l-0.6,0.1l-0.1-0.2l0.1-0.9l-0.1-0.5l-0.4-0.3l-1.2-0.5l-0.8-0.9l-0.5-0.1l-0.7,0.1h-0.8l-0.5-0.6l-0.5-0.8l-0.9-0.5l-0.9,0.2
	l-0.5,0.8l-0.1,1H660l-1.1-0.8l-1.4-0.1l-2.6,0.9l-1.4,0.2l-1.1,0.4l-0.6,0.3l-0.6-0.3l-0.5-0.7l-0.7-0.7l-1.1-0.3l-1.3,0.4l-2,0.9
	l-1.5,0.2l-1.5,0.1l-1.1-0.1l-1.3,0.1l-0.6,0.4l-0.2,0.7l0.5,0.5l0.1,0.7l-0.3,2.6l-1.2,1h-0.9l-0.4,0.7l-0.3,3.5l-0.4,0.7l-0.7-0.4
	l-1.1-1l-1.4-1l-1.1-0.1l-1.1,0.4l-1.7,0.3l-4.6-0.2l-1.1,0.2l-0.7,1.3l-0.5,0.6l-0.7-1.4l-0.6-0.7l-0.5-0.3l-1.3,0.2l-0.9,0.5
	l-0.6,0.7l-1.8,2.7l-0.7-0.1l-0.9-0.2l-0.7-0.4l-0.2-0.4l-0.8-0.5l-1.6-0.2l-1.9,0.1l-1.3,0.3l0.4,0.7l1.5,2.1l-0.4,1.1l-0.5,2.9
	l-0.8,0.6h-2.7v1.7l-0.4,0.3l-0.3,0.8l-0.4,0.8l-1,1l0.1,0.9l0.6,0.9l0.9,0.7l0.6,0.8l0.2,0.6l-0.2,0.3l-1,0.2l-0.5,0.4l-0.2,1.2
	l1.1,1.9l0.1,0.9l-0.2,0.9l-0.7,0.3l-0.4-0.2l-0.4-1.2l-0.2-0.4l-0.4-0.1l-0.2,0.3l-0.1,0.9l0.2,0.8l-0.2,0.8l-0.8,0.3l-0.6-0.1
	l-0.9-0.9l-0.6,0.3l-0.2,0.5l-1.6,0.9l-0.9,0.8l-1.5,1.8l-1.1,2l-1.2,0.9l-0.3,0.4l0.3,0.4l1.5,0.3l0.7,0.2l0.6,0.5l0.1,0.6
	l-0.3,0.6l-0.7,0.4l-0.8,0.2l-0.2,0.4l0.1,0.6l0.6,1.2l0.3,1.3l0.1,1.6l-0.4,1.2l-3.5,2.2l-0.6,0.8l-0.2,0.7l-0.2,0.9l-0.8,0.9
	l-1.6,1l-5.6,2.3L580,665l-6.3-3.8l-1.1-0.2l-1.4-0.1l-0.8,0.9h-0.5l-1.7-2l-0.6-0.5h-0.7l-0.2,0.4l0.1,0.6l0.4,0.7l0.2,0.8v0.6
	L567,663l-2.8,2.2l-0.4-0.1l-0.2-0.7v-0.8l-0.3-0.5l-0.5-0.1l-0.8,0.2l-0.9,0.6l-1,0.5l-1.1,0.2l-0.6-0.3l-0.8-1.4l-1.1-0.7h-1
	l-1.7,0.8l-0.1-0.4l0.1-0.7l-0.1-0.9l-0.9-0.8l-0.6,0.1l-0.4,0.6l0.1,0.9l-0.4,0.4l-0.6-0.4l-0.8-1.3l-1.2-0.8h-0.5l-0.2,0.8l0.2,1
	v0.9l-0.3,0.6l-0.4,0.2l-0.4-0.3v-0.6l0.2-1.4l-0.2-0.5L546,660l-1.2-0.2l-1.2-0.7l-1.5,0.3v-33.2l0.2-105.1l0.8-0.7l1.4-2l4.5-10.7
	l1.1-1.2l2.6-0.7l1.2-0.6l11.8-10.3l1.1-0.4l0.6-0.7l0.2-3.2l0.4-1.2l1.1-1l2.9-1.2l1.2-0.8l1.4-1.1l4.5-2.4l4.3-3.2l1.4-0.5
	l1.5-0.2l4.2-1.7l2.5-0.5l5.3-0.2l2.8-0.6l2-0.9l2.2-1.4l2.1-1.6l1.6-1.6l2.3-3.6l0.3-0.9l2.9-3l1.1-1.9l4.8-11l1.5-2.3l1.4-1.5
	l0.6-0.7l2-1.2l2.1-0.5l14.3,0.5l2.7-0.5l6.7-4.1l1.8-0.4l3.2-1.5l1.8-0.4l1.4,0.7l2.8,3.3l1.5,1.2l3.9-2.2l3.9-3.9l1.5-0.8l1.9-1.9
	l1.3-0.5l1.6-0.1l1.4,0.3l2.5,1.2l1.2-0.4l1.5,0.4l1.6,0.5l1.5,0.3l4.3-0.2l1.4,0.2l4.3,1.4l1.5,0.1l1.4,0.3l2.8,1.3l1.6,0.2
	l0.9-0.4l1.8-1.5l0.7-0.4l4.2-0.2l4.9-1.5l1.5-0.1l1.4,0.1l4.4,1.2h2.4l7.7-2.7l2.9-0.4l8.6,0.8l2.8-0.4l2.3-0.8l1.3-0.4l0.5-0.5
	l0.4-0.7l0.1-0.7l0.3-0.8l0.8-0.2h0.9l0.8-0.1l0.7-0.6l1.2-1.3l0.8-0.4h0.6l1.2,0.3l4.7,0.4l10.5,2.5l2,1.2l1.8,1.8l1.8,1.4l2.8,0.2
	l-1.8,1.3l-0.7,0.8l-0.3,1v2.6l2.5,3.9l1.7,1.2l0.5,1.4l0.2,1.5l-0.3,1.2l-0.8,0.7l-2.4,1l-1,0.6l-3.2,3.5l-0.6,1l-4,3.8l-1.6,2.5
	l-1.1,2.7l-0.5,2.9v3.1l0.7,3.9l0.2,1.4l1.2,1.3l0.2,0.3l-0.2,0.8l-0.4,0.5l-0.8,1l-0.8,2.4l-0.4,0.4l-0.8,0.2l-0.7,0.5l-1.2,1.4
	l-0.6,0.4l-2,0.7l-0.3,0.3l-0.7,0.8l-0.7,0.4l-1-0.1l-2.5,2.1l-1.7,2.7l-0.6,2.8l0.6,2.6l0.7,1.1l0.4,1l0.2,1.2l0.1,1.6l-0.1,0.6
	l-0.6,1.6l-0.2,0.8v0.8l0.2,1.3l0.2,0.7l0.4,0.6l1.3,1.4l0.2,0.5l-0.1,0.7l-0.7,0.8l-0.1,0.4l0.1,3l-0.1,1.3l-0.9,2.6l-0.4,2.6
	l-0.1,1.5l0.1,0.5l0.8,1.6v0.9l-0.3,0.8l0.3,0.6l-0.4,1.3l-0.2,3l-0.5,1.1l-0.7,1.1l-0.3,1.4l-0.2,3.8l-0.5,1.8l0.1,2.1l-0.1,0.7
	l-0.3,0.5l-0.5,0.3l-0.4,0.5l-0.1,0.9l0.2,0.8l0.5,0.6l1.1,1v-0.5l1.3,0.9l0.5,0.9l0.5,2.3l0.3,0.3l0.8,0.3l0.3,0.4v0.6l-0.4,0.9
	l-0.1,0.5l0.3,0.9l0.9,1.5l0.2,0.9l-0.2,0.8l-1.2,2.2l-0.3,2.5l0.4,2.3l0.6,2.1l0.3,2.1l0.5,1.3l1.3,1l1.3,1.3l0.5,2.2l0.8,0.8
	l0.4,1.2L767,580.5L767,580.5z"/>
</svg>